G75*
%MOIN*%
%OFA0B0*%
%FSLAX25Y25*%
%IPPOS*%
%LPD*%
%AMOC8*
5,1,8,0,0,1.08239X$1,22.5*
%
%ADD10C,0.00000*%
%ADD11C,0.00600*%
%ADD12C,0.00400*%
%ADD13C,0.00500*%
%ADD14C,0.00200*%
%ADD15R,0.02000X0.10000*%
%ADD16R,0.07500X0.03000*%
%ADD17R,0.15000X0.02500*%
%ADD18C,0.00700*%
%ADD19C,0.01000*%
%ADD20C,0.02000*%
%ADD21R,0.05000X0.07500*%
%ADD22R,0.03000X0.07000*%
%ADD23R,0.05000X0.03000*%
%ADD24C,0.01200*%
%ADD25R,0.02400X0.03400*%
%ADD26R,0.10000X0.02000*%
%ADD27R,0.03000X0.07500*%
%ADD28C,0.00800*%
D10*
X0001000Y0001500D02*
X0001000Y0198961D01*
X0392201Y0198961D01*
X0392201Y0001500D01*
X0001000Y0001500D01*
X0006079Y0011500D02*
X0006081Y0011640D01*
X0006087Y0011780D01*
X0006097Y0011919D01*
X0006111Y0012058D01*
X0006129Y0012197D01*
X0006150Y0012335D01*
X0006176Y0012473D01*
X0006206Y0012610D01*
X0006239Y0012745D01*
X0006277Y0012880D01*
X0006318Y0013014D01*
X0006363Y0013147D01*
X0006411Y0013278D01*
X0006464Y0013407D01*
X0006520Y0013536D01*
X0006579Y0013662D01*
X0006643Y0013787D01*
X0006709Y0013910D01*
X0006780Y0014031D01*
X0006853Y0014150D01*
X0006930Y0014267D01*
X0007011Y0014381D01*
X0007094Y0014493D01*
X0007181Y0014603D01*
X0007271Y0014711D01*
X0007363Y0014815D01*
X0007459Y0014917D01*
X0007558Y0015017D01*
X0007659Y0015113D01*
X0007763Y0015207D01*
X0007870Y0015297D01*
X0007979Y0015384D01*
X0008091Y0015469D01*
X0008205Y0015550D01*
X0008321Y0015628D01*
X0008439Y0015702D01*
X0008560Y0015773D01*
X0008682Y0015841D01*
X0008807Y0015905D01*
X0008933Y0015966D01*
X0009060Y0016023D01*
X0009190Y0016076D01*
X0009321Y0016126D01*
X0009453Y0016171D01*
X0009586Y0016214D01*
X0009721Y0016252D01*
X0009856Y0016286D01*
X0009993Y0016317D01*
X0010130Y0016344D01*
X0010268Y0016366D01*
X0010407Y0016385D01*
X0010546Y0016400D01*
X0010685Y0016411D01*
X0010825Y0016418D01*
X0010965Y0016421D01*
X0011105Y0016420D01*
X0011245Y0016415D01*
X0011384Y0016406D01*
X0011524Y0016393D01*
X0011663Y0016376D01*
X0011801Y0016355D01*
X0011939Y0016331D01*
X0012076Y0016302D01*
X0012212Y0016270D01*
X0012347Y0016233D01*
X0012481Y0016193D01*
X0012614Y0016149D01*
X0012745Y0016101D01*
X0012875Y0016050D01*
X0013004Y0015995D01*
X0013131Y0015936D01*
X0013256Y0015873D01*
X0013379Y0015808D01*
X0013501Y0015738D01*
X0013620Y0015665D01*
X0013738Y0015589D01*
X0013853Y0015510D01*
X0013966Y0015427D01*
X0014076Y0015341D01*
X0014184Y0015252D01*
X0014289Y0015160D01*
X0014392Y0015065D01*
X0014492Y0014967D01*
X0014589Y0014867D01*
X0014683Y0014763D01*
X0014775Y0014657D01*
X0014863Y0014549D01*
X0014948Y0014438D01*
X0015030Y0014324D01*
X0015109Y0014208D01*
X0015184Y0014091D01*
X0015256Y0013971D01*
X0015324Y0013849D01*
X0015389Y0013725D01*
X0015451Y0013599D01*
X0015509Y0013472D01*
X0015563Y0013343D01*
X0015614Y0013212D01*
X0015660Y0013080D01*
X0015703Y0012947D01*
X0015743Y0012813D01*
X0015778Y0012678D01*
X0015810Y0012541D01*
X0015837Y0012404D01*
X0015861Y0012266D01*
X0015881Y0012128D01*
X0015897Y0011989D01*
X0015909Y0011849D01*
X0015917Y0011710D01*
X0015921Y0011570D01*
X0015921Y0011430D01*
X0015917Y0011290D01*
X0015909Y0011151D01*
X0015897Y0011011D01*
X0015881Y0010872D01*
X0015861Y0010734D01*
X0015837Y0010596D01*
X0015810Y0010459D01*
X0015778Y0010322D01*
X0015743Y0010187D01*
X0015703Y0010053D01*
X0015660Y0009920D01*
X0015614Y0009788D01*
X0015563Y0009657D01*
X0015509Y0009528D01*
X0015451Y0009401D01*
X0015389Y0009275D01*
X0015324Y0009151D01*
X0015256Y0009029D01*
X0015184Y0008909D01*
X0015109Y0008792D01*
X0015030Y0008676D01*
X0014948Y0008562D01*
X0014863Y0008451D01*
X0014775Y0008343D01*
X0014683Y0008237D01*
X0014589Y0008133D01*
X0014492Y0008033D01*
X0014392Y0007935D01*
X0014289Y0007840D01*
X0014184Y0007748D01*
X0014076Y0007659D01*
X0013966Y0007573D01*
X0013853Y0007490D01*
X0013738Y0007411D01*
X0013620Y0007335D01*
X0013501Y0007262D01*
X0013379Y0007192D01*
X0013256Y0007127D01*
X0013131Y0007064D01*
X0013004Y0007005D01*
X0012875Y0006950D01*
X0012745Y0006899D01*
X0012614Y0006851D01*
X0012481Y0006807D01*
X0012347Y0006767D01*
X0012212Y0006730D01*
X0012076Y0006698D01*
X0011939Y0006669D01*
X0011801Y0006645D01*
X0011663Y0006624D01*
X0011524Y0006607D01*
X0011384Y0006594D01*
X0011245Y0006585D01*
X0011105Y0006580D01*
X0010965Y0006579D01*
X0010825Y0006582D01*
X0010685Y0006589D01*
X0010546Y0006600D01*
X0010407Y0006615D01*
X0010268Y0006634D01*
X0010130Y0006656D01*
X0009993Y0006683D01*
X0009856Y0006714D01*
X0009721Y0006748D01*
X0009586Y0006786D01*
X0009453Y0006829D01*
X0009321Y0006874D01*
X0009190Y0006924D01*
X0009060Y0006977D01*
X0008933Y0007034D01*
X0008807Y0007095D01*
X0008682Y0007159D01*
X0008560Y0007227D01*
X0008439Y0007298D01*
X0008321Y0007372D01*
X0008205Y0007450D01*
X0008091Y0007531D01*
X0007979Y0007616D01*
X0007870Y0007703D01*
X0007763Y0007793D01*
X0007659Y0007887D01*
X0007558Y0007983D01*
X0007459Y0008083D01*
X0007363Y0008185D01*
X0007271Y0008289D01*
X0007181Y0008397D01*
X0007094Y0008507D01*
X0007011Y0008619D01*
X0006930Y0008733D01*
X0006853Y0008850D01*
X0006780Y0008969D01*
X0006709Y0009090D01*
X0006643Y0009213D01*
X0006579Y0009338D01*
X0006520Y0009464D01*
X0006464Y0009593D01*
X0006411Y0009722D01*
X0006363Y0009853D01*
X0006318Y0009986D01*
X0006277Y0010120D01*
X0006239Y0010255D01*
X0006206Y0010390D01*
X0006176Y0010527D01*
X0006150Y0010665D01*
X0006129Y0010803D01*
X0006111Y0010942D01*
X0006097Y0011081D01*
X0006087Y0011220D01*
X0006081Y0011360D01*
X0006079Y0011500D01*
X0006079Y0189000D02*
X0006081Y0189140D01*
X0006087Y0189280D01*
X0006097Y0189419D01*
X0006111Y0189558D01*
X0006129Y0189697D01*
X0006150Y0189835D01*
X0006176Y0189973D01*
X0006206Y0190110D01*
X0006239Y0190245D01*
X0006277Y0190380D01*
X0006318Y0190514D01*
X0006363Y0190647D01*
X0006411Y0190778D01*
X0006464Y0190907D01*
X0006520Y0191036D01*
X0006579Y0191162D01*
X0006643Y0191287D01*
X0006709Y0191410D01*
X0006780Y0191531D01*
X0006853Y0191650D01*
X0006930Y0191767D01*
X0007011Y0191881D01*
X0007094Y0191993D01*
X0007181Y0192103D01*
X0007271Y0192211D01*
X0007363Y0192315D01*
X0007459Y0192417D01*
X0007558Y0192517D01*
X0007659Y0192613D01*
X0007763Y0192707D01*
X0007870Y0192797D01*
X0007979Y0192884D01*
X0008091Y0192969D01*
X0008205Y0193050D01*
X0008321Y0193128D01*
X0008439Y0193202D01*
X0008560Y0193273D01*
X0008682Y0193341D01*
X0008807Y0193405D01*
X0008933Y0193466D01*
X0009060Y0193523D01*
X0009190Y0193576D01*
X0009321Y0193626D01*
X0009453Y0193671D01*
X0009586Y0193714D01*
X0009721Y0193752D01*
X0009856Y0193786D01*
X0009993Y0193817D01*
X0010130Y0193844D01*
X0010268Y0193866D01*
X0010407Y0193885D01*
X0010546Y0193900D01*
X0010685Y0193911D01*
X0010825Y0193918D01*
X0010965Y0193921D01*
X0011105Y0193920D01*
X0011245Y0193915D01*
X0011384Y0193906D01*
X0011524Y0193893D01*
X0011663Y0193876D01*
X0011801Y0193855D01*
X0011939Y0193831D01*
X0012076Y0193802D01*
X0012212Y0193770D01*
X0012347Y0193733D01*
X0012481Y0193693D01*
X0012614Y0193649D01*
X0012745Y0193601D01*
X0012875Y0193550D01*
X0013004Y0193495D01*
X0013131Y0193436D01*
X0013256Y0193373D01*
X0013379Y0193308D01*
X0013501Y0193238D01*
X0013620Y0193165D01*
X0013738Y0193089D01*
X0013853Y0193010D01*
X0013966Y0192927D01*
X0014076Y0192841D01*
X0014184Y0192752D01*
X0014289Y0192660D01*
X0014392Y0192565D01*
X0014492Y0192467D01*
X0014589Y0192367D01*
X0014683Y0192263D01*
X0014775Y0192157D01*
X0014863Y0192049D01*
X0014948Y0191938D01*
X0015030Y0191824D01*
X0015109Y0191708D01*
X0015184Y0191591D01*
X0015256Y0191471D01*
X0015324Y0191349D01*
X0015389Y0191225D01*
X0015451Y0191099D01*
X0015509Y0190972D01*
X0015563Y0190843D01*
X0015614Y0190712D01*
X0015660Y0190580D01*
X0015703Y0190447D01*
X0015743Y0190313D01*
X0015778Y0190178D01*
X0015810Y0190041D01*
X0015837Y0189904D01*
X0015861Y0189766D01*
X0015881Y0189628D01*
X0015897Y0189489D01*
X0015909Y0189349D01*
X0015917Y0189210D01*
X0015921Y0189070D01*
X0015921Y0188930D01*
X0015917Y0188790D01*
X0015909Y0188651D01*
X0015897Y0188511D01*
X0015881Y0188372D01*
X0015861Y0188234D01*
X0015837Y0188096D01*
X0015810Y0187959D01*
X0015778Y0187822D01*
X0015743Y0187687D01*
X0015703Y0187553D01*
X0015660Y0187420D01*
X0015614Y0187288D01*
X0015563Y0187157D01*
X0015509Y0187028D01*
X0015451Y0186901D01*
X0015389Y0186775D01*
X0015324Y0186651D01*
X0015256Y0186529D01*
X0015184Y0186409D01*
X0015109Y0186292D01*
X0015030Y0186176D01*
X0014948Y0186062D01*
X0014863Y0185951D01*
X0014775Y0185843D01*
X0014683Y0185737D01*
X0014589Y0185633D01*
X0014492Y0185533D01*
X0014392Y0185435D01*
X0014289Y0185340D01*
X0014184Y0185248D01*
X0014076Y0185159D01*
X0013966Y0185073D01*
X0013853Y0184990D01*
X0013738Y0184911D01*
X0013620Y0184835D01*
X0013501Y0184762D01*
X0013379Y0184692D01*
X0013256Y0184627D01*
X0013131Y0184564D01*
X0013004Y0184505D01*
X0012875Y0184450D01*
X0012745Y0184399D01*
X0012614Y0184351D01*
X0012481Y0184307D01*
X0012347Y0184267D01*
X0012212Y0184230D01*
X0012076Y0184198D01*
X0011939Y0184169D01*
X0011801Y0184145D01*
X0011663Y0184124D01*
X0011524Y0184107D01*
X0011384Y0184094D01*
X0011245Y0184085D01*
X0011105Y0184080D01*
X0010965Y0184079D01*
X0010825Y0184082D01*
X0010685Y0184089D01*
X0010546Y0184100D01*
X0010407Y0184115D01*
X0010268Y0184134D01*
X0010130Y0184156D01*
X0009993Y0184183D01*
X0009856Y0184214D01*
X0009721Y0184248D01*
X0009586Y0184286D01*
X0009453Y0184329D01*
X0009321Y0184374D01*
X0009190Y0184424D01*
X0009060Y0184477D01*
X0008933Y0184534D01*
X0008807Y0184595D01*
X0008682Y0184659D01*
X0008560Y0184727D01*
X0008439Y0184798D01*
X0008321Y0184872D01*
X0008205Y0184950D01*
X0008091Y0185031D01*
X0007979Y0185116D01*
X0007870Y0185203D01*
X0007763Y0185293D01*
X0007659Y0185387D01*
X0007558Y0185483D01*
X0007459Y0185583D01*
X0007363Y0185685D01*
X0007271Y0185789D01*
X0007181Y0185897D01*
X0007094Y0186007D01*
X0007011Y0186119D01*
X0006930Y0186233D01*
X0006853Y0186350D01*
X0006780Y0186469D01*
X0006709Y0186590D01*
X0006643Y0186713D01*
X0006579Y0186838D01*
X0006520Y0186964D01*
X0006464Y0187093D01*
X0006411Y0187222D01*
X0006363Y0187353D01*
X0006318Y0187486D01*
X0006277Y0187620D01*
X0006239Y0187755D01*
X0006206Y0187890D01*
X0006176Y0188027D01*
X0006150Y0188165D01*
X0006129Y0188303D01*
X0006111Y0188442D01*
X0006097Y0188581D01*
X0006087Y0188720D01*
X0006081Y0188860D01*
X0006079Y0189000D01*
X0048500Y0188083D02*
X0048500Y0188067D01*
X0048517Y0188050D01*
X0048550Y0188050D01*
X0048567Y0188033D01*
X0048567Y0188017D01*
X0048550Y0188000D01*
X0048517Y0188000D01*
X0048500Y0188017D01*
X0048500Y0188083D02*
X0048517Y0188100D01*
X0048550Y0188100D01*
X0048567Y0188083D01*
X0048592Y0188100D02*
X0048592Y0188000D01*
X0048659Y0188000D01*
X0048684Y0188000D02*
X0048751Y0188000D01*
X0048718Y0188000D02*
X0048718Y0188100D01*
X0048684Y0188067D01*
X0048659Y0188100D02*
X0048592Y0188100D01*
X0048592Y0188050D02*
X0048625Y0188050D01*
X0048776Y0188050D02*
X0048843Y0188050D01*
X0048826Y0188000D02*
X0048826Y0188100D01*
X0048776Y0188050D01*
X0098500Y0188017D02*
X0098517Y0188000D01*
X0098550Y0188000D01*
X0098567Y0188017D01*
X0098567Y0188033D01*
X0098550Y0188050D01*
X0098517Y0188050D01*
X0098500Y0188067D01*
X0098500Y0188083D01*
X0098517Y0188100D01*
X0098550Y0188100D01*
X0098567Y0188083D01*
X0098592Y0188100D02*
X0098592Y0188000D01*
X0098659Y0188000D01*
X0098684Y0188000D02*
X0098751Y0188000D01*
X0098718Y0188000D02*
X0098718Y0188100D01*
X0098684Y0188067D01*
X0098659Y0188100D02*
X0098592Y0188100D01*
X0098592Y0188050D02*
X0098625Y0188050D01*
X0098776Y0188050D02*
X0098843Y0188050D01*
X0098826Y0188000D02*
X0098826Y0188100D01*
X0098776Y0188050D01*
X0146000Y0188017D02*
X0146017Y0188000D01*
X0146050Y0188000D01*
X0146067Y0188017D01*
X0146067Y0188033D01*
X0146050Y0188050D01*
X0146017Y0188050D01*
X0146000Y0188067D01*
X0146000Y0188083D01*
X0146017Y0188100D01*
X0146050Y0188100D01*
X0146067Y0188083D01*
X0146092Y0188100D02*
X0146092Y0188000D01*
X0146159Y0188000D01*
X0146184Y0188000D02*
X0146251Y0188000D01*
X0146218Y0188000D02*
X0146218Y0188100D01*
X0146184Y0188067D01*
X0146159Y0188100D02*
X0146092Y0188100D01*
X0146092Y0188050D02*
X0146125Y0188050D01*
X0146276Y0188050D02*
X0146343Y0188050D01*
X0146326Y0188000D02*
X0146326Y0188100D01*
X0146276Y0188050D01*
X0378579Y0189000D02*
X0378581Y0189140D01*
X0378587Y0189280D01*
X0378597Y0189419D01*
X0378611Y0189558D01*
X0378629Y0189697D01*
X0378650Y0189835D01*
X0378676Y0189973D01*
X0378706Y0190110D01*
X0378739Y0190245D01*
X0378777Y0190380D01*
X0378818Y0190514D01*
X0378863Y0190647D01*
X0378911Y0190778D01*
X0378964Y0190907D01*
X0379020Y0191036D01*
X0379079Y0191162D01*
X0379143Y0191287D01*
X0379209Y0191410D01*
X0379280Y0191531D01*
X0379353Y0191650D01*
X0379430Y0191767D01*
X0379511Y0191881D01*
X0379594Y0191993D01*
X0379681Y0192103D01*
X0379771Y0192211D01*
X0379863Y0192315D01*
X0379959Y0192417D01*
X0380058Y0192517D01*
X0380159Y0192613D01*
X0380263Y0192707D01*
X0380370Y0192797D01*
X0380479Y0192884D01*
X0380591Y0192969D01*
X0380705Y0193050D01*
X0380821Y0193128D01*
X0380939Y0193202D01*
X0381060Y0193273D01*
X0381182Y0193341D01*
X0381307Y0193405D01*
X0381433Y0193466D01*
X0381560Y0193523D01*
X0381690Y0193576D01*
X0381821Y0193626D01*
X0381953Y0193671D01*
X0382086Y0193714D01*
X0382221Y0193752D01*
X0382356Y0193786D01*
X0382493Y0193817D01*
X0382630Y0193844D01*
X0382768Y0193866D01*
X0382907Y0193885D01*
X0383046Y0193900D01*
X0383185Y0193911D01*
X0383325Y0193918D01*
X0383465Y0193921D01*
X0383605Y0193920D01*
X0383745Y0193915D01*
X0383884Y0193906D01*
X0384024Y0193893D01*
X0384163Y0193876D01*
X0384301Y0193855D01*
X0384439Y0193831D01*
X0384576Y0193802D01*
X0384712Y0193770D01*
X0384847Y0193733D01*
X0384981Y0193693D01*
X0385114Y0193649D01*
X0385245Y0193601D01*
X0385375Y0193550D01*
X0385504Y0193495D01*
X0385631Y0193436D01*
X0385756Y0193373D01*
X0385879Y0193308D01*
X0386001Y0193238D01*
X0386120Y0193165D01*
X0386238Y0193089D01*
X0386353Y0193010D01*
X0386466Y0192927D01*
X0386576Y0192841D01*
X0386684Y0192752D01*
X0386789Y0192660D01*
X0386892Y0192565D01*
X0386992Y0192467D01*
X0387089Y0192367D01*
X0387183Y0192263D01*
X0387275Y0192157D01*
X0387363Y0192049D01*
X0387448Y0191938D01*
X0387530Y0191824D01*
X0387609Y0191708D01*
X0387684Y0191591D01*
X0387756Y0191471D01*
X0387824Y0191349D01*
X0387889Y0191225D01*
X0387951Y0191099D01*
X0388009Y0190972D01*
X0388063Y0190843D01*
X0388114Y0190712D01*
X0388160Y0190580D01*
X0388203Y0190447D01*
X0388243Y0190313D01*
X0388278Y0190178D01*
X0388310Y0190041D01*
X0388337Y0189904D01*
X0388361Y0189766D01*
X0388381Y0189628D01*
X0388397Y0189489D01*
X0388409Y0189349D01*
X0388417Y0189210D01*
X0388421Y0189070D01*
X0388421Y0188930D01*
X0388417Y0188790D01*
X0388409Y0188651D01*
X0388397Y0188511D01*
X0388381Y0188372D01*
X0388361Y0188234D01*
X0388337Y0188096D01*
X0388310Y0187959D01*
X0388278Y0187822D01*
X0388243Y0187687D01*
X0388203Y0187553D01*
X0388160Y0187420D01*
X0388114Y0187288D01*
X0388063Y0187157D01*
X0388009Y0187028D01*
X0387951Y0186901D01*
X0387889Y0186775D01*
X0387824Y0186651D01*
X0387756Y0186529D01*
X0387684Y0186409D01*
X0387609Y0186292D01*
X0387530Y0186176D01*
X0387448Y0186062D01*
X0387363Y0185951D01*
X0387275Y0185843D01*
X0387183Y0185737D01*
X0387089Y0185633D01*
X0386992Y0185533D01*
X0386892Y0185435D01*
X0386789Y0185340D01*
X0386684Y0185248D01*
X0386576Y0185159D01*
X0386466Y0185073D01*
X0386353Y0184990D01*
X0386238Y0184911D01*
X0386120Y0184835D01*
X0386001Y0184762D01*
X0385879Y0184692D01*
X0385756Y0184627D01*
X0385631Y0184564D01*
X0385504Y0184505D01*
X0385375Y0184450D01*
X0385245Y0184399D01*
X0385114Y0184351D01*
X0384981Y0184307D01*
X0384847Y0184267D01*
X0384712Y0184230D01*
X0384576Y0184198D01*
X0384439Y0184169D01*
X0384301Y0184145D01*
X0384163Y0184124D01*
X0384024Y0184107D01*
X0383884Y0184094D01*
X0383745Y0184085D01*
X0383605Y0184080D01*
X0383465Y0184079D01*
X0383325Y0184082D01*
X0383185Y0184089D01*
X0383046Y0184100D01*
X0382907Y0184115D01*
X0382768Y0184134D01*
X0382630Y0184156D01*
X0382493Y0184183D01*
X0382356Y0184214D01*
X0382221Y0184248D01*
X0382086Y0184286D01*
X0381953Y0184329D01*
X0381821Y0184374D01*
X0381690Y0184424D01*
X0381560Y0184477D01*
X0381433Y0184534D01*
X0381307Y0184595D01*
X0381182Y0184659D01*
X0381060Y0184727D01*
X0380939Y0184798D01*
X0380821Y0184872D01*
X0380705Y0184950D01*
X0380591Y0185031D01*
X0380479Y0185116D01*
X0380370Y0185203D01*
X0380263Y0185293D01*
X0380159Y0185387D01*
X0380058Y0185483D01*
X0379959Y0185583D01*
X0379863Y0185685D01*
X0379771Y0185789D01*
X0379681Y0185897D01*
X0379594Y0186007D01*
X0379511Y0186119D01*
X0379430Y0186233D01*
X0379353Y0186350D01*
X0379280Y0186469D01*
X0379209Y0186590D01*
X0379143Y0186713D01*
X0379079Y0186838D01*
X0379020Y0186964D01*
X0378964Y0187093D01*
X0378911Y0187222D01*
X0378863Y0187353D01*
X0378818Y0187486D01*
X0378777Y0187620D01*
X0378739Y0187755D01*
X0378706Y0187890D01*
X0378676Y0188027D01*
X0378650Y0188165D01*
X0378629Y0188303D01*
X0378611Y0188442D01*
X0378597Y0188581D01*
X0378587Y0188720D01*
X0378581Y0188860D01*
X0378579Y0189000D01*
X0378579Y0011500D02*
X0378581Y0011640D01*
X0378587Y0011780D01*
X0378597Y0011919D01*
X0378611Y0012058D01*
X0378629Y0012197D01*
X0378650Y0012335D01*
X0378676Y0012473D01*
X0378706Y0012610D01*
X0378739Y0012745D01*
X0378777Y0012880D01*
X0378818Y0013014D01*
X0378863Y0013147D01*
X0378911Y0013278D01*
X0378964Y0013407D01*
X0379020Y0013536D01*
X0379079Y0013662D01*
X0379143Y0013787D01*
X0379209Y0013910D01*
X0379280Y0014031D01*
X0379353Y0014150D01*
X0379430Y0014267D01*
X0379511Y0014381D01*
X0379594Y0014493D01*
X0379681Y0014603D01*
X0379771Y0014711D01*
X0379863Y0014815D01*
X0379959Y0014917D01*
X0380058Y0015017D01*
X0380159Y0015113D01*
X0380263Y0015207D01*
X0380370Y0015297D01*
X0380479Y0015384D01*
X0380591Y0015469D01*
X0380705Y0015550D01*
X0380821Y0015628D01*
X0380939Y0015702D01*
X0381060Y0015773D01*
X0381182Y0015841D01*
X0381307Y0015905D01*
X0381433Y0015966D01*
X0381560Y0016023D01*
X0381690Y0016076D01*
X0381821Y0016126D01*
X0381953Y0016171D01*
X0382086Y0016214D01*
X0382221Y0016252D01*
X0382356Y0016286D01*
X0382493Y0016317D01*
X0382630Y0016344D01*
X0382768Y0016366D01*
X0382907Y0016385D01*
X0383046Y0016400D01*
X0383185Y0016411D01*
X0383325Y0016418D01*
X0383465Y0016421D01*
X0383605Y0016420D01*
X0383745Y0016415D01*
X0383884Y0016406D01*
X0384024Y0016393D01*
X0384163Y0016376D01*
X0384301Y0016355D01*
X0384439Y0016331D01*
X0384576Y0016302D01*
X0384712Y0016270D01*
X0384847Y0016233D01*
X0384981Y0016193D01*
X0385114Y0016149D01*
X0385245Y0016101D01*
X0385375Y0016050D01*
X0385504Y0015995D01*
X0385631Y0015936D01*
X0385756Y0015873D01*
X0385879Y0015808D01*
X0386001Y0015738D01*
X0386120Y0015665D01*
X0386238Y0015589D01*
X0386353Y0015510D01*
X0386466Y0015427D01*
X0386576Y0015341D01*
X0386684Y0015252D01*
X0386789Y0015160D01*
X0386892Y0015065D01*
X0386992Y0014967D01*
X0387089Y0014867D01*
X0387183Y0014763D01*
X0387275Y0014657D01*
X0387363Y0014549D01*
X0387448Y0014438D01*
X0387530Y0014324D01*
X0387609Y0014208D01*
X0387684Y0014091D01*
X0387756Y0013971D01*
X0387824Y0013849D01*
X0387889Y0013725D01*
X0387951Y0013599D01*
X0388009Y0013472D01*
X0388063Y0013343D01*
X0388114Y0013212D01*
X0388160Y0013080D01*
X0388203Y0012947D01*
X0388243Y0012813D01*
X0388278Y0012678D01*
X0388310Y0012541D01*
X0388337Y0012404D01*
X0388361Y0012266D01*
X0388381Y0012128D01*
X0388397Y0011989D01*
X0388409Y0011849D01*
X0388417Y0011710D01*
X0388421Y0011570D01*
X0388421Y0011430D01*
X0388417Y0011290D01*
X0388409Y0011151D01*
X0388397Y0011011D01*
X0388381Y0010872D01*
X0388361Y0010734D01*
X0388337Y0010596D01*
X0388310Y0010459D01*
X0388278Y0010322D01*
X0388243Y0010187D01*
X0388203Y0010053D01*
X0388160Y0009920D01*
X0388114Y0009788D01*
X0388063Y0009657D01*
X0388009Y0009528D01*
X0387951Y0009401D01*
X0387889Y0009275D01*
X0387824Y0009151D01*
X0387756Y0009029D01*
X0387684Y0008909D01*
X0387609Y0008792D01*
X0387530Y0008676D01*
X0387448Y0008562D01*
X0387363Y0008451D01*
X0387275Y0008343D01*
X0387183Y0008237D01*
X0387089Y0008133D01*
X0386992Y0008033D01*
X0386892Y0007935D01*
X0386789Y0007840D01*
X0386684Y0007748D01*
X0386576Y0007659D01*
X0386466Y0007573D01*
X0386353Y0007490D01*
X0386238Y0007411D01*
X0386120Y0007335D01*
X0386001Y0007262D01*
X0385879Y0007192D01*
X0385756Y0007127D01*
X0385631Y0007064D01*
X0385504Y0007005D01*
X0385375Y0006950D01*
X0385245Y0006899D01*
X0385114Y0006851D01*
X0384981Y0006807D01*
X0384847Y0006767D01*
X0384712Y0006730D01*
X0384576Y0006698D01*
X0384439Y0006669D01*
X0384301Y0006645D01*
X0384163Y0006624D01*
X0384024Y0006607D01*
X0383884Y0006594D01*
X0383745Y0006585D01*
X0383605Y0006580D01*
X0383465Y0006579D01*
X0383325Y0006582D01*
X0383185Y0006589D01*
X0383046Y0006600D01*
X0382907Y0006615D01*
X0382768Y0006634D01*
X0382630Y0006656D01*
X0382493Y0006683D01*
X0382356Y0006714D01*
X0382221Y0006748D01*
X0382086Y0006786D01*
X0381953Y0006829D01*
X0381821Y0006874D01*
X0381690Y0006924D01*
X0381560Y0006977D01*
X0381433Y0007034D01*
X0381307Y0007095D01*
X0381182Y0007159D01*
X0381060Y0007227D01*
X0380939Y0007298D01*
X0380821Y0007372D01*
X0380705Y0007450D01*
X0380591Y0007531D01*
X0380479Y0007616D01*
X0380370Y0007703D01*
X0380263Y0007793D01*
X0380159Y0007887D01*
X0380058Y0007983D01*
X0379959Y0008083D01*
X0379863Y0008185D01*
X0379771Y0008289D01*
X0379681Y0008397D01*
X0379594Y0008507D01*
X0379511Y0008619D01*
X0379430Y0008733D01*
X0379353Y0008850D01*
X0379280Y0008969D01*
X0379209Y0009090D01*
X0379143Y0009213D01*
X0379079Y0009338D01*
X0379020Y0009464D01*
X0378964Y0009593D01*
X0378911Y0009722D01*
X0378863Y0009853D01*
X0378818Y0009986D01*
X0378777Y0010120D01*
X0378739Y0010255D01*
X0378706Y0010390D01*
X0378676Y0010527D01*
X0378650Y0010665D01*
X0378629Y0010803D01*
X0378611Y0010942D01*
X0378597Y0011081D01*
X0378587Y0011220D01*
X0378581Y0011360D01*
X0378579Y0011500D01*
D11*
X0351000Y0014000D02*
X0351003Y0014245D01*
X0351012Y0014491D01*
X0351027Y0014736D01*
X0351048Y0014980D01*
X0351075Y0015224D01*
X0351108Y0015467D01*
X0351147Y0015710D01*
X0351192Y0015951D01*
X0351243Y0016191D01*
X0351300Y0016430D01*
X0351362Y0016667D01*
X0351431Y0016903D01*
X0351505Y0017137D01*
X0351585Y0017369D01*
X0351670Y0017599D01*
X0351761Y0017827D01*
X0351858Y0018052D01*
X0351960Y0018276D01*
X0352068Y0018496D01*
X0352181Y0018714D01*
X0352299Y0018929D01*
X0352423Y0019141D01*
X0352551Y0019350D01*
X0352685Y0019556D01*
X0352824Y0019758D01*
X0352968Y0019957D01*
X0353117Y0020152D01*
X0353270Y0020344D01*
X0353428Y0020532D01*
X0353590Y0020716D01*
X0353758Y0020895D01*
X0353929Y0021071D01*
X0354105Y0021242D01*
X0354284Y0021410D01*
X0354468Y0021572D01*
X0354656Y0021730D01*
X0354848Y0021883D01*
X0355043Y0022032D01*
X0355242Y0022176D01*
X0355444Y0022315D01*
X0355650Y0022449D01*
X0355859Y0022577D01*
X0356071Y0022701D01*
X0356286Y0022819D01*
X0356504Y0022932D01*
X0356724Y0023040D01*
X0356948Y0023142D01*
X0357173Y0023239D01*
X0357401Y0023330D01*
X0357631Y0023415D01*
X0357863Y0023495D01*
X0358097Y0023569D01*
X0358333Y0023638D01*
X0358570Y0023700D01*
X0358809Y0023757D01*
X0359049Y0023808D01*
X0359290Y0023853D01*
X0359533Y0023892D01*
X0359776Y0023925D01*
X0360020Y0023952D01*
X0360264Y0023973D01*
X0360509Y0023988D01*
X0360755Y0023997D01*
X0361000Y0024000D01*
X0361245Y0023997D01*
X0361491Y0023988D01*
X0361736Y0023973D01*
X0361980Y0023952D01*
X0362224Y0023925D01*
X0362467Y0023892D01*
X0362710Y0023853D01*
X0362951Y0023808D01*
X0363191Y0023757D01*
X0363430Y0023700D01*
X0363667Y0023638D01*
X0363903Y0023569D01*
X0364137Y0023495D01*
X0364369Y0023415D01*
X0364599Y0023330D01*
X0364827Y0023239D01*
X0365052Y0023142D01*
X0365276Y0023040D01*
X0365496Y0022932D01*
X0365714Y0022819D01*
X0365929Y0022701D01*
X0366141Y0022577D01*
X0366350Y0022449D01*
X0366556Y0022315D01*
X0366758Y0022176D01*
X0366957Y0022032D01*
X0367152Y0021883D01*
X0367344Y0021730D01*
X0367532Y0021572D01*
X0367716Y0021410D01*
X0367895Y0021242D01*
X0368071Y0021071D01*
X0368242Y0020895D01*
X0368410Y0020716D01*
X0368572Y0020532D01*
X0368730Y0020344D01*
X0368883Y0020152D01*
X0369032Y0019957D01*
X0369176Y0019758D01*
X0369315Y0019556D01*
X0369449Y0019350D01*
X0369577Y0019141D01*
X0369701Y0018929D01*
X0369819Y0018714D01*
X0369932Y0018496D01*
X0370040Y0018276D01*
X0370142Y0018052D01*
X0370239Y0017827D01*
X0370330Y0017599D01*
X0370415Y0017369D01*
X0370495Y0017137D01*
X0370569Y0016903D01*
X0370638Y0016667D01*
X0370700Y0016430D01*
X0370757Y0016191D01*
X0370808Y0015951D01*
X0370853Y0015710D01*
X0370892Y0015467D01*
X0370925Y0015224D01*
X0370952Y0014980D01*
X0370973Y0014736D01*
X0370988Y0014491D01*
X0370997Y0014245D01*
X0371000Y0014000D01*
X0370997Y0013755D01*
X0370988Y0013509D01*
X0370973Y0013264D01*
X0370952Y0013020D01*
X0370925Y0012776D01*
X0370892Y0012533D01*
X0370853Y0012290D01*
X0370808Y0012049D01*
X0370757Y0011809D01*
X0370700Y0011570D01*
X0370638Y0011333D01*
X0370569Y0011097D01*
X0370495Y0010863D01*
X0370415Y0010631D01*
X0370330Y0010401D01*
X0370239Y0010173D01*
X0370142Y0009948D01*
X0370040Y0009724D01*
X0369932Y0009504D01*
X0369819Y0009286D01*
X0369701Y0009071D01*
X0369577Y0008859D01*
X0369449Y0008650D01*
X0369315Y0008444D01*
X0369176Y0008242D01*
X0369032Y0008043D01*
X0368883Y0007848D01*
X0368730Y0007656D01*
X0368572Y0007468D01*
X0368410Y0007284D01*
X0368242Y0007105D01*
X0368071Y0006929D01*
X0367895Y0006758D01*
X0367716Y0006590D01*
X0367532Y0006428D01*
X0367344Y0006270D01*
X0367152Y0006117D01*
X0366957Y0005968D01*
X0366758Y0005824D01*
X0366556Y0005685D01*
X0366350Y0005551D01*
X0366141Y0005423D01*
X0365929Y0005299D01*
X0365714Y0005181D01*
X0365496Y0005068D01*
X0365276Y0004960D01*
X0365052Y0004858D01*
X0364827Y0004761D01*
X0364599Y0004670D01*
X0364369Y0004585D01*
X0364137Y0004505D01*
X0363903Y0004431D01*
X0363667Y0004362D01*
X0363430Y0004300D01*
X0363191Y0004243D01*
X0362951Y0004192D01*
X0362710Y0004147D01*
X0362467Y0004108D01*
X0362224Y0004075D01*
X0361980Y0004048D01*
X0361736Y0004027D01*
X0361491Y0004012D01*
X0361245Y0004003D01*
X0361000Y0004000D01*
X0360755Y0004003D01*
X0360509Y0004012D01*
X0360264Y0004027D01*
X0360020Y0004048D01*
X0359776Y0004075D01*
X0359533Y0004108D01*
X0359290Y0004147D01*
X0359049Y0004192D01*
X0358809Y0004243D01*
X0358570Y0004300D01*
X0358333Y0004362D01*
X0358097Y0004431D01*
X0357863Y0004505D01*
X0357631Y0004585D01*
X0357401Y0004670D01*
X0357173Y0004761D01*
X0356948Y0004858D01*
X0356724Y0004960D01*
X0356504Y0005068D01*
X0356286Y0005181D01*
X0356071Y0005299D01*
X0355859Y0005423D01*
X0355650Y0005551D01*
X0355444Y0005685D01*
X0355242Y0005824D01*
X0355043Y0005968D01*
X0354848Y0006117D01*
X0354656Y0006270D01*
X0354468Y0006428D01*
X0354284Y0006590D01*
X0354105Y0006758D01*
X0353929Y0006929D01*
X0353758Y0007105D01*
X0353590Y0007284D01*
X0353428Y0007468D01*
X0353270Y0007656D01*
X0353117Y0007848D01*
X0352968Y0008043D01*
X0352824Y0008242D01*
X0352685Y0008444D01*
X0352551Y0008650D01*
X0352423Y0008859D01*
X0352299Y0009071D01*
X0352181Y0009286D01*
X0352068Y0009504D01*
X0351960Y0009724D01*
X0351858Y0009948D01*
X0351761Y0010173D01*
X0351670Y0010401D01*
X0351585Y0010631D01*
X0351505Y0010863D01*
X0351431Y0011097D01*
X0351362Y0011333D01*
X0351300Y0011570D01*
X0351243Y0011809D01*
X0351192Y0012049D01*
X0351147Y0012290D01*
X0351108Y0012533D01*
X0351075Y0012776D01*
X0351048Y0013020D01*
X0351027Y0013264D01*
X0351012Y0013509D01*
X0351003Y0013755D01*
X0351000Y0014000D01*
X0331000Y0023500D02*
X0321000Y0023500D01*
X0321000Y0039500D01*
X0331000Y0039500D01*
X0331000Y0023500D01*
X0326000Y0029000D02*
X0326000Y0031500D01*
X0328500Y0031500D01*
X0326000Y0031500D02*
X0323500Y0031500D01*
X0326000Y0031500D02*
X0323500Y0035500D01*
X0328500Y0035500D01*
X0326000Y0031500D01*
X0326000Y0037500D01*
X0316000Y0031000D02*
X0316000Y0047000D01*
X0306000Y0047000D01*
X0306000Y0031000D01*
X0316000Y0031000D01*
X0311000Y0033000D02*
X0311000Y0039000D01*
X0308500Y0039000D01*
X0311000Y0039000D02*
X0311000Y0041500D01*
X0311000Y0039000D02*
X0313500Y0039000D01*
X0311000Y0039000D02*
X0313500Y0035000D01*
X0308500Y0035000D01*
X0311000Y0039000D01*
X0300500Y0029000D02*
X0300000Y0029500D01*
X0300000Y0048500D01*
X0300500Y0049000D01*
X0300500Y0050500D01*
X0300498Y0050560D01*
X0300493Y0050621D01*
X0300484Y0050680D01*
X0300471Y0050739D01*
X0300455Y0050798D01*
X0300435Y0050855D01*
X0300412Y0050910D01*
X0300385Y0050965D01*
X0300356Y0051017D01*
X0300323Y0051068D01*
X0300287Y0051117D01*
X0300249Y0051163D01*
X0300207Y0051207D01*
X0300163Y0051249D01*
X0300117Y0051287D01*
X0300068Y0051323D01*
X0300017Y0051356D01*
X0299965Y0051385D01*
X0299910Y0051412D01*
X0299855Y0051435D01*
X0299798Y0051455D01*
X0299739Y0051471D01*
X0299680Y0051484D01*
X0299621Y0051493D01*
X0299560Y0051498D01*
X0299500Y0051500D01*
X0292500Y0051500D01*
X0292440Y0051498D01*
X0292379Y0051493D01*
X0292320Y0051484D01*
X0292261Y0051471D01*
X0292202Y0051455D01*
X0292145Y0051435D01*
X0292090Y0051412D01*
X0292035Y0051385D01*
X0291983Y0051356D01*
X0291932Y0051323D01*
X0291883Y0051287D01*
X0291837Y0051249D01*
X0291793Y0051207D01*
X0291751Y0051163D01*
X0291713Y0051117D01*
X0291677Y0051068D01*
X0291644Y0051017D01*
X0291615Y0050965D01*
X0291588Y0050910D01*
X0291565Y0050855D01*
X0291545Y0050798D01*
X0291529Y0050739D01*
X0291516Y0050680D01*
X0291507Y0050621D01*
X0291502Y0050560D01*
X0291500Y0050500D01*
X0291500Y0049000D01*
X0292000Y0048500D01*
X0292000Y0029500D01*
X0291500Y0029000D01*
X0291500Y0027500D01*
X0291502Y0027440D01*
X0291507Y0027379D01*
X0291516Y0027320D01*
X0291529Y0027261D01*
X0291545Y0027202D01*
X0291565Y0027145D01*
X0291588Y0027090D01*
X0291615Y0027035D01*
X0291644Y0026983D01*
X0291677Y0026932D01*
X0291713Y0026883D01*
X0291751Y0026837D01*
X0291793Y0026793D01*
X0291837Y0026751D01*
X0291883Y0026713D01*
X0291932Y0026677D01*
X0291983Y0026644D01*
X0292035Y0026615D01*
X0292090Y0026588D01*
X0292145Y0026565D01*
X0292202Y0026545D01*
X0292261Y0026529D01*
X0292320Y0026516D01*
X0292379Y0026507D01*
X0292440Y0026502D01*
X0292500Y0026500D01*
X0299500Y0026500D01*
X0299560Y0026502D01*
X0299621Y0026507D01*
X0299680Y0026516D01*
X0299739Y0026529D01*
X0299798Y0026545D01*
X0299855Y0026565D01*
X0299910Y0026588D01*
X0299965Y0026615D01*
X0300017Y0026644D01*
X0300068Y0026677D01*
X0300117Y0026713D01*
X0300163Y0026751D01*
X0300207Y0026793D01*
X0300249Y0026837D01*
X0300287Y0026883D01*
X0300323Y0026932D01*
X0300356Y0026983D01*
X0300385Y0027035D01*
X0300412Y0027090D01*
X0300435Y0027145D01*
X0300455Y0027202D01*
X0300471Y0027261D01*
X0300484Y0027320D01*
X0300493Y0027379D01*
X0300498Y0027440D01*
X0300500Y0027500D01*
X0300500Y0029000D01*
X0289000Y0028500D02*
X0289000Y0019000D01*
X0279000Y0019000D01*
X0273000Y0019000D02*
X0272000Y0019000D01*
X0272000Y0044000D01*
X0273000Y0044000D01*
X0279000Y0044000D02*
X0289000Y0044000D01*
X0289000Y0034500D01*
X0280000Y0037500D02*
X0280084Y0037418D01*
X0280172Y0037339D01*
X0280262Y0037262D01*
X0280354Y0037189D01*
X0280449Y0037119D01*
X0280547Y0037053D01*
X0280646Y0036989D01*
X0280747Y0036929D01*
X0280851Y0036872D01*
X0280956Y0036819D01*
X0281063Y0036769D01*
X0281171Y0036723D01*
X0281281Y0036681D01*
X0281393Y0036642D01*
X0281505Y0036607D01*
X0281619Y0036575D01*
X0281734Y0036548D01*
X0281849Y0036524D01*
X0281966Y0036505D01*
X0282082Y0036489D01*
X0282200Y0036477D01*
X0282317Y0036469D01*
X0282435Y0036465D01*
X0282553Y0036464D01*
X0282671Y0036468D01*
X0282789Y0036476D01*
X0282906Y0036487D01*
X0283023Y0036503D01*
X0283139Y0036522D01*
X0283255Y0036546D01*
X0283370Y0036573D01*
X0283483Y0036604D01*
X0283596Y0036638D01*
X0283708Y0036677D01*
X0283818Y0036719D01*
X0283927Y0036765D01*
X0284034Y0036814D01*
X0284139Y0036867D01*
X0284243Y0036923D01*
X0284344Y0036983D01*
X0284444Y0037046D01*
X0284541Y0037113D01*
X0284636Y0037182D01*
X0284729Y0037255D01*
X0284819Y0037331D01*
X0284907Y0037410D01*
X0284992Y0037491D01*
X0285074Y0037576D01*
X0285154Y0037663D01*
X0285230Y0037753D01*
X0285304Y0037845D01*
X0285374Y0037940D01*
X0285441Y0038037D01*
X0285505Y0038136D01*
X0285565Y0038237D01*
X0285622Y0038341D01*
X0285676Y0038446D01*
X0285726Y0038552D01*
X0285773Y0038661D01*
X0285815Y0038771D01*
X0285855Y0038882D01*
X0285890Y0038994D01*
X0285922Y0039108D01*
X0285949Y0039222D01*
X0285973Y0039338D01*
X0285994Y0039454D01*
X0286010Y0039571D01*
X0286022Y0039688D01*
X0286031Y0039806D01*
X0286035Y0039924D01*
X0286036Y0040042D01*
X0286032Y0040159D01*
X0286025Y0040277D01*
X0286014Y0040395D01*
X0285999Y0040512D01*
X0285980Y0040628D01*
X0285957Y0040744D01*
X0285930Y0040858D01*
X0285900Y0040972D01*
X0285865Y0041085D01*
X0285827Y0041197D01*
X0285786Y0041307D01*
X0285740Y0041416D01*
X0285691Y0041523D01*
X0285639Y0041629D01*
X0285583Y0041732D01*
X0285523Y0041834D01*
X0285460Y0041934D01*
X0285394Y0042032D01*
X0285325Y0042127D01*
X0285252Y0042220D01*
X0285177Y0042311D01*
X0285098Y0042399D01*
X0285017Y0042484D01*
X0284932Y0042566D01*
X0284845Y0042646D01*
X0284756Y0042723D01*
X0284664Y0042797D01*
X0284569Y0042867D01*
X0284473Y0042935D01*
X0284374Y0042999D01*
X0284273Y0043060D01*
X0284170Y0043117D01*
X0284065Y0043171D01*
X0283958Y0043221D01*
X0283850Y0043268D01*
X0283740Y0043311D01*
X0283629Y0043351D01*
X0283517Y0043387D01*
X0283403Y0043419D01*
X0283289Y0043447D01*
X0283173Y0043471D01*
X0283057Y0043492D01*
X0282941Y0043508D01*
X0282823Y0043521D01*
X0282706Y0043530D01*
X0282588Y0043535D01*
X0282470Y0043536D01*
X0282352Y0043533D01*
X0282234Y0043526D01*
X0282117Y0043515D01*
X0282000Y0043500D01*
X0282500Y0050000D02*
X0268000Y0050000D01*
X0267924Y0050002D01*
X0267848Y0050008D01*
X0267773Y0050017D01*
X0267698Y0050031D01*
X0267624Y0050048D01*
X0267551Y0050069D01*
X0267479Y0050093D01*
X0267408Y0050122D01*
X0267339Y0050153D01*
X0267272Y0050188D01*
X0267207Y0050227D01*
X0267143Y0050269D01*
X0267082Y0050314D01*
X0267023Y0050362D01*
X0266967Y0050413D01*
X0266913Y0050467D01*
X0266862Y0050523D01*
X0266814Y0050582D01*
X0266769Y0050643D01*
X0266727Y0050707D01*
X0266688Y0050772D01*
X0266653Y0050839D01*
X0266622Y0050908D01*
X0266593Y0050979D01*
X0266569Y0051051D01*
X0266548Y0051124D01*
X0266531Y0051198D01*
X0266517Y0051273D01*
X0266508Y0051348D01*
X0266502Y0051424D01*
X0266500Y0051500D01*
X0266500Y0066500D01*
X0266502Y0066576D01*
X0266508Y0066652D01*
X0266517Y0066727D01*
X0266531Y0066802D01*
X0266548Y0066876D01*
X0266569Y0066949D01*
X0266593Y0067021D01*
X0266622Y0067092D01*
X0266653Y0067161D01*
X0266688Y0067228D01*
X0266727Y0067293D01*
X0266769Y0067357D01*
X0266814Y0067418D01*
X0266862Y0067477D01*
X0266913Y0067533D01*
X0266967Y0067587D01*
X0267023Y0067638D01*
X0267082Y0067686D01*
X0267143Y0067731D01*
X0267207Y0067773D01*
X0267272Y0067812D01*
X0267339Y0067847D01*
X0267408Y0067878D01*
X0267479Y0067907D01*
X0267551Y0067931D01*
X0267624Y0067952D01*
X0267698Y0067969D01*
X0267773Y0067983D01*
X0267848Y0067992D01*
X0267924Y0067998D01*
X0268000Y0068000D01*
X0282500Y0068000D01*
X0285500Y0065000D01*
X0285500Y0053000D01*
X0282500Y0050000D01*
X0283000Y0052400D02*
X0283000Y0054900D01*
X0281700Y0053600D02*
X0284300Y0053600D01*
X0261000Y0047000D02*
X0251000Y0047000D01*
X0251000Y0031000D01*
X0261000Y0031000D01*
X0261000Y0047000D01*
X0256000Y0041500D02*
X0256000Y0039000D01*
X0253500Y0039000D01*
X0256000Y0039000D02*
X0258500Y0039000D01*
X0256000Y0039000D02*
X0258500Y0035000D01*
X0253500Y0035000D01*
X0256000Y0039000D01*
X0256000Y0033000D01*
X0243000Y0045500D02*
X0243000Y0007500D01*
X0242000Y0006500D01*
X0230500Y0006500D01*
X0205500Y0007500D02*
X0205500Y0015500D01*
X0205498Y0015560D01*
X0205493Y0015621D01*
X0205484Y0015680D01*
X0205471Y0015739D01*
X0205455Y0015798D01*
X0205435Y0015855D01*
X0205412Y0015910D01*
X0205385Y0015965D01*
X0205356Y0016017D01*
X0205323Y0016068D01*
X0205287Y0016117D01*
X0205249Y0016163D01*
X0205207Y0016207D01*
X0205163Y0016249D01*
X0205117Y0016287D01*
X0205068Y0016323D01*
X0205017Y0016356D01*
X0204965Y0016385D01*
X0204910Y0016412D01*
X0204855Y0016435D01*
X0204798Y0016455D01*
X0204739Y0016471D01*
X0204680Y0016484D01*
X0204621Y0016493D01*
X0204560Y0016498D01*
X0204500Y0016500D01*
X0187500Y0016500D01*
X0187440Y0016498D01*
X0187379Y0016493D01*
X0187320Y0016484D01*
X0187261Y0016471D01*
X0187202Y0016455D01*
X0187145Y0016435D01*
X0187090Y0016412D01*
X0187035Y0016385D01*
X0186983Y0016356D01*
X0186932Y0016323D01*
X0186883Y0016287D01*
X0186837Y0016249D01*
X0186793Y0016207D01*
X0186751Y0016163D01*
X0186713Y0016117D01*
X0186677Y0016068D01*
X0186644Y0016017D01*
X0186615Y0015965D01*
X0186588Y0015910D01*
X0186565Y0015855D01*
X0186545Y0015798D01*
X0186529Y0015739D01*
X0186516Y0015680D01*
X0186507Y0015621D01*
X0186502Y0015560D01*
X0186500Y0015500D01*
X0186500Y0007500D01*
X0186502Y0007440D01*
X0186507Y0007379D01*
X0186516Y0007320D01*
X0186529Y0007261D01*
X0186545Y0007202D01*
X0186565Y0007145D01*
X0186588Y0007090D01*
X0186615Y0007035D01*
X0186644Y0006983D01*
X0186677Y0006932D01*
X0186713Y0006883D01*
X0186751Y0006837D01*
X0186793Y0006793D01*
X0186837Y0006751D01*
X0186883Y0006713D01*
X0186932Y0006677D01*
X0186983Y0006644D01*
X0187035Y0006615D01*
X0187090Y0006588D01*
X0187145Y0006565D01*
X0187202Y0006545D01*
X0187261Y0006529D01*
X0187320Y0006516D01*
X0187379Y0006507D01*
X0187440Y0006502D01*
X0187500Y0006500D01*
X0204500Y0006500D01*
X0204560Y0006502D01*
X0204621Y0006507D01*
X0204680Y0006516D01*
X0204739Y0006529D01*
X0204798Y0006545D01*
X0204855Y0006565D01*
X0204910Y0006588D01*
X0204965Y0006615D01*
X0205017Y0006644D01*
X0205068Y0006677D01*
X0205117Y0006713D01*
X0205163Y0006751D01*
X0205207Y0006793D01*
X0205249Y0006837D01*
X0205287Y0006883D01*
X0205323Y0006932D01*
X0205356Y0006983D01*
X0205385Y0007035D01*
X0205412Y0007090D01*
X0205435Y0007145D01*
X0205455Y0007202D01*
X0205471Y0007261D01*
X0205484Y0007320D01*
X0205493Y0007379D01*
X0205498Y0007440D01*
X0205500Y0007500D01*
X0197500Y0011500D02*
X0197000Y0011500D01*
X0195000Y0011500D02*
X0194500Y0011500D01*
X0176000Y0022000D02*
X0176000Y0028000D01*
X0179000Y0025000D02*
X0173000Y0025000D01*
X0176000Y0043500D02*
X0176000Y0048000D01*
X0183500Y0048000D01*
X0183500Y0050500D01*
X0168500Y0050500D01*
X0168500Y0048000D01*
X0176000Y0048000D01*
X0143500Y0051500D02*
X0143510Y0052298D01*
X0143539Y0053095D01*
X0143588Y0053891D01*
X0143656Y0054686D01*
X0143744Y0055478D01*
X0143852Y0056269D01*
X0143978Y0057056D01*
X0144124Y0057840D01*
X0144290Y0058621D01*
X0144474Y0059397D01*
X0144677Y0060168D01*
X0144899Y0060934D01*
X0145140Y0061695D01*
X0145400Y0062449D01*
X0145678Y0063197D01*
X0145974Y0063937D01*
X0146288Y0064670D01*
X0146620Y0065396D01*
X0146970Y0066112D01*
X0147338Y0066820D01*
X0147722Y0067519D01*
X0148124Y0068208D01*
X0148542Y0068887D01*
X0148977Y0069556D01*
X0149428Y0070214D01*
X0149896Y0070860D01*
X0150379Y0071495D01*
X0150877Y0072118D01*
X0151391Y0072728D01*
X0151919Y0073326D01*
X0152462Y0073910D01*
X0153019Y0074481D01*
X0153590Y0075038D01*
X0154174Y0075581D01*
X0154772Y0076109D01*
X0155382Y0076623D01*
X0156005Y0077121D01*
X0156640Y0077604D01*
X0157286Y0078072D01*
X0157944Y0078523D01*
X0158613Y0078958D01*
X0159292Y0079376D01*
X0159981Y0079778D01*
X0160680Y0080162D01*
X0161388Y0080530D01*
X0162104Y0080880D01*
X0162830Y0081212D01*
X0163563Y0081526D01*
X0164303Y0081822D01*
X0165051Y0082100D01*
X0165805Y0082360D01*
X0166566Y0082601D01*
X0167332Y0082823D01*
X0168103Y0083026D01*
X0168879Y0083210D01*
X0169660Y0083376D01*
X0170444Y0083522D01*
X0171231Y0083648D01*
X0172022Y0083756D01*
X0172814Y0083844D01*
X0173609Y0083912D01*
X0174405Y0083961D01*
X0175202Y0083990D01*
X0176000Y0084000D01*
X0176798Y0083990D01*
X0177595Y0083961D01*
X0178391Y0083912D01*
X0179186Y0083844D01*
X0179978Y0083756D01*
X0180769Y0083648D01*
X0181556Y0083522D01*
X0182340Y0083376D01*
X0183121Y0083210D01*
X0183897Y0083026D01*
X0184668Y0082823D01*
X0185434Y0082601D01*
X0186195Y0082360D01*
X0186949Y0082100D01*
X0187697Y0081822D01*
X0188437Y0081526D01*
X0189170Y0081212D01*
X0189896Y0080880D01*
X0190612Y0080530D01*
X0191320Y0080162D01*
X0192019Y0079778D01*
X0192708Y0079376D01*
X0193387Y0078958D01*
X0194056Y0078523D01*
X0194714Y0078072D01*
X0195360Y0077604D01*
X0195995Y0077121D01*
X0196618Y0076623D01*
X0197228Y0076109D01*
X0197826Y0075581D01*
X0198410Y0075038D01*
X0198981Y0074481D01*
X0199538Y0073910D01*
X0200081Y0073326D01*
X0200609Y0072728D01*
X0201123Y0072118D01*
X0201621Y0071495D01*
X0202104Y0070860D01*
X0202572Y0070214D01*
X0203023Y0069556D01*
X0203458Y0068887D01*
X0203876Y0068208D01*
X0204278Y0067519D01*
X0204662Y0066820D01*
X0205030Y0066112D01*
X0205380Y0065396D01*
X0205712Y0064670D01*
X0206026Y0063937D01*
X0206322Y0063197D01*
X0206600Y0062449D01*
X0206860Y0061695D01*
X0207101Y0060934D01*
X0207323Y0060168D01*
X0207526Y0059397D01*
X0207710Y0058621D01*
X0207876Y0057840D01*
X0208022Y0057056D01*
X0208148Y0056269D01*
X0208256Y0055478D01*
X0208344Y0054686D01*
X0208412Y0053891D01*
X0208461Y0053095D01*
X0208490Y0052298D01*
X0208500Y0051500D01*
X0208490Y0050702D01*
X0208461Y0049905D01*
X0208412Y0049109D01*
X0208344Y0048314D01*
X0208256Y0047522D01*
X0208148Y0046731D01*
X0208022Y0045944D01*
X0207876Y0045160D01*
X0207710Y0044379D01*
X0207526Y0043603D01*
X0207323Y0042832D01*
X0207101Y0042066D01*
X0206860Y0041305D01*
X0206600Y0040551D01*
X0206322Y0039803D01*
X0206026Y0039063D01*
X0205712Y0038330D01*
X0205380Y0037604D01*
X0205030Y0036888D01*
X0204662Y0036180D01*
X0204278Y0035481D01*
X0203876Y0034792D01*
X0203458Y0034113D01*
X0203023Y0033444D01*
X0202572Y0032786D01*
X0202104Y0032140D01*
X0201621Y0031505D01*
X0201123Y0030882D01*
X0200609Y0030272D01*
X0200081Y0029674D01*
X0199538Y0029090D01*
X0198981Y0028519D01*
X0198410Y0027962D01*
X0197826Y0027419D01*
X0197228Y0026891D01*
X0196618Y0026377D01*
X0195995Y0025879D01*
X0195360Y0025396D01*
X0194714Y0024928D01*
X0194056Y0024477D01*
X0193387Y0024042D01*
X0192708Y0023624D01*
X0192019Y0023222D01*
X0191320Y0022838D01*
X0190612Y0022470D01*
X0189896Y0022120D01*
X0189170Y0021788D01*
X0188437Y0021474D01*
X0187697Y0021178D01*
X0186949Y0020900D01*
X0186195Y0020640D01*
X0185434Y0020399D01*
X0184668Y0020177D01*
X0183897Y0019974D01*
X0183121Y0019790D01*
X0182340Y0019624D01*
X0181556Y0019478D01*
X0180769Y0019352D01*
X0179978Y0019244D01*
X0179186Y0019156D01*
X0178391Y0019088D01*
X0177595Y0019039D01*
X0176798Y0019010D01*
X0176000Y0019000D01*
X0175202Y0019010D01*
X0174405Y0019039D01*
X0173609Y0019088D01*
X0172814Y0019156D01*
X0172022Y0019244D01*
X0171231Y0019352D01*
X0170444Y0019478D01*
X0169660Y0019624D01*
X0168879Y0019790D01*
X0168103Y0019974D01*
X0167332Y0020177D01*
X0166566Y0020399D01*
X0165805Y0020640D01*
X0165051Y0020900D01*
X0164303Y0021178D01*
X0163563Y0021474D01*
X0162830Y0021788D01*
X0162104Y0022120D01*
X0161388Y0022470D01*
X0160680Y0022838D01*
X0159981Y0023222D01*
X0159292Y0023624D01*
X0158613Y0024042D01*
X0157944Y0024477D01*
X0157286Y0024928D01*
X0156640Y0025396D01*
X0156005Y0025879D01*
X0155382Y0026377D01*
X0154772Y0026891D01*
X0154174Y0027419D01*
X0153590Y0027962D01*
X0153019Y0028519D01*
X0152462Y0029090D01*
X0151919Y0029674D01*
X0151391Y0030272D01*
X0150877Y0030882D01*
X0150379Y0031505D01*
X0149896Y0032140D01*
X0149428Y0032786D01*
X0148977Y0033444D01*
X0148542Y0034113D01*
X0148124Y0034792D01*
X0147722Y0035481D01*
X0147338Y0036180D01*
X0146970Y0036888D01*
X0146620Y0037604D01*
X0146288Y0038330D01*
X0145974Y0039063D01*
X0145678Y0039803D01*
X0145400Y0040551D01*
X0145140Y0041305D01*
X0144899Y0042066D01*
X0144677Y0042832D01*
X0144474Y0043603D01*
X0144290Y0044379D01*
X0144124Y0045160D01*
X0143978Y0045944D01*
X0143852Y0046731D01*
X0143744Y0047522D01*
X0143656Y0048314D01*
X0143588Y0049109D01*
X0143539Y0049905D01*
X0143510Y0050702D01*
X0143500Y0051500D01*
X0176000Y0054000D02*
X0176000Y0059500D01*
X0230500Y0046500D02*
X0242000Y0046500D01*
X0243000Y0045500D01*
X0270500Y0075000D02*
X0285000Y0075000D01*
X0288000Y0078000D01*
X0288000Y0090000D01*
X0285000Y0093000D01*
X0270500Y0093000D01*
X0270424Y0092998D01*
X0270348Y0092992D01*
X0270273Y0092983D01*
X0270198Y0092969D01*
X0270124Y0092952D01*
X0270051Y0092931D01*
X0269979Y0092907D01*
X0269908Y0092878D01*
X0269839Y0092847D01*
X0269772Y0092812D01*
X0269707Y0092773D01*
X0269643Y0092731D01*
X0269582Y0092686D01*
X0269523Y0092638D01*
X0269467Y0092587D01*
X0269413Y0092533D01*
X0269362Y0092477D01*
X0269314Y0092418D01*
X0269269Y0092357D01*
X0269227Y0092293D01*
X0269188Y0092228D01*
X0269153Y0092161D01*
X0269122Y0092092D01*
X0269093Y0092021D01*
X0269069Y0091949D01*
X0269048Y0091876D01*
X0269031Y0091802D01*
X0269017Y0091727D01*
X0269008Y0091652D01*
X0269002Y0091576D01*
X0269000Y0091500D01*
X0269000Y0076500D01*
X0269002Y0076424D01*
X0269008Y0076348D01*
X0269017Y0076273D01*
X0269031Y0076198D01*
X0269048Y0076124D01*
X0269069Y0076051D01*
X0269093Y0075979D01*
X0269122Y0075908D01*
X0269153Y0075839D01*
X0269188Y0075772D01*
X0269227Y0075707D01*
X0269269Y0075643D01*
X0269314Y0075582D01*
X0269362Y0075523D01*
X0269413Y0075467D01*
X0269467Y0075413D01*
X0269523Y0075362D01*
X0269582Y0075314D01*
X0269643Y0075269D01*
X0269707Y0075227D01*
X0269772Y0075188D01*
X0269839Y0075153D01*
X0269908Y0075122D01*
X0269979Y0075093D01*
X0270051Y0075069D01*
X0270124Y0075048D01*
X0270198Y0075031D01*
X0270273Y0075017D01*
X0270348Y0075008D01*
X0270424Y0075002D01*
X0270500Y0075000D01*
X0284200Y0078600D02*
X0286800Y0078600D01*
X0285500Y0077400D02*
X0285500Y0079900D01*
X0292500Y0091500D02*
X0299500Y0091500D01*
X0299560Y0091502D01*
X0299621Y0091507D01*
X0299680Y0091516D01*
X0299739Y0091529D01*
X0299798Y0091545D01*
X0299855Y0091565D01*
X0299910Y0091588D01*
X0299965Y0091615D01*
X0300017Y0091644D01*
X0300068Y0091677D01*
X0300117Y0091713D01*
X0300163Y0091751D01*
X0300207Y0091793D01*
X0300249Y0091837D01*
X0300287Y0091883D01*
X0300323Y0091932D01*
X0300356Y0091983D01*
X0300385Y0092035D01*
X0300412Y0092090D01*
X0300435Y0092145D01*
X0300455Y0092202D01*
X0300471Y0092261D01*
X0300484Y0092320D01*
X0300493Y0092379D01*
X0300498Y0092440D01*
X0300500Y0092500D01*
X0300500Y0094000D01*
X0300000Y0094500D01*
X0300000Y0113500D01*
X0300500Y0114000D01*
X0300500Y0115500D01*
X0300498Y0115560D01*
X0300493Y0115621D01*
X0300484Y0115680D01*
X0300471Y0115739D01*
X0300455Y0115798D01*
X0300435Y0115855D01*
X0300412Y0115910D01*
X0300385Y0115965D01*
X0300356Y0116017D01*
X0300323Y0116068D01*
X0300287Y0116117D01*
X0300249Y0116163D01*
X0300207Y0116207D01*
X0300163Y0116249D01*
X0300117Y0116287D01*
X0300068Y0116323D01*
X0300017Y0116356D01*
X0299965Y0116385D01*
X0299910Y0116412D01*
X0299855Y0116435D01*
X0299798Y0116455D01*
X0299739Y0116471D01*
X0299680Y0116484D01*
X0299621Y0116493D01*
X0299560Y0116498D01*
X0299500Y0116500D01*
X0292500Y0116500D01*
X0292440Y0116498D01*
X0292379Y0116493D01*
X0292320Y0116484D01*
X0292261Y0116471D01*
X0292202Y0116455D01*
X0292145Y0116435D01*
X0292090Y0116412D01*
X0292035Y0116385D01*
X0291983Y0116356D01*
X0291932Y0116323D01*
X0291883Y0116287D01*
X0291837Y0116249D01*
X0291793Y0116207D01*
X0291751Y0116163D01*
X0291713Y0116117D01*
X0291677Y0116068D01*
X0291644Y0116017D01*
X0291615Y0115965D01*
X0291588Y0115910D01*
X0291565Y0115855D01*
X0291545Y0115798D01*
X0291529Y0115739D01*
X0291516Y0115680D01*
X0291507Y0115621D01*
X0291502Y0115560D01*
X0291500Y0115500D01*
X0291500Y0114000D01*
X0292000Y0113500D01*
X0292000Y0094500D01*
X0291500Y0094000D01*
X0291500Y0092500D01*
X0291502Y0092440D01*
X0291507Y0092379D01*
X0291516Y0092320D01*
X0291529Y0092261D01*
X0291545Y0092202D01*
X0291565Y0092145D01*
X0291588Y0092090D01*
X0291615Y0092035D01*
X0291644Y0091983D01*
X0291677Y0091932D01*
X0291713Y0091883D01*
X0291751Y0091837D01*
X0291793Y0091793D01*
X0291837Y0091751D01*
X0291883Y0091713D01*
X0291932Y0091677D01*
X0291983Y0091644D01*
X0292035Y0091615D01*
X0292090Y0091588D01*
X0292145Y0091565D01*
X0292202Y0091545D01*
X0292261Y0091529D01*
X0292320Y0091516D01*
X0292379Y0091507D01*
X0292440Y0091502D01*
X0292500Y0091500D01*
X0306000Y0096000D02*
X0316000Y0096000D01*
X0316000Y0112000D01*
X0306000Y0112000D01*
X0306000Y0096000D01*
X0311000Y0101500D02*
X0311000Y0104000D01*
X0313500Y0104000D01*
X0311000Y0104000D02*
X0308500Y0104000D01*
X0311000Y0104000D02*
X0308500Y0108000D01*
X0313500Y0108000D01*
X0311000Y0104000D01*
X0311000Y0110000D01*
X0321000Y0102000D02*
X0331000Y0102000D01*
X0331000Y0086000D01*
X0321000Y0086000D01*
X0321000Y0102000D01*
X0326000Y0096500D02*
X0326000Y0094000D01*
X0323500Y0094000D01*
X0326000Y0094000D02*
X0328500Y0094000D01*
X0326000Y0094000D02*
X0328500Y0090000D01*
X0323500Y0090000D01*
X0326000Y0094000D01*
X0326000Y0088000D01*
X0337500Y0096500D02*
X0344500Y0096500D01*
X0344560Y0096502D01*
X0344621Y0096507D01*
X0344680Y0096516D01*
X0344739Y0096529D01*
X0344798Y0096545D01*
X0344855Y0096565D01*
X0344910Y0096588D01*
X0344965Y0096615D01*
X0345017Y0096644D01*
X0345068Y0096677D01*
X0345117Y0096713D01*
X0345163Y0096751D01*
X0345207Y0096793D01*
X0345249Y0096837D01*
X0345287Y0096883D01*
X0345323Y0096932D01*
X0345356Y0096983D01*
X0345385Y0097035D01*
X0345412Y0097090D01*
X0345435Y0097145D01*
X0345455Y0097202D01*
X0345471Y0097261D01*
X0345484Y0097320D01*
X0345493Y0097379D01*
X0345498Y0097440D01*
X0345500Y0097500D01*
X0345500Y0099000D01*
X0345000Y0099500D01*
X0345000Y0118500D01*
X0345500Y0119000D01*
X0345500Y0120500D01*
X0345498Y0120560D01*
X0345493Y0120621D01*
X0345484Y0120680D01*
X0345471Y0120739D01*
X0345455Y0120798D01*
X0345435Y0120855D01*
X0345412Y0120910D01*
X0345385Y0120965D01*
X0345356Y0121017D01*
X0345323Y0121068D01*
X0345287Y0121117D01*
X0345249Y0121163D01*
X0345207Y0121207D01*
X0345163Y0121249D01*
X0345117Y0121287D01*
X0345068Y0121323D01*
X0345017Y0121356D01*
X0344965Y0121385D01*
X0344910Y0121412D01*
X0344855Y0121435D01*
X0344798Y0121455D01*
X0344739Y0121471D01*
X0344680Y0121484D01*
X0344621Y0121493D01*
X0344560Y0121498D01*
X0344500Y0121500D01*
X0337500Y0121500D01*
X0337440Y0121498D01*
X0337379Y0121493D01*
X0337320Y0121484D01*
X0337261Y0121471D01*
X0337202Y0121455D01*
X0337145Y0121435D01*
X0337090Y0121412D01*
X0337035Y0121385D01*
X0336983Y0121356D01*
X0336932Y0121323D01*
X0336883Y0121287D01*
X0336837Y0121249D01*
X0336793Y0121207D01*
X0336751Y0121163D01*
X0336713Y0121117D01*
X0336677Y0121068D01*
X0336644Y0121017D01*
X0336615Y0120965D01*
X0336588Y0120910D01*
X0336565Y0120855D01*
X0336545Y0120798D01*
X0336529Y0120739D01*
X0336516Y0120680D01*
X0336507Y0120621D01*
X0336502Y0120560D01*
X0336500Y0120500D01*
X0336500Y0119000D01*
X0337000Y0118500D01*
X0337000Y0099500D01*
X0336500Y0099000D01*
X0336500Y0097500D01*
X0336502Y0097440D01*
X0336507Y0097379D01*
X0336516Y0097320D01*
X0336529Y0097261D01*
X0336545Y0097202D01*
X0336565Y0097145D01*
X0336588Y0097090D01*
X0336615Y0097035D01*
X0336644Y0096983D01*
X0336677Y0096932D01*
X0336713Y0096883D01*
X0336751Y0096837D01*
X0336793Y0096793D01*
X0336837Y0096751D01*
X0336883Y0096713D01*
X0336932Y0096677D01*
X0336983Y0096644D01*
X0337035Y0096615D01*
X0337090Y0096588D01*
X0337145Y0096565D01*
X0337202Y0096545D01*
X0337261Y0096529D01*
X0337320Y0096516D01*
X0337379Y0096507D01*
X0337440Y0096502D01*
X0337500Y0096500D01*
X0361000Y0096500D02*
X0361000Y0101500D01*
X0363500Y0104000D01*
X0378500Y0104000D01*
X0381000Y0101500D01*
X0381000Y0096500D01*
X0378500Y0094000D01*
X0363500Y0094000D01*
X0361000Y0091500D01*
X0363500Y0094000D02*
X0361000Y0096500D01*
X0363500Y0104000D02*
X0361000Y0106500D01*
X0361000Y0111500D01*
X0363500Y0114000D01*
X0378500Y0114000D01*
X0381000Y0111500D01*
X0381000Y0106500D01*
X0378500Y0104000D01*
X0378500Y0094000D02*
X0381000Y0091500D01*
X0381000Y0086500D01*
X0378500Y0084000D01*
X0363500Y0084000D01*
X0361000Y0081500D01*
X0361000Y0076500D01*
X0363500Y0074000D01*
X0378500Y0074000D01*
X0381000Y0071500D01*
X0381000Y0066500D01*
X0378500Y0064000D01*
X0363500Y0064000D01*
X0361000Y0061500D01*
X0361000Y0056500D01*
X0363500Y0054000D01*
X0378500Y0054000D01*
X0381000Y0051500D01*
X0381000Y0046500D01*
X0378500Y0044000D01*
X0363500Y0044000D01*
X0361000Y0046500D01*
X0361000Y0051500D01*
X0363500Y0054000D01*
X0378500Y0054000D02*
X0381000Y0056500D01*
X0381000Y0061500D01*
X0378500Y0064000D01*
X0363500Y0064000D02*
X0361000Y0066500D01*
X0361000Y0071500D01*
X0363500Y0074000D01*
X0378500Y0074000D02*
X0381000Y0076500D01*
X0381000Y0081500D01*
X0378500Y0084000D01*
X0363500Y0084000D02*
X0361000Y0086500D01*
X0363500Y0114000D02*
X0361000Y0116500D01*
X0361000Y0121500D01*
X0363500Y0124000D01*
X0378500Y0124000D02*
X0381000Y0121500D01*
X0381000Y0116500D01*
X0378500Y0114000D01*
X0331000Y0153500D02*
X0321000Y0153500D01*
X0321000Y0169500D01*
X0331000Y0169500D01*
X0331000Y0153500D01*
X0328500Y0157500D02*
X0323500Y0157500D01*
X0326000Y0161500D01*
X0323500Y0161500D01*
X0326000Y0161500D02*
X0328500Y0161500D01*
X0326000Y0161500D02*
X0326000Y0164000D01*
X0326000Y0161500D02*
X0328500Y0157500D01*
X0326000Y0155500D02*
X0326000Y0161500D01*
X0316000Y0158500D02*
X0316000Y0174500D01*
X0306000Y0174500D01*
X0306000Y0158500D01*
X0316000Y0158500D01*
X0311000Y0160500D02*
X0311000Y0166500D01*
X0308500Y0166500D01*
X0311000Y0166500D02*
X0311000Y0169000D01*
X0311000Y0166500D02*
X0313500Y0166500D01*
X0311000Y0166500D02*
X0313500Y0162500D01*
X0308500Y0162500D01*
X0311000Y0166500D01*
X0300500Y0156500D02*
X0300000Y0157000D01*
X0300000Y0176000D01*
X0300500Y0176500D01*
X0300500Y0178000D01*
X0300498Y0178060D01*
X0300493Y0178121D01*
X0300484Y0178180D01*
X0300471Y0178239D01*
X0300455Y0178298D01*
X0300435Y0178355D01*
X0300412Y0178410D01*
X0300385Y0178465D01*
X0300356Y0178517D01*
X0300323Y0178568D01*
X0300287Y0178617D01*
X0300249Y0178663D01*
X0300207Y0178707D01*
X0300163Y0178749D01*
X0300117Y0178787D01*
X0300068Y0178823D01*
X0300017Y0178856D01*
X0299965Y0178885D01*
X0299910Y0178912D01*
X0299855Y0178935D01*
X0299798Y0178955D01*
X0299739Y0178971D01*
X0299680Y0178984D01*
X0299621Y0178993D01*
X0299560Y0178998D01*
X0299500Y0179000D01*
X0292500Y0179000D01*
X0292440Y0178998D01*
X0292379Y0178993D01*
X0292320Y0178984D01*
X0292261Y0178971D01*
X0292202Y0178955D01*
X0292145Y0178935D01*
X0292090Y0178912D01*
X0292035Y0178885D01*
X0291983Y0178856D01*
X0291932Y0178823D01*
X0291883Y0178787D01*
X0291837Y0178749D01*
X0291793Y0178707D01*
X0291751Y0178663D01*
X0291713Y0178617D01*
X0291677Y0178568D01*
X0291644Y0178517D01*
X0291615Y0178465D01*
X0291588Y0178410D01*
X0291565Y0178355D01*
X0291545Y0178298D01*
X0291529Y0178239D01*
X0291516Y0178180D01*
X0291507Y0178121D01*
X0291502Y0178060D01*
X0291500Y0178000D01*
X0291500Y0176500D01*
X0292000Y0176000D01*
X0292000Y0157000D01*
X0291500Y0156500D01*
X0291500Y0155000D01*
X0291502Y0154940D01*
X0291507Y0154879D01*
X0291516Y0154820D01*
X0291529Y0154761D01*
X0291545Y0154702D01*
X0291565Y0154645D01*
X0291588Y0154590D01*
X0291615Y0154535D01*
X0291644Y0154483D01*
X0291677Y0154432D01*
X0291713Y0154383D01*
X0291751Y0154337D01*
X0291793Y0154293D01*
X0291837Y0154251D01*
X0291883Y0154213D01*
X0291932Y0154177D01*
X0291983Y0154144D01*
X0292035Y0154115D01*
X0292090Y0154088D01*
X0292145Y0154065D01*
X0292202Y0154045D01*
X0292261Y0154029D01*
X0292320Y0154016D01*
X0292379Y0154007D01*
X0292440Y0154002D01*
X0292500Y0154000D01*
X0299500Y0154000D01*
X0299560Y0154002D01*
X0299621Y0154007D01*
X0299680Y0154016D01*
X0299739Y0154029D01*
X0299798Y0154045D01*
X0299855Y0154065D01*
X0299910Y0154088D01*
X0299965Y0154115D01*
X0300017Y0154144D01*
X0300068Y0154177D01*
X0300117Y0154213D01*
X0300163Y0154251D01*
X0300207Y0154293D01*
X0300249Y0154337D01*
X0300287Y0154383D01*
X0300323Y0154432D01*
X0300356Y0154483D01*
X0300385Y0154535D01*
X0300412Y0154590D01*
X0300435Y0154645D01*
X0300455Y0154702D01*
X0300471Y0154761D01*
X0300484Y0154820D01*
X0300493Y0154879D01*
X0300498Y0154940D01*
X0300500Y0155000D01*
X0300500Y0156500D01*
X0283000Y0154000D02*
X0283000Y0139000D01*
X0282998Y0138924D01*
X0282992Y0138848D01*
X0282983Y0138773D01*
X0282969Y0138698D01*
X0282952Y0138624D01*
X0282931Y0138551D01*
X0282907Y0138479D01*
X0282878Y0138408D01*
X0282847Y0138339D01*
X0282812Y0138272D01*
X0282773Y0138207D01*
X0282731Y0138143D01*
X0282686Y0138082D01*
X0282638Y0138023D01*
X0282587Y0137967D01*
X0282533Y0137913D01*
X0282477Y0137862D01*
X0282418Y0137814D01*
X0282357Y0137769D01*
X0282293Y0137727D01*
X0282228Y0137688D01*
X0282161Y0137653D01*
X0282092Y0137622D01*
X0282021Y0137593D01*
X0281949Y0137569D01*
X0281876Y0137548D01*
X0281802Y0137531D01*
X0281727Y0137517D01*
X0281652Y0137508D01*
X0281576Y0137502D01*
X0281500Y0137500D01*
X0267000Y0137500D01*
X0264000Y0140500D01*
X0264000Y0152500D01*
X0267000Y0155500D01*
X0281500Y0155500D01*
X0281576Y0155498D01*
X0281652Y0155492D01*
X0281727Y0155483D01*
X0281802Y0155469D01*
X0281876Y0155452D01*
X0281949Y0155431D01*
X0282021Y0155407D01*
X0282092Y0155378D01*
X0282161Y0155347D01*
X0282228Y0155312D01*
X0282293Y0155273D01*
X0282357Y0155231D01*
X0282418Y0155186D01*
X0282477Y0155138D01*
X0282533Y0155087D01*
X0282587Y0155033D01*
X0282638Y0154977D01*
X0282686Y0154918D01*
X0282731Y0154857D01*
X0282773Y0154793D01*
X0282812Y0154728D01*
X0282847Y0154661D01*
X0282878Y0154592D01*
X0282907Y0154521D01*
X0282931Y0154449D01*
X0282952Y0154376D01*
X0282969Y0154302D01*
X0282983Y0154227D01*
X0282992Y0154152D01*
X0282998Y0154076D01*
X0283000Y0154000D01*
X0282500Y0159000D02*
X0281500Y0159000D01*
X0282500Y0159000D02*
X0282500Y0184000D01*
X0281500Y0184000D01*
X0275500Y0184000D02*
X0265500Y0184000D01*
X0265500Y0174500D01*
X0261000Y0174500D02*
X0251000Y0174500D01*
X0251000Y0158500D01*
X0261000Y0158500D01*
X0261000Y0174500D01*
X0256000Y0169000D02*
X0256000Y0166500D01*
X0253500Y0166500D01*
X0256000Y0166500D02*
X0258500Y0166500D01*
X0256000Y0166500D02*
X0258500Y0162500D01*
X0253500Y0162500D01*
X0256000Y0166500D01*
X0256000Y0160500D01*
X0265500Y0159000D02*
X0275500Y0159000D01*
X0272500Y0159500D02*
X0272383Y0159485D01*
X0272266Y0159474D01*
X0272148Y0159467D01*
X0272030Y0159464D01*
X0271912Y0159465D01*
X0271794Y0159470D01*
X0271677Y0159479D01*
X0271559Y0159492D01*
X0271443Y0159508D01*
X0271327Y0159529D01*
X0271211Y0159553D01*
X0271097Y0159581D01*
X0270983Y0159613D01*
X0270871Y0159649D01*
X0270760Y0159689D01*
X0270650Y0159732D01*
X0270542Y0159779D01*
X0270435Y0159829D01*
X0270330Y0159883D01*
X0270227Y0159940D01*
X0270126Y0160001D01*
X0270027Y0160065D01*
X0269931Y0160133D01*
X0269836Y0160203D01*
X0269744Y0160277D01*
X0269655Y0160354D01*
X0269568Y0160434D01*
X0269483Y0160516D01*
X0269402Y0160601D01*
X0269323Y0160689D01*
X0269248Y0160780D01*
X0269175Y0160873D01*
X0269106Y0160968D01*
X0269040Y0161066D01*
X0268977Y0161166D01*
X0268917Y0161268D01*
X0268861Y0161371D01*
X0268809Y0161477D01*
X0268760Y0161584D01*
X0268714Y0161693D01*
X0268673Y0161803D01*
X0268635Y0161915D01*
X0268600Y0162028D01*
X0268570Y0162142D01*
X0268543Y0162256D01*
X0268520Y0162372D01*
X0268501Y0162488D01*
X0268486Y0162605D01*
X0268475Y0162723D01*
X0268468Y0162841D01*
X0268464Y0162958D01*
X0268465Y0163076D01*
X0268469Y0163194D01*
X0268478Y0163312D01*
X0268490Y0163429D01*
X0268506Y0163546D01*
X0268527Y0163662D01*
X0268551Y0163778D01*
X0268578Y0163892D01*
X0268610Y0164006D01*
X0268645Y0164118D01*
X0268685Y0164229D01*
X0268727Y0164339D01*
X0268774Y0164448D01*
X0268824Y0164554D01*
X0268878Y0164659D01*
X0268935Y0164763D01*
X0268995Y0164864D01*
X0269059Y0164963D01*
X0269126Y0165060D01*
X0269196Y0165155D01*
X0269270Y0165247D01*
X0269346Y0165337D01*
X0269426Y0165424D01*
X0269508Y0165509D01*
X0269593Y0165590D01*
X0269681Y0165669D01*
X0269771Y0165745D01*
X0269864Y0165818D01*
X0269959Y0165887D01*
X0270056Y0165954D01*
X0270156Y0166017D01*
X0270257Y0166077D01*
X0270361Y0166133D01*
X0270466Y0166186D01*
X0270573Y0166235D01*
X0270682Y0166281D01*
X0270792Y0166323D01*
X0270904Y0166362D01*
X0271017Y0166396D01*
X0271130Y0166427D01*
X0271245Y0166454D01*
X0271361Y0166478D01*
X0271477Y0166497D01*
X0271594Y0166513D01*
X0271711Y0166524D01*
X0271829Y0166532D01*
X0271947Y0166536D01*
X0272065Y0166535D01*
X0272183Y0166531D01*
X0272300Y0166523D01*
X0272418Y0166511D01*
X0272534Y0166495D01*
X0272651Y0166476D01*
X0272766Y0166452D01*
X0272881Y0166425D01*
X0272995Y0166393D01*
X0273107Y0166358D01*
X0273219Y0166319D01*
X0273329Y0166277D01*
X0273437Y0166231D01*
X0273544Y0166181D01*
X0273649Y0166128D01*
X0273753Y0166071D01*
X0273854Y0166011D01*
X0273953Y0165947D01*
X0274051Y0165881D01*
X0274146Y0165811D01*
X0274238Y0165738D01*
X0274328Y0165661D01*
X0274416Y0165582D01*
X0274500Y0165500D01*
X0265500Y0168500D02*
X0265500Y0159000D01*
X0266500Y0153100D02*
X0266500Y0150600D01*
X0267800Y0151900D02*
X0265200Y0151900D01*
X0243000Y0152500D02*
X0242000Y0151500D01*
X0230500Y0151500D01*
X0243000Y0152500D02*
X0243000Y0190500D01*
X0242000Y0191500D01*
X0230500Y0191500D01*
X0190500Y0165500D02*
X0190500Y0157500D01*
X0190498Y0157440D01*
X0190493Y0157379D01*
X0190484Y0157320D01*
X0190471Y0157261D01*
X0190455Y0157202D01*
X0190435Y0157145D01*
X0190412Y0157090D01*
X0190385Y0157035D01*
X0190356Y0156983D01*
X0190323Y0156932D01*
X0190287Y0156883D01*
X0190249Y0156837D01*
X0190207Y0156793D01*
X0190163Y0156751D01*
X0190117Y0156713D01*
X0190068Y0156677D01*
X0190017Y0156644D01*
X0189965Y0156615D01*
X0189910Y0156588D01*
X0189855Y0156565D01*
X0189798Y0156545D01*
X0189739Y0156529D01*
X0189680Y0156516D01*
X0189621Y0156507D01*
X0189560Y0156502D01*
X0189500Y0156500D01*
X0172500Y0156500D01*
X0172440Y0156502D01*
X0172379Y0156507D01*
X0172320Y0156516D01*
X0172261Y0156529D01*
X0172202Y0156545D01*
X0172145Y0156565D01*
X0172090Y0156588D01*
X0172035Y0156615D01*
X0171983Y0156644D01*
X0171932Y0156677D01*
X0171883Y0156713D01*
X0171837Y0156751D01*
X0171793Y0156793D01*
X0171751Y0156837D01*
X0171713Y0156883D01*
X0171677Y0156932D01*
X0171644Y0156983D01*
X0171615Y0157035D01*
X0171588Y0157090D01*
X0171565Y0157145D01*
X0171545Y0157202D01*
X0171529Y0157261D01*
X0171516Y0157320D01*
X0171507Y0157379D01*
X0171502Y0157440D01*
X0171500Y0157500D01*
X0171500Y0165500D01*
X0171502Y0165560D01*
X0171507Y0165621D01*
X0171516Y0165680D01*
X0171529Y0165739D01*
X0171545Y0165798D01*
X0171565Y0165855D01*
X0171588Y0165910D01*
X0171615Y0165965D01*
X0171644Y0166017D01*
X0171677Y0166068D01*
X0171713Y0166117D01*
X0171751Y0166163D01*
X0171793Y0166207D01*
X0171837Y0166249D01*
X0171883Y0166287D01*
X0171932Y0166323D01*
X0171983Y0166356D01*
X0172035Y0166385D01*
X0172090Y0166412D01*
X0172145Y0166435D01*
X0172202Y0166455D01*
X0172261Y0166471D01*
X0172320Y0166484D01*
X0172379Y0166493D01*
X0172440Y0166498D01*
X0172500Y0166500D01*
X0189500Y0166500D01*
X0189560Y0166498D01*
X0189621Y0166493D01*
X0189680Y0166484D01*
X0189739Y0166471D01*
X0189798Y0166455D01*
X0189855Y0166435D01*
X0189910Y0166412D01*
X0189965Y0166385D01*
X0190017Y0166356D01*
X0190068Y0166323D01*
X0190117Y0166287D01*
X0190163Y0166249D01*
X0190207Y0166207D01*
X0190249Y0166163D01*
X0190287Y0166117D01*
X0190323Y0166068D01*
X0190356Y0166017D01*
X0190385Y0165965D01*
X0190412Y0165910D01*
X0190435Y0165855D01*
X0190455Y0165798D01*
X0190471Y0165739D01*
X0190484Y0165680D01*
X0190493Y0165621D01*
X0190498Y0165560D01*
X0190500Y0165500D01*
X0182500Y0161500D02*
X0182000Y0161500D01*
X0180000Y0161500D02*
X0179500Y0161500D01*
X0176000Y0151000D02*
X0176000Y0145000D01*
X0173000Y0148000D02*
X0179000Y0148000D01*
X0176000Y0129500D02*
X0176000Y0125000D01*
X0168500Y0125000D01*
X0168500Y0122500D01*
X0183500Y0122500D01*
X0183500Y0125000D01*
X0176000Y0125000D01*
X0143500Y0121500D02*
X0143510Y0122298D01*
X0143539Y0123095D01*
X0143588Y0123891D01*
X0143656Y0124686D01*
X0143744Y0125478D01*
X0143852Y0126269D01*
X0143978Y0127056D01*
X0144124Y0127840D01*
X0144290Y0128621D01*
X0144474Y0129397D01*
X0144677Y0130168D01*
X0144899Y0130934D01*
X0145140Y0131695D01*
X0145400Y0132449D01*
X0145678Y0133197D01*
X0145974Y0133937D01*
X0146288Y0134670D01*
X0146620Y0135396D01*
X0146970Y0136112D01*
X0147338Y0136820D01*
X0147722Y0137519D01*
X0148124Y0138208D01*
X0148542Y0138887D01*
X0148977Y0139556D01*
X0149428Y0140214D01*
X0149896Y0140860D01*
X0150379Y0141495D01*
X0150877Y0142118D01*
X0151391Y0142728D01*
X0151919Y0143326D01*
X0152462Y0143910D01*
X0153019Y0144481D01*
X0153590Y0145038D01*
X0154174Y0145581D01*
X0154772Y0146109D01*
X0155382Y0146623D01*
X0156005Y0147121D01*
X0156640Y0147604D01*
X0157286Y0148072D01*
X0157944Y0148523D01*
X0158613Y0148958D01*
X0159292Y0149376D01*
X0159981Y0149778D01*
X0160680Y0150162D01*
X0161388Y0150530D01*
X0162104Y0150880D01*
X0162830Y0151212D01*
X0163563Y0151526D01*
X0164303Y0151822D01*
X0165051Y0152100D01*
X0165805Y0152360D01*
X0166566Y0152601D01*
X0167332Y0152823D01*
X0168103Y0153026D01*
X0168879Y0153210D01*
X0169660Y0153376D01*
X0170444Y0153522D01*
X0171231Y0153648D01*
X0172022Y0153756D01*
X0172814Y0153844D01*
X0173609Y0153912D01*
X0174405Y0153961D01*
X0175202Y0153990D01*
X0176000Y0154000D01*
X0176798Y0153990D01*
X0177595Y0153961D01*
X0178391Y0153912D01*
X0179186Y0153844D01*
X0179978Y0153756D01*
X0180769Y0153648D01*
X0181556Y0153522D01*
X0182340Y0153376D01*
X0183121Y0153210D01*
X0183897Y0153026D01*
X0184668Y0152823D01*
X0185434Y0152601D01*
X0186195Y0152360D01*
X0186949Y0152100D01*
X0187697Y0151822D01*
X0188437Y0151526D01*
X0189170Y0151212D01*
X0189896Y0150880D01*
X0190612Y0150530D01*
X0191320Y0150162D01*
X0192019Y0149778D01*
X0192708Y0149376D01*
X0193387Y0148958D01*
X0194056Y0148523D01*
X0194714Y0148072D01*
X0195360Y0147604D01*
X0195995Y0147121D01*
X0196618Y0146623D01*
X0197228Y0146109D01*
X0197826Y0145581D01*
X0198410Y0145038D01*
X0198981Y0144481D01*
X0199538Y0143910D01*
X0200081Y0143326D01*
X0200609Y0142728D01*
X0201123Y0142118D01*
X0201621Y0141495D01*
X0202104Y0140860D01*
X0202572Y0140214D01*
X0203023Y0139556D01*
X0203458Y0138887D01*
X0203876Y0138208D01*
X0204278Y0137519D01*
X0204662Y0136820D01*
X0205030Y0136112D01*
X0205380Y0135396D01*
X0205712Y0134670D01*
X0206026Y0133937D01*
X0206322Y0133197D01*
X0206600Y0132449D01*
X0206860Y0131695D01*
X0207101Y0130934D01*
X0207323Y0130168D01*
X0207526Y0129397D01*
X0207710Y0128621D01*
X0207876Y0127840D01*
X0208022Y0127056D01*
X0208148Y0126269D01*
X0208256Y0125478D01*
X0208344Y0124686D01*
X0208412Y0123891D01*
X0208461Y0123095D01*
X0208490Y0122298D01*
X0208500Y0121500D01*
X0208490Y0120702D01*
X0208461Y0119905D01*
X0208412Y0119109D01*
X0208344Y0118314D01*
X0208256Y0117522D01*
X0208148Y0116731D01*
X0208022Y0115944D01*
X0207876Y0115160D01*
X0207710Y0114379D01*
X0207526Y0113603D01*
X0207323Y0112832D01*
X0207101Y0112066D01*
X0206860Y0111305D01*
X0206600Y0110551D01*
X0206322Y0109803D01*
X0206026Y0109063D01*
X0205712Y0108330D01*
X0205380Y0107604D01*
X0205030Y0106888D01*
X0204662Y0106180D01*
X0204278Y0105481D01*
X0203876Y0104792D01*
X0203458Y0104113D01*
X0203023Y0103444D01*
X0202572Y0102786D01*
X0202104Y0102140D01*
X0201621Y0101505D01*
X0201123Y0100882D01*
X0200609Y0100272D01*
X0200081Y0099674D01*
X0199538Y0099090D01*
X0198981Y0098519D01*
X0198410Y0097962D01*
X0197826Y0097419D01*
X0197228Y0096891D01*
X0196618Y0096377D01*
X0195995Y0095879D01*
X0195360Y0095396D01*
X0194714Y0094928D01*
X0194056Y0094477D01*
X0193387Y0094042D01*
X0192708Y0093624D01*
X0192019Y0093222D01*
X0191320Y0092838D01*
X0190612Y0092470D01*
X0189896Y0092120D01*
X0189170Y0091788D01*
X0188437Y0091474D01*
X0187697Y0091178D01*
X0186949Y0090900D01*
X0186195Y0090640D01*
X0185434Y0090399D01*
X0184668Y0090177D01*
X0183897Y0089974D01*
X0183121Y0089790D01*
X0182340Y0089624D01*
X0181556Y0089478D01*
X0180769Y0089352D01*
X0179978Y0089244D01*
X0179186Y0089156D01*
X0178391Y0089088D01*
X0177595Y0089039D01*
X0176798Y0089010D01*
X0176000Y0089000D01*
X0175202Y0089010D01*
X0174405Y0089039D01*
X0173609Y0089088D01*
X0172814Y0089156D01*
X0172022Y0089244D01*
X0171231Y0089352D01*
X0170444Y0089478D01*
X0169660Y0089624D01*
X0168879Y0089790D01*
X0168103Y0089974D01*
X0167332Y0090177D01*
X0166566Y0090399D01*
X0165805Y0090640D01*
X0165051Y0090900D01*
X0164303Y0091178D01*
X0163563Y0091474D01*
X0162830Y0091788D01*
X0162104Y0092120D01*
X0161388Y0092470D01*
X0160680Y0092838D01*
X0159981Y0093222D01*
X0159292Y0093624D01*
X0158613Y0094042D01*
X0157944Y0094477D01*
X0157286Y0094928D01*
X0156640Y0095396D01*
X0156005Y0095879D01*
X0155382Y0096377D01*
X0154772Y0096891D01*
X0154174Y0097419D01*
X0153590Y0097962D01*
X0153019Y0098519D01*
X0152462Y0099090D01*
X0151919Y0099674D01*
X0151391Y0100272D01*
X0150877Y0100882D01*
X0150379Y0101505D01*
X0149896Y0102140D01*
X0149428Y0102786D01*
X0148977Y0103444D01*
X0148542Y0104113D01*
X0148124Y0104792D01*
X0147722Y0105481D01*
X0147338Y0106180D01*
X0146970Y0106888D01*
X0146620Y0107604D01*
X0146288Y0108330D01*
X0145974Y0109063D01*
X0145678Y0109803D01*
X0145400Y0110551D01*
X0145140Y0111305D01*
X0144899Y0112066D01*
X0144677Y0112832D01*
X0144474Y0113603D01*
X0144290Y0114379D01*
X0144124Y0115160D01*
X0143978Y0115944D01*
X0143852Y0116731D01*
X0143744Y0117522D01*
X0143656Y0118314D01*
X0143588Y0119109D01*
X0143539Y0119905D01*
X0143510Y0120702D01*
X0143500Y0121500D01*
X0113500Y0110000D02*
X0113500Y0107500D01*
X0098500Y0107500D01*
X0098500Y0110000D01*
X0106000Y0110000D01*
X0113500Y0110000D01*
X0106000Y0110000D02*
X0106000Y0114500D01*
X0073500Y0106500D02*
X0073510Y0107298D01*
X0073539Y0108095D01*
X0073588Y0108891D01*
X0073656Y0109686D01*
X0073744Y0110478D01*
X0073852Y0111269D01*
X0073978Y0112056D01*
X0074124Y0112840D01*
X0074290Y0113621D01*
X0074474Y0114397D01*
X0074677Y0115168D01*
X0074899Y0115934D01*
X0075140Y0116695D01*
X0075400Y0117449D01*
X0075678Y0118197D01*
X0075974Y0118937D01*
X0076288Y0119670D01*
X0076620Y0120396D01*
X0076970Y0121112D01*
X0077338Y0121820D01*
X0077722Y0122519D01*
X0078124Y0123208D01*
X0078542Y0123887D01*
X0078977Y0124556D01*
X0079428Y0125214D01*
X0079896Y0125860D01*
X0080379Y0126495D01*
X0080877Y0127118D01*
X0081391Y0127728D01*
X0081919Y0128326D01*
X0082462Y0128910D01*
X0083019Y0129481D01*
X0083590Y0130038D01*
X0084174Y0130581D01*
X0084772Y0131109D01*
X0085382Y0131623D01*
X0086005Y0132121D01*
X0086640Y0132604D01*
X0087286Y0133072D01*
X0087944Y0133523D01*
X0088613Y0133958D01*
X0089292Y0134376D01*
X0089981Y0134778D01*
X0090680Y0135162D01*
X0091388Y0135530D01*
X0092104Y0135880D01*
X0092830Y0136212D01*
X0093563Y0136526D01*
X0094303Y0136822D01*
X0095051Y0137100D01*
X0095805Y0137360D01*
X0096566Y0137601D01*
X0097332Y0137823D01*
X0098103Y0138026D01*
X0098879Y0138210D01*
X0099660Y0138376D01*
X0100444Y0138522D01*
X0101231Y0138648D01*
X0102022Y0138756D01*
X0102814Y0138844D01*
X0103609Y0138912D01*
X0104405Y0138961D01*
X0105202Y0138990D01*
X0106000Y0139000D01*
X0106798Y0138990D01*
X0107595Y0138961D01*
X0108391Y0138912D01*
X0109186Y0138844D01*
X0109978Y0138756D01*
X0110769Y0138648D01*
X0111556Y0138522D01*
X0112340Y0138376D01*
X0113121Y0138210D01*
X0113897Y0138026D01*
X0114668Y0137823D01*
X0115434Y0137601D01*
X0116195Y0137360D01*
X0116949Y0137100D01*
X0117697Y0136822D01*
X0118437Y0136526D01*
X0119170Y0136212D01*
X0119896Y0135880D01*
X0120612Y0135530D01*
X0121320Y0135162D01*
X0122019Y0134778D01*
X0122708Y0134376D01*
X0123387Y0133958D01*
X0124056Y0133523D01*
X0124714Y0133072D01*
X0125360Y0132604D01*
X0125995Y0132121D01*
X0126618Y0131623D01*
X0127228Y0131109D01*
X0127826Y0130581D01*
X0128410Y0130038D01*
X0128981Y0129481D01*
X0129538Y0128910D01*
X0130081Y0128326D01*
X0130609Y0127728D01*
X0131123Y0127118D01*
X0131621Y0126495D01*
X0132104Y0125860D01*
X0132572Y0125214D01*
X0133023Y0124556D01*
X0133458Y0123887D01*
X0133876Y0123208D01*
X0134278Y0122519D01*
X0134662Y0121820D01*
X0135030Y0121112D01*
X0135380Y0120396D01*
X0135712Y0119670D01*
X0136026Y0118937D01*
X0136322Y0118197D01*
X0136600Y0117449D01*
X0136860Y0116695D01*
X0137101Y0115934D01*
X0137323Y0115168D01*
X0137526Y0114397D01*
X0137710Y0113621D01*
X0137876Y0112840D01*
X0138022Y0112056D01*
X0138148Y0111269D01*
X0138256Y0110478D01*
X0138344Y0109686D01*
X0138412Y0108891D01*
X0138461Y0108095D01*
X0138490Y0107298D01*
X0138500Y0106500D01*
X0138490Y0105702D01*
X0138461Y0104905D01*
X0138412Y0104109D01*
X0138344Y0103314D01*
X0138256Y0102522D01*
X0138148Y0101731D01*
X0138022Y0100944D01*
X0137876Y0100160D01*
X0137710Y0099379D01*
X0137526Y0098603D01*
X0137323Y0097832D01*
X0137101Y0097066D01*
X0136860Y0096305D01*
X0136600Y0095551D01*
X0136322Y0094803D01*
X0136026Y0094063D01*
X0135712Y0093330D01*
X0135380Y0092604D01*
X0135030Y0091888D01*
X0134662Y0091180D01*
X0134278Y0090481D01*
X0133876Y0089792D01*
X0133458Y0089113D01*
X0133023Y0088444D01*
X0132572Y0087786D01*
X0132104Y0087140D01*
X0131621Y0086505D01*
X0131123Y0085882D01*
X0130609Y0085272D01*
X0130081Y0084674D01*
X0129538Y0084090D01*
X0128981Y0083519D01*
X0128410Y0082962D01*
X0127826Y0082419D01*
X0127228Y0081891D01*
X0126618Y0081377D01*
X0125995Y0080879D01*
X0125360Y0080396D01*
X0124714Y0079928D01*
X0124056Y0079477D01*
X0123387Y0079042D01*
X0122708Y0078624D01*
X0122019Y0078222D01*
X0121320Y0077838D01*
X0120612Y0077470D01*
X0119896Y0077120D01*
X0119170Y0076788D01*
X0118437Y0076474D01*
X0117697Y0076178D01*
X0116949Y0075900D01*
X0116195Y0075640D01*
X0115434Y0075399D01*
X0114668Y0075177D01*
X0113897Y0074974D01*
X0113121Y0074790D01*
X0112340Y0074624D01*
X0111556Y0074478D01*
X0110769Y0074352D01*
X0109978Y0074244D01*
X0109186Y0074156D01*
X0108391Y0074088D01*
X0107595Y0074039D01*
X0106798Y0074010D01*
X0106000Y0074000D01*
X0105202Y0074010D01*
X0104405Y0074039D01*
X0103609Y0074088D01*
X0102814Y0074156D01*
X0102022Y0074244D01*
X0101231Y0074352D01*
X0100444Y0074478D01*
X0099660Y0074624D01*
X0098879Y0074790D01*
X0098103Y0074974D01*
X0097332Y0075177D01*
X0096566Y0075399D01*
X0095805Y0075640D01*
X0095051Y0075900D01*
X0094303Y0076178D01*
X0093563Y0076474D01*
X0092830Y0076788D01*
X0092104Y0077120D01*
X0091388Y0077470D01*
X0090680Y0077838D01*
X0089981Y0078222D01*
X0089292Y0078624D01*
X0088613Y0079042D01*
X0087944Y0079477D01*
X0087286Y0079928D01*
X0086640Y0080396D01*
X0086005Y0080879D01*
X0085382Y0081377D01*
X0084772Y0081891D01*
X0084174Y0082419D01*
X0083590Y0082962D01*
X0083019Y0083519D01*
X0082462Y0084090D01*
X0081919Y0084674D01*
X0081391Y0085272D01*
X0080877Y0085882D01*
X0080379Y0086505D01*
X0079896Y0087140D01*
X0079428Y0087786D01*
X0078977Y0088444D01*
X0078542Y0089113D01*
X0078124Y0089792D01*
X0077722Y0090481D01*
X0077338Y0091180D01*
X0076970Y0091888D01*
X0076620Y0092604D01*
X0076288Y0093330D01*
X0075974Y0094063D01*
X0075678Y0094803D01*
X0075400Y0095551D01*
X0075140Y0096305D01*
X0074899Y0097066D01*
X0074677Y0097832D01*
X0074474Y0098603D01*
X0074290Y0099379D01*
X0074124Y0100160D01*
X0073978Y0100944D01*
X0073852Y0101731D01*
X0073744Y0102522D01*
X0073656Y0103314D01*
X0073588Y0104109D01*
X0073539Y0104905D01*
X0073510Y0105702D01*
X0073500Y0106500D01*
X0043500Y0117500D02*
X0043500Y0120000D01*
X0036000Y0120000D01*
X0028500Y0120000D01*
X0028500Y0117500D01*
X0043500Y0117500D01*
X0003500Y0116500D02*
X0003510Y0117298D01*
X0003539Y0118095D01*
X0003588Y0118891D01*
X0003656Y0119686D01*
X0003744Y0120478D01*
X0003852Y0121269D01*
X0003978Y0122056D01*
X0004124Y0122840D01*
X0004290Y0123621D01*
X0004474Y0124397D01*
X0004677Y0125168D01*
X0004899Y0125934D01*
X0005140Y0126695D01*
X0005400Y0127449D01*
X0005678Y0128197D01*
X0005974Y0128937D01*
X0006288Y0129670D01*
X0006620Y0130396D01*
X0006970Y0131112D01*
X0007338Y0131820D01*
X0007722Y0132519D01*
X0008124Y0133208D01*
X0008542Y0133887D01*
X0008977Y0134556D01*
X0009428Y0135214D01*
X0009896Y0135860D01*
X0010379Y0136495D01*
X0010877Y0137118D01*
X0011391Y0137728D01*
X0011919Y0138326D01*
X0012462Y0138910D01*
X0013019Y0139481D01*
X0013590Y0140038D01*
X0014174Y0140581D01*
X0014772Y0141109D01*
X0015382Y0141623D01*
X0016005Y0142121D01*
X0016640Y0142604D01*
X0017286Y0143072D01*
X0017944Y0143523D01*
X0018613Y0143958D01*
X0019292Y0144376D01*
X0019981Y0144778D01*
X0020680Y0145162D01*
X0021388Y0145530D01*
X0022104Y0145880D01*
X0022830Y0146212D01*
X0023563Y0146526D01*
X0024303Y0146822D01*
X0025051Y0147100D01*
X0025805Y0147360D01*
X0026566Y0147601D01*
X0027332Y0147823D01*
X0028103Y0148026D01*
X0028879Y0148210D01*
X0029660Y0148376D01*
X0030444Y0148522D01*
X0031231Y0148648D01*
X0032022Y0148756D01*
X0032814Y0148844D01*
X0033609Y0148912D01*
X0034405Y0148961D01*
X0035202Y0148990D01*
X0036000Y0149000D01*
X0036798Y0148990D01*
X0037595Y0148961D01*
X0038391Y0148912D01*
X0039186Y0148844D01*
X0039978Y0148756D01*
X0040769Y0148648D01*
X0041556Y0148522D01*
X0042340Y0148376D01*
X0043121Y0148210D01*
X0043897Y0148026D01*
X0044668Y0147823D01*
X0045434Y0147601D01*
X0046195Y0147360D01*
X0046949Y0147100D01*
X0047697Y0146822D01*
X0048437Y0146526D01*
X0049170Y0146212D01*
X0049896Y0145880D01*
X0050612Y0145530D01*
X0051320Y0145162D01*
X0052019Y0144778D01*
X0052708Y0144376D01*
X0053387Y0143958D01*
X0054056Y0143523D01*
X0054714Y0143072D01*
X0055360Y0142604D01*
X0055995Y0142121D01*
X0056618Y0141623D01*
X0057228Y0141109D01*
X0057826Y0140581D01*
X0058410Y0140038D01*
X0058981Y0139481D01*
X0059538Y0138910D01*
X0060081Y0138326D01*
X0060609Y0137728D01*
X0061123Y0137118D01*
X0061621Y0136495D01*
X0062104Y0135860D01*
X0062572Y0135214D01*
X0063023Y0134556D01*
X0063458Y0133887D01*
X0063876Y0133208D01*
X0064278Y0132519D01*
X0064662Y0131820D01*
X0065030Y0131112D01*
X0065380Y0130396D01*
X0065712Y0129670D01*
X0066026Y0128937D01*
X0066322Y0128197D01*
X0066600Y0127449D01*
X0066860Y0126695D01*
X0067101Y0125934D01*
X0067323Y0125168D01*
X0067526Y0124397D01*
X0067710Y0123621D01*
X0067876Y0122840D01*
X0068022Y0122056D01*
X0068148Y0121269D01*
X0068256Y0120478D01*
X0068344Y0119686D01*
X0068412Y0118891D01*
X0068461Y0118095D01*
X0068490Y0117298D01*
X0068500Y0116500D01*
X0068490Y0115702D01*
X0068461Y0114905D01*
X0068412Y0114109D01*
X0068344Y0113314D01*
X0068256Y0112522D01*
X0068148Y0111731D01*
X0068022Y0110944D01*
X0067876Y0110160D01*
X0067710Y0109379D01*
X0067526Y0108603D01*
X0067323Y0107832D01*
X0067101Y0107066D01*
X0066860Y0106305D01*
X0066600Y0105551D01*
X0066322Y0104803D01*
X0066026Y0104063D01*
X0065712Y0103330D01*
X0065380Y0102604D01*
X0065030Y0101888D01*
X0064662Y0101180D01*
X0064278Y0100481D01*
X0063876Y0099792D01*
X0063458Y0099113D01*
X0063023Y0098444D01*
X0062572Y0097786D01*
X0062104Y0097140D01*
X0061621Y0096505D01*
X0061123Y0095882D01*
X0060609Y0095272D01*
X0060081Y0094674D01*
X0059538Y0094090D01*
X0058981Y0093519D01*
X0058410Y0092962D01*
X0057826Y0092419D01*
X0057228Y0091891D01*
X0056618Y0091377D01*
X0055995Y0090879D01*
X0055360Y0090396D01*
X0054714Y0089928D01*
X0054056Y0089477D01*
X0053387Y0089042D01*
X0052708Y0088624D01*
X0052019Y0088222D01*
X0051320Y0087838D01*
X0050612Y0087470D01*
X0049896Y0087120D01*
X0049170Y0086788D01*
X0048437Y0086474D01*
X0047697Y0086178D01*
X0046949Y0085900D01*
X0046195Y0085640D01*
X0045434Y0085399D01*
X0044668Y0085177D01*
X0043897Y0084974D01*
X0043121Y0084790D01*
X0042340Y0084624D01*
X0041556Y0084478D01*
X0040769Y0084352D01*
X0039978Y0084244D01*
X0039186Y0084156D01*
X0038391Y0084088D01*
X0037595Y0084039D01*
X0036798Y0084010D01*
X0036000Y0084000D01*
X0035202Y0084010D01*
X0034405Y0084039D01*
X0033609Y0084088D01*
X0032814Y0084156D01*
X0032022Y0084244D01*
X0031231Y0084352D01*
X0030444Y0084478D01*
X0029660Y0084624D01*
X0028879Y0084790D01*
X0028103Y0084974D01*
X0027332Y0085177D01*
X0026566Y0085399D01*
X0025805Y0085640D01*
X0025051Y0085900D01*
X0024303Y0086178D01*
X0023563Y0086474D01*
X0022830Y0086788D01*
X0022104Y0087120D01*
X0021388Y0087470D01*
X0020680Y0087838D01*
X0019981Y0088222D01*
X0019292Y0088624D01*
X0018613Y0089042D01*
X0017944Y0089477D01*
X0017286Y0089928D01*
X0016640Y0090396D01*
X0016005Y0090879D01*
X0015382Y0091377D01*
X0014772Y0091891D01*
X0014174Y0092419D01*
X0013590Y0092962D01*
X0013019Y0093519D01*
X0012462Y0094090D01*
X0011919Y0094674D01*
X0011391Y0095272D01*
X0010877Y0095882D01*
X0010379Y0096505D01*
X0009896Y0097140D01*
X0009428Y0097786D01*
X0008977Y0098444D01*
X0008542Y0099113D01*
X0008124Y0099792D01*
X0007722Y0100481D01*
X0007338Y0101180D01*
X0006970Y0101888D01*
X0006620Y0102604D01*
X0006288Y0103330D01*
X0005974Y0104063D01*
X0005678Y0104803D01*
X0005400Y0105551D01*
X0005140Y0106305D01*
X0004899Y0107066D01*
X0004677Y0107832D01*
X0004474Y0108603D01*
X0004290Y0109379D01*
X0004124Y0110160D01*
X0003978Y0110944D01*
X0003852Y0111731D01*
X0003744Y0112522D01*
X0003656Y0113314D01*
X0003588Y0114109D01*
X0003539Y0114905D01*
X0003510Y0115702D01*
X0003500Y0116500D01*
X0036000Y0114000D02*
X0036000Y0108500D01*
X0036000Y0120000D02*
X0036000Y0124500D01*
X0036000Y0140000D02*
X0036000Y0146000D01*
X0033000Y0143000D02*
X0039000Y0143000D01*
X0063000Y0151500D02*
X0079000Y0151500D01*
X0079000Y0161500D01*
X0063000Y0161500D01*
X0063000Y0151500D01*
X0067000Y0154000D02*
X0071000Y0156500D01*
X0071000Y0159000D01*
X0071000Y0156500D02*
X0071000Y0154000D01*
X0071000Y0156500D02*
X0065000Y0156500D01*
X0067000Y0154000D02*
X0067000Y0159000D01*
X0071000Y0156500D01*
X0073500Y0156500D01*
X0079000Y0166500D02*
X0063000Y0166500D01*
X0063000Y0176500D01*
X0079000Y0176500D01*
X0079000Y0166500D01*
X0075000Y0169000D02*
X0071000Y0171500D01*
X0071000Y0169000D01*
X0075000Y0169000D02*
X0075000Y0174000D01*
X0071000Y0171500D01*
X0071000Y0174000D01*
X0071000Y0171500D02*
X0068500Y0171500D01*
X0071000Y0171500D02*
X0077000Y0171500D01*
X0092500Y0184000D02*
X0096000Y0180500D01*
X0101000Y0180500D01*
X0104500Y0184000D01*
X0104500Y0189000D01*
X0101000Y0192500D01*
X0096000Y0192500D01*
X0092500Y0189000D01*
X0092500Y0184000D01*
X0118000Y0176500D02*
X0118000Y0166500D01*
X0134000Y0166500D01*
X0134000Y0176500D01*
X0118000Y0176500D01*
X0122000Y0174000D02*
X0126000Y0171500D01*
X0126000Y0174000D01*
X0126000Y0171500D02*
X0126000Y0169000D01*
X0126000Y0171500D02*
X0122000Y0169000D01*
X0122000Y0174000D01*
X0120000Y0171500D02*
X0126000Y0171500D01*
X0128500Y0171500D01*
X0140000Y0184000D02*
X0143500Y0180500D01*
X0148500Y0180500D01*
X0152000Y0184000D01*
X0152000Y0189000D01*
X0148500Y0192500D01*
X0143500Y0192500D01*
X0140000Y0189000D01*
X0140000Y0184000D01*
X0134000Y0161500D02*
X0118000Y0161500D01*
X0118000Y0151500D01*
X0134000Y0151500D01*
X0134000Y0161500D01*
X0130000Y0159000D02*
X0126000Y0156500D01*
X0126000Y0154000D01*
X0126000Y0156500D02*
X0123500Y0156500D01*
X0126000Y0156500D02*
X0126000Y0159000D01*
X0126000Y0156500D02*
X0132000Y0156500D01*
X0130000Y0154000D02*
X0126000Y0156500D01*
X0130000Y0159000D02*
X0130000Y0154000D01*
X0106000Y0136000D02*
X0106000Y0130000D01*
X0103000Y0133000D02*
X0109000Y0133000D01*
X0106000Y0104000D02*
X0106000Y0098500D01*
X0176000Y0113500D02*
X0176000Y0119000D01*
X0230500Y0121500D02*
X0242000Y0121500D01*
X0243000Y0120500D01*
X0243000Y0082500D01*
X0242000Y0081500D01*
X0230500Y0081500D01*
X0251000Y0093500D02*
X0261000Y0093500D01*
X0261000Y0109500D01*
X0251000Y0109500D01*
X0251000Y0093500D01*
X0253500Y0097500D02*
X0256000Y0101500D01*
X0253500Y0101500D01*
X0256000Y0101500D02*
X0256000Y0104000D01*
X0256000Y0101500D02*
X0258500Y0101500D01*
X0256000Y0101500D02*
X0258500Y0097500D01*
X0253500Y0097500D01*
X0256000Y0095500D02*
X0256000Y0101500D01*
X0267000Y0099000D02*
X0268000Y0099000D01*
X0267000Y0099000D02*
X0267000Y0124000D01*
X0268000Y0124000D01*
X0274000Y0124000D02*
X0284000Y0124000D01*
X0284000Y0114500D01*
X0284000Y0108500D02*
X0284000Y0099000D01*
X0274000Y0099000D01*
X0275000Y0117500D02*
X0275084Y0117418D01*
X0275172Y0117339D01*
X0275262Y0117262D01*
X0275354Y0117189D01*
X0275449Y0117119D01*
X0275547Y0117053D01*
X0275646Y0116989D01*
X0275747Y0116929D01*
X0275851Y0116872D01*
X0275956Y0116819D01*
X0276063Y0116769D01*
X0276171Y0116723D01*
X0276281Y0116681D01*
X0276393Y0116642D01*
X0276505Y0116607D01*
X0276619Y0116575D01*
X0276734Y0116548D01*
X0276849Y0116524D01*
X0276966Y0116505D01*
X0277082Y0116489D01*
X0277200Y0116477D01*
X0277317Y0116469D01*
X0277435Y0116465D01*
X0277553Y0116464D01*
X0277671Y0116468D01*
X0277789Y0116476D01*
X0277906Y0116487D01*
X0278023Y0116503D01*
X0278139Y0116522D01*
X0278255Y0116546D01*
X0278370Y0116573D01*
X0278483Y0116604D01*
X0278596Y0116638D01*
X0278708Y0116677D01*
X0278818Y0116719D01*
X0278927Y0116765D01*
X0279034Y0116814D01*
X0279139Y0116867D01*
X0279243Y0116923D01*
X0279344Y0116983D01*
X0279444Y0117046D01*
X0279541Y0117113D01*
X0279636Y0117182D01*
X0279729Y0117255D01*
X0279819Y0117331D01*
X0279907Y0117410D01*
X0279992Y0117491D01*
X0280074Y0117576D01*
X0280154Y0117663D01*
X0280230Y0117753D01*
X0280304Y0117845D01*
X0280374Y0117940D01*
X0280441Y0118037D01*
X0280505Y0118136D01*
X0280565Y0118237D01*
X0280622Y0118341D01*
X0280676Y0118446D01*
X0280726Y0118552D01*
X0280773Y0118661D01*
X0280815Y0118771D01*
X0280855Y0118882D01*
X0280890Y0118994D01*
X0280922Y0119108D01*
X0280949Y0119222D01*
X0280973Y0119338D01*
X0280994Y0119454D01*
X0281010Y0119571D01*
X0281022Y0119688D01*
X0281031Y0119806D01*
X0281035Y0119924D01*
X0281036Y0120042D01*
X0281032Y0120159D01*
X0281025Y0120277D01*
X0281014Y0120395D01*
X0280999Y0120512D01*
X0280980Y0120628D01*
X0280957Y0120744D01*
X0280930Y0120858D01*
X0280900Y0120972D01*
X0280865Y0121085D01*
X0280827Y0121197D01*
X0280786Y0121307D01*
X0280740Y0121416D01*
X0280691Y0121523D01*
X0280639Y0121629D01*
X0280583Y0121732D01*
X0280523Y0121834D01*
X0280460Y0121934D01*
X0280394Y0122032D01*
X0280325Y0122127D01*
X0280252Y0122220D01*
X0280177Y0122311D01*
X0280098Y0122399D01*
X0280017Y0122484D01*
X0279932Y0122566D01*
X0279845Y0122646D01*
X0279756Y0122723D01*
X0279664Y0122797D01*
X0279569Y0122867D01*
X0279473Y0122935D01*
X0279374Y0122999D01*
X0279273Y0123060D01*
X0279170Y0123117D01*
X0279065Y0123171D01*
X0278958Y0123221D01*
X0278850Y0123268D01*
X0278740Y0123311D01*
X0278629Y0123351D01*
X0278517Y0123387D01*
X0278403Y0123419D01*
X0278289Y0123447D01*
X0278173Y0123471D01*
X0278057Y0123492D01*
X0277941Y0123508D01*
X0277823Y0123521D01*
X0277706Y0123530D01*
X0277588Y0123535D01*
X0277470Y0123536D01*
X0277352Y0123533D01*
X0277234Y0123526D01*
X0277117Y0123515D01*
X0277000Y0123500D01*
X0337500Y0159000D02*
X0344500Y0159000D01*
X0344560Y0159002D01*
X0344621Y0159007D01*
X0344680Y0159016D01*
X0344739Y0159029D01*
X0344798Y0159045D01*
X0344855Y0159065D01*
X0344910Y0159088D01*
X0344965Y0159115D01*
X0345017Y0159144D01*
X0345068Y0159177D01*
X0345117Y0159213D01*
X0345163Y0159251D01*
X0345207Y0159293D01*
X0345249Y0159337D01*
X0345287Y0159383D01*
X0345323Y0159432D01*
X0345356Y0159483D01*
X0345385Y0159535D01*
X0345412Y0159590D01*
X0345435Y0159645D01*
X0345455Y0159702D01*
X0345471Y0159761D01*
X0345484Y0159820D01*
X0345493Y0159879D01*
X0345498Y0159940D01*
X0345500Y0160000D01*
X0345500Y0161500D01*
X0345000Y0162000D01*
X0345000Y0181000D01*
X0345500Y0181500D01*
X0345500Y0183000D01*
X0345498Y0183060D01*
X0345493Y0183121D01*
X0345484Y0183180D01*
X0345471Y0183239D01*
X0345455Y0183298D01*
X0345435Y0183355D01*
X0345412Y0183410D01*
X0345385Y0183465D01*
X0345356Y0183517D01*
X0345323Y0183568D01*
X0345287Y0183617D01*
X0345249Y0183663D01*
X0345207Y0183707D01*
X0345163Y0183749D01*
X0345117Y0183787D01*
X0345068Y0183823D01*
X0345017Y0183856D01*
X0344965Y0183885D01*
X0344910Y0183912D01*
X0344855Y0183935D01*
X0344798Y0183955D01*
X0344739Y0183971D01*
X0344680Y0183984D01*
X0344621Y0183993D01*
X0344560Y0183998D01*
X0344500Y0184000D01*
X0337500Y0184000D01*
X0337440Y0183998D01*
X0337379Y0183993D01*
X0337320Y0183984D01*
X0337261Y0183971D01*
X0337202Y0183955D01*
X0337145Y0183935D01*
X0337090Y0183912D01*
X0337035Y0183885D01*
X0336983Y0183856D01*
X0336932Y0183823D01*
X0336883Y0183787D01*
X0336837Y0183749D01*
X0336793Y0183707D01*
X0336751Y0183663D01*
X0336713Y0183617D01*
X0336677Y0183568D01*
X0336644Y0183517D01*
X0336615Y0183465D01*
X0336588Y0183410D01*
X0336565Y0183355D01*
X0336545Y0183298D01*
X0336529Y0183239D01*
X0336516Y0183180D01*
X0336507Y0183121D01*
X0336502Y0183060D01*
X0336500Y0183000D01*
X0336500Y0181500D01*
X0337000Y0181000D01*
X0337000Y0162000D01*
X0336500Y0161500D01*
X0336500Y0160000D01*
X0336502Y0159940D01*
X0336507Y0159879D01*
X0336516Y0159820D01*
X0336529Y0159761D01*
X0336545Y0159702D01*
X0336565Y0159645D01*
X0336588Y0159590D01*
X0336615Y0159535D01*
X0336644Y0159483D01*
X0336677Y0159432D01*
X0336713Y0159383D01*
X0336751Y0159337D01*
X0336793Y0159293D01*
X0336837Y0159251D01*
X0336883Y0159213D01*
X0336932Y0159177D01*
X0336983Y0159144D01*
X0337035Y0159115D01*
X0337090Y0159088D01*
X0337145Y0159065D01*
X0337202Y0159045D01*
X0337261Y0159029D01*
X0337320Y0159016D01*
X0337379Y0159007D01*
X0337440Y0159002D01*
X0337500Y0159000D01*
X0366000Y0156500D02*
X0366003Y0156745D01*
X0366012Y0156991D01*
X0366027Y0157236D01*
X0366048Y0157480D01*
X0366075Y0157724D01*
X0366108Y0157967D01*
X0366147Y0158210D01*
X0366192Y0158451D01*
X0366243Y0158691D01*
X0366300Y0158930D01*
X0366362Y0159167D01*
X0366431Y0159403D01*
X0366505Y0159637D01*
X0366585Y0159869D01*
X0366670Y0160099D01*
X0366761Y0160327D01*
X0366858Y0160552D01*
X0366960Y0160776D01*
X0367068Y0160996D01*
X0367181Y0161214D01*
X0367299Y0161429D01*
X0367423Y0161641D01*
X0367551Y0161850D01*
X0367685Y0162056D01*
X0367824Y0162258D01*
X0367968Y0162457D01*
X0368117Y0162652D01*
X0368270Y0162844D01*
X0368428Y0163032D01*
X0368590Y0163216D01*
X0368758Y0163395D01*
X0368929Y0163571D01*
X0369105Y0163742D01*
X0369284Y0163910D01*
X0369468Y0164072D01*
X0369656Y0164230D01*
X0369848Y0164383D01*
X0370043Y0164532D01*
X0370242Y0164676D01*
X0370444Y0164815D01*
X0370650Y0164949D01*
X0370859Y0165077D01*
X0371071Y0165201D01*
X0371286Y0165319D01*
X0371504Y0165432D01*
X0371724Y0165540D01*
X0371948Y0165642D01*
X0372173Y0165739D01*
X0372401Y0165830D01*
X0372631Y0165915D01*
X0372863Y0165995D01*
X0373097Y0166069D01*
X0373333Y0166138D01*
X0373570Y0166200D01*
X0373809Y0166257D01*
X0374049Y0166308D01*
X0374290Y0166353D01*
X0374533Y0166392D01*
X0374776Y0166425D01*
X0375020Y0166452D01*
X0375264Y0166473D01*
X0375509Y0166488D01*
X0375755Y0166497D01*
X0376000Y0166500D01*
X0376245Y0166497D01*
X0376491Y0166488D01*
X0376736Y0166473D01*
X0376980Y0166452D01*
X0377224Y0166425D01*
X0377467Y0166392D01*
X0377710Y0166353D01*
X0377951Y0166308D01*
X0378191Y0166257D01*
X0378430Y0166200D01*
X0378667Y0166138D01*
X0378903Y0166069D01*
X0379137Y0165995D01*
X0379369Y0165915D01*
X0379599Y0165830D01*
X0379827Y0165739D01*
X0380052Y0165642D01*
X0380276Y0165540D01*
X0380496Y0165432D01*
X0380714Y0165319D01*
X0380929Y0165201D01*
X0381141Y0165077D01*
X0381350Y0164949D01*
X0381556Y0164815D01*
X0381758Y0164676D01*
X0381957Y0164532D01*
X0382152Y0164383D01*
X0382344Y0164230D01*
X0382532Y0164072D01*
X0382716Y0163910D01*
X0382895Y0163742D01*
X0383071Y0163571D01*
X0383242Y0163395D01*
X0383410Y0163216D01*
X0383572Y0163032D01*
X0383730Y0162844D01*
X0383883Y0162652D01*
X0384032Y0162457D01*
X0384176Y0162258D01*
X0384315Y0162056D01*
X0384449Y0161850D01*
X0384577Y0161641D01*
X0384701Y0161429D01*
X0384819Y0161214D01*
X0384932Y0160996D01*
X0385040Y0160776D01*
X0385142Y0160552D01*
X0385239Y0160327D01*
X0385330Y0160099D01*
X0385415Y0159869D01*
X0385495Y0159637D01*
X0385569Y0159403D01*
X0385638Y0159167D01*
X0385700Y0158930D01*
X0385757Y0158691D01*
X0385808Y0158451D01*
X0385853Y0158210D01*
X0385892Y0157967D01*
X0385925Y0157724D01*
X0385952Y0157480D01*
X0385973Y0157236D01*
X0385988Y0156991D01*
X0385997Y0156745D01*
X0386000Y0156500D01*
X0385997Y0156255D01*
X0385988Y0156009D01*
X0385973Y0155764D01*
X0385952Y0155520D01*
X0385925Y0155276D01*
X0385892Y0155033D01*
X0385853Y0154790D01*
X0385808Y0154549D01*
X0385757Y0154309D01*
X0385700Y0154070D01*
X0385638Y0153833D01*
X0385569Y0153597D01*
X0385495Y0153363D01*
X0385415Y0153131D01*
X0385330Y0152901D01*
X0385239Y0152673D01*
X0385142Y0152448D01*
X0385040Y0152224D01*
X0384932Y0152004D01*
X0384819Y0151786D01*
X0384701Y0151571D01*
X0384577Y0151359D01*
X0384449Y0151150D01*
X0384315Y0150944D01*
X0384176Y0150742D01*
X0384032Y0150543D01*
X0383883Y0150348D01*
X0383730Y0150156D01*
X0383572Y0149968D01*
X0383410Y0149784D01*
X0383242Y0149605D01*
X0383071Y0149429D01*
X0382895Y0149258D01*
X0382716Y0149090D01*
X0382532Y0148928D01*
X0382344Y0148770D01*
X0382152Y0148617D01*
X0381957Y0148468D01*
X0381758Y0148324D01*
X0381556Y0148185D01*
X0381350Y0148051D01*
X0381141Y0147923D01*
X0380929Y0147799D01*
X0380714Y0147681D01*
X0380496Y0147568D01*
X0380276Y0147460D01*
X0380052Y0147358D01*
X0379827Y0147261D01*
X0379599Y0147170D01*
X0379369Y0147085D01*
X0379137Y0147005D01*
X0378903Y0146931D01*
X0378667Y0146862D01*
X0378430Y0146800D01*
X0378191Y0146743D01*
X0377951Y0146692D01*
X0377710Y0146647D01*
X0377467Y0146608D01*
X0377224Y0146575D01*
X0376980Y0146548D01*
X0376736Y0146527D01*
X0376491Y0146512D01*
X0376245Y0146503D01*
X0376000Y0146500D01*
X0375755Y0146503D01*
X0375509Y0146512D01*
X0375264Y0146527D01*
X0375020Y0146548D01*
X0374776Y0146575D01*
X0374533Y0146608D01*
X0374290Y0146647D01*
X0374049Y0146692D01*
X0373809Y0146743D01*
X0373570Y0146800D01*
X0373333Y0146862D01*
X0373097Y0146931D01*
X0372863Y0147005D01*
X0372631Y0147085D01*
X0372401Y0147170D01*
X0372173Y0147261D01*
X0371948Y0147358D01*
X0371724Y0147460D01*
X0371504Y0147568D01*
X0371286Y0147681D01*
X0371071Y0147799D01*
X0370859Y0147923D01*
X0370650Y0148051D01*
X0370444Y0148185D01*
X0370242Y0148324D01*
X0370043Y0148468D01*
X0369848Y0148617D01*
X0369656Y0148770D01*
X0369468Y0148928D01*
X0369284Y0149090D01*
X0369105Y0149258D01*
X0368929Y0149429D01*
X0368758Y0149605D01*
X0368590Y0149784D01*
X0368428Y0149968D01*
X0368270Y0150156D01*
X0368117Y0150348D01*
X0367968Y0150543D01*
X0367824Y0150742D01*
X0367685Y0150944D01*
X0367551Y0151150D01*
X0367423Y0151359D01*
X0367299Y0151571D01*
X0367181Y0151786D01*
X0367068Y0152004D01*
X0366960Y0152224D01*
X0366858Y0152448D01*
X0366761Y0152673D01*
X0366670Y0152901D01*
X0366585Y0153131D01*
X0366505Y0153363D01*
X0366431Y0153597D01*
X0366362Y0153833D01*
X0366300Y0154070D01*
X0366243Y0154309D01*
X0366192Y0154549D01*
X0366147Y0154790D01*
X0366108Y0155033D01*
X0366075Y0155276D01*
X0366048Y0155520D01*
X0366027Y0155764D01*
X0366012Y0156009D01*
X0366003Y0156255D01*
X0366000Y0156500D01*
X0351000Y0181500D02*
X0351003Y0181745D01*
X0351012Y0181991D01*
X0351027Y0182236D01*
X0351048Y0182480D01*
X0351075Y0182724D01*
X0351108Y0182967D01*
X0351147Y0183210D01*
X0351192Y0183451D01*
X0351243Y0183691D01*
X0351300Y0183930D01*
X0351362Y0184167D01*
X0351431Y0184403D01*
X0351505Y0184637D01*
X0351585Y0184869D01*
X0351670Y0185099D01*
X0351761Y0185327D01*
X0351858Y0185552D01*
X0351960Y0185776D01*
X0352068Y0185996D01*
X0352181Y0186214D01*
X0352299Y0186429D01*
X0352423Y0186641D01*
X0352551Y0186850D01*
X0352685Y0187056D01*
X0352824Y0187258D01*
X0352968Y0187457D01*
X0353117Y0187652D01*
X0353270Y0187844D01*
X0353428Y0188032D01*
X0353590Y0188216D01*
X0353758Y0188395D01*
X0353929Y0188571D01*
X0354105Y0188742D01*
X0354284Y0188910D01*
X0354468Y0189072D01*
X0354656Y0189230D01*
X0354848Y0189383D01*
X0355043Y0189532D01*
X0355242Y0189676D01*
X0355444Y0189815D01*
X0355650Y0189949D01*
X0355859Y0190077D01*
X0356071Y0190201D01*
X0356286Y0190319D01*
X0356504Y0190432D01*
X0356724Y0190540D01*
X0356948Y0190642D01*
X0357173Y0190739D01*
X0357401Y0190830D01*
X0357631Y0190915D01*
X0357863Y0190995D01*
X0358097Y0191069D01*
X0358333Y0191138D01*
X0358570Y0191200D01*
X0358809Y0191257D01*
X0359049Y0191308D01*
X0359290Y0191353D01*
X0359533Y0191392D01*
X0359776Y0191425D01*
X0360020Y0191452D01*
X0360264Y0191473D01*
X0360509Y0191488D01*
X0360755Y0191497D01*
X0361000Y0191500D01*
X0361245Y0191497D01*
X0361491Y0191488D01*
X0361736Y0191473D01*
X0361980Y0191452D01*
X0362224Y0191425D01*
X0362467Y0191392D01*
X0362710Y0191353D01*
X0362951Y0191308D01*
X0363191Y0191257D01*
X0363430Y0191200D01*
X0363667Y0191138D01*
X0363903Y0191069D01*
X0364137Y0190995D01*
X0364369Y0190915D01*
X0364599Y0190830D01*
X0364827Y0190739D01*
X0365052Y0190642D01*
X0365276Y0190540D01*
X0365496Y0190432D01*
X0365714Y0190319D01*
X0365929Y0190201D01*
X0366141Y0190077D01*
X0366350Y0189949D01*
X0366556Y0189815D01*
X0366758Y0189676D01*
X0366957Y0189532D01*
X0367152Y0189383D01*
X0367344Y0189230D01*
X0367532Y0189072D01*
X0367716Y0188910D01*
X0367895Y0188742D01*
X0368071Y0188571D01*
X0368242Y0188395D01*
X0368410Y0188216D01*
X0368572Y0188032D01*
X0368730Y0187844D01*
X0368883Y0187652D01*
X0369032Y0187457D01*
X0369176Y0187258D01*
X0369315Y0187056D01*
X0369449Y0186850D01*
X0369577Y0186641D01*
X0369701Y0186429D01*
X0369819Y0186214D01*
X0369932Y0185996D01*
X0370040Y0185776D01*
X0370142Y0185552D01*
X0370239Y0185327D01*
X0370330Y0185099D01*
X0370415Y0184869D01*
X0370495Y0184637D01*
X0370569Y0184403D01*
X0370638Y0184167D01*
X0370700Y0183930D01*
X0370757Y0183691D01*
X0370808Y0183451D01*
X0370853Y0183210D01*
X0370892Y0182967D01*
X0370925Y0182724D01*
X0370952Y0182480D01*
X0370973Y0182236D01*
X0370988Y0181991D01*
X0370997Y0181745D01*
X0371000Y0181500D01*
X0370997Y0181255D01*
X0370988Y0181009D01*
X0370973Y0180764D01*
X0370952Y0180520D01*
X0370925Y0180276D01*
X0370892Y0180033D01*
X0370853Y0179790D01*
X0370808Y0179549D01*
X0370757Y0179309D01*
X0370700Y0179070D01*
X0370638Y0178833D01*
X0370569Y0178597D01*
X0370495Y0178363D01*
X0370415Y0178131D01*
X0370330Y0177901D01*
X0370239Y0177673D01*
X0370142Y0177448D01*
X0370040Y0177224D01*
X0369932Y0177004D01*
X0369819Y0176786D01*
X0369701Y0176571D01*
X0369577Y0176359D01*
X0369449Y0176150D01*
X0369315Y0175944D01*
X0369176Y0175742D01*
X0369032Y0175543D01*
X0368883Y0175348D01*
X0368730Y0175156D01*
X0368572Y0174968D01*
X0368410Y0174784D01*
X0368242Y0174605D01*
X0368071Y0174429D01*
X0367895Y0174258D01*
X0367716Y0174090D01*
X0367532Y0173928D01*
X0367344Y0173770D01*
X0367152Y0173617D01*
X0366957Y0173468D01*
X0366758Y0173324D01*
X0366556Y0173185D01*
X0366350Y0173051D01*
X0366141Y0172923D01*
X0365929Y0172799D01*
X0365714Y0172681D01*
X0365496Y0172568D01*
X0365276Y0172460D01*
X0365052Y0172358D01*
X0364827Y0172261D01*
X0364599Y0172170D01*
X0364369Y0172085D01*
X0364137Y0172005D01*
X0363903Y0171931D01*
X0363667Y0171862D01*
X0363430Y0171800D01*
X0363191Y0171743D01*
X0362951Y0171692D01*
X0362710Y0171647D01*
X0362467Y0171608D01*
X0362224Y0171575D01*
X0361980Y0171548D01*
X0361736Y0171527D01*
X0361491Y0171512D01*
X0361245Y0171503D01*
X0361000Y0171500D01*
X0360755Y0171503D01*
X0360509Y0171512D01*
X0360264Y0171527D01*
X0360020Y0171548D01*
X0359776Y0171575D01*
X0359533Y0171608D01*
X0359290Y0171647D01*
X0359049Y0171692D01*
X0358809Y0171743D01*
X0358570Y0171800D01*
X0358333Y0171862D01*
X0358097Y0171931D01*
X0357863Y0172005D01*
X0357631Y0172085D01*
X0357401Y0172170D01*
X0357173Y0172261D01*
X0356948Y0172358D01*
X0356724Y0172460D01*
X0356504Y0172568D01*
X0356286Y0172681D01*
X0356071Y0172799D01*
X0355859Y0172923D01*
X0355650Y0173051D01*
X0355444Y0173185D01*
X0355242Y0173324D01*
X0355043Y0173468D01*
X0354848Y0173617D01*
X0354656Y0173770D01*
X0354468Y0173928D01*
X0354284Y0174090D01*
X0354105Y0174258D01*
X0353929Y0174429D01*
X0353758Y0174605D01*
X0353590Y0174784D01*
X0353428Y0174968D01*
X0353270Y0175156D01*
X0353117Y0175348D01*
X0352968Y0175543D01*
X0352824Y0175742D01*
X0352685Y0175944D01*
X0352551Y0176150D01*
X0352423Y0176359D01*
X0352299Y0176571D01*
X0352181Y0176786D01*
X0352068Y0177004D01*
X0351960Y0177224D01*
X0351858Y0177448D01*
X0351761Y0177673D01*
X0351670Y0177901D01*
X0351585Y0178131D01*
X0351505Y0178363D01*
X0351431Y0178597D01*
X0351362Y0178833D01*
X0351300Y0179070D01*
X0351243Y0179309D01*
X0351192Y0179549D01*
X0351147Y0179790D01*
X0351108Y0180033D01*
X0351075Y0180276D01*
X0351048Y0180520D01*
X0351027Y0180764D01*
X0351012Y0181009D01*
X0351003Y0181255D01*
X0351000Y0181500D01*
X0344500Y0054000D02*
X0337500Y0054000D01*
X0337440Y0053998D01*
X0337379Y0053993D01*
X0337320Y0053984D01*
X0337261Y0053971D01*
X0337202Y0053955D01*
X0337145Y0053935D01*
X0337090Y0053912D01*
X0337035Y0053885D01*
X0336983Y0053856D01*
X0336932Y0053823D01*
X0336883Y0053787D01*
X0336837Y0053749D01*
X0336793Y0053707D01*
X0336751Y0053663D01*
X0336713Y0053617D01*
X0336677Y0053568D01*
X0336644Y0053517D01*
X0336615Y0053465D01*
X0336588Y0053410D01*
X0336565Y0053355D01*
X0336545Y0053298D01*
X0336529Y0053239D01*
X0336516Y0053180D01*
X0336507Y0053121D01*
X0336502Y0053060D01*
X0336500Y0053000D01*
X0336500Y0051500D01*
X0337000Y0051000D01*
X0337000Y0032000D01*
X0336500Y0031500D01*
X0336500Y0030000D01*
X0336502Y0029940D01*
X0336507Y0029879D01*
X0336516Y0029820D01*
X0336529Y0029761D01*
X0336545Y0029702D01*
X0336565Y0029645D01*
X0336588Y0029590D01*
X0336615Y0029535D01*
X0336644Y0029483D01*
X0336677Y0029432D01*
X0336713Y0029383D01*
X0336751Y0029337D01*
X0336793Y0029293D01*
X0336837Y0029251D01*
X0336883Y0029213D01*
X0336932Y0029177D01*
X0336983Y0029144D01*
X0337035Y0029115D01*
X0337090Y0029088D01*
X0337145Y0029065D01*
X0337202Y0029045D01*
X0337261Y0029029D01*
X0337320Y0029016D01*
X0337379Y0029007D01*
X0337440Y0029002D01*
X0337500Y0029000D01*
X0344500Y0029000D01*
X0344560Y0029002D01*
X0344621Y0029007D01*
X0344680Y0029016D01*
X0344739Y0029029D01*
X0344798Y0029045D01*
X0344855Y0029065D01*
X0344910Y0029088D01*
X0344965Y0029115D01*
X0345017Y0029144D01*
X0345068Y0029177D01*
X0345117Y0029213D01*
X0345163Y0029251D01*
X0345207Y0029293D01*
X0345249Y0029337D01*
X0345287Y0029383D01*
X0345323Y0029432D01*
X0345356Y0029483D01*
X0345385Y0029535D01*
X0345412Y0029590D01*
X0345435Y0029645D01*
X0345455Y0029702D01*
X0345471Y0029761D01*
X0345484Y0029820D01*
X0345493Y0029879D01*
X0345498Y0029940D01*
X0345500Y0030000D01*
X0345500Y0031500D01*
X0345000Y0032000D01*
X0345000Y0051000D01*
X0345500Y0051500D01*
X0345500Y0053000D01*
X0345498Y0053060D01*
X0345493Y0053121D01*
X0345484Y0053180D01*
X0345471Y0053239D01*
X0345455Y0053298D01*
X0345435Y0053355D01*
X0345412Y0053410D01*
X0345385Y0053465D01*
X0345356Y0053517D01*
X0345323Y0053568D01*
X0345287Y0053617D01*
X0345249Y0053663D01*
X0345207Y0053707D01*
X0345163Y0053749D01*
X0345117Y0053787D01*
X0345068Y0053823D01*
X0345017Y0053856D01*
X0344965Y0053885D01*
X0344910Y0053912D01*
X0344855Y0053935D01*
X0344798Y0053955D01*
X0344739Y0053971D01*
X0344680Y0053984D01*
X0344621Y0053993D01*
X0344560Y0053998D01*
X0344500Y0054000D01*
X0113500Y0035500D02*
X0113500Y0033000D01*
X0106000Y0033000D01*
X0098500Y0033000D01*
X0098500Y0035500D01*
X0113500Y0035500D01*
X0073500Y0036500D02*
X0073510Y0037298D01*
X0073539Y0038095D01*
X0073588Y0038891D01*
X0073656Y0039686D01*
X0073744Y0040478D01*
X0073852Y0041269D01*
X0073978Y0042056D01*
X0074124Y0042840D01*
X0074290Y0043621D01*
X0074474Y0044397D01*
X0074677Y0045168D01*
X0074899Y0045934D01*
X0075140Y0046695D01*
X0075400Y0047449D01*
X0075678Y0048197D01*
X0075974Y0048937D01*
X0076288Y0049670D01*
X0076620Y0050396D01*
X0076970Y0051112D01*
X0077338Y0051820D01*
X0077722Y0052519D01*
X0078124Y0053208D01*
X0078542Y0053887D01*
X0078977Y0054556D01*
X0079428Y0055214D01*
X0079896Y0055860D01*
X0080379Y0056495D01*
X0080877Y0057118D01*
X0081391Y0057728D01*
X0081919Y0058326D01*
X0082462Y0058910D01*
X0083019Y0059481D01*
X0083590Y0060038D01*
X0084174Y0060581D01*
X0084772Y0061109D01*
X0085382Y0061623D01*
X0086005Y0062121D01*
X0086640Y0062604D01*
X0087286Y0063072D01*
X0087944Y0063523D01*
X0088613Y0063958D01*
X0089292Y0064376D01*
X0089981Y0064778D01*
X0090680Y0065162D01*
X0091388Y0065530D01*
X0092104Y0065880D01*
X0092830Y0066212D01*
X0093563Y0066526D01*
X0094303Y0066822D01*
X0095051Y0067100D01*
X0095805Y0067360D01*
X0096566Y0067601D01*
X0097332Y0067823D01*
X0098103Y0068026D01*
X0098879Y0068210D01*
X0099660Y0068376D01*
X0100444Y0068522D01*
X0101231Y0068648D01*
X0102022Y0068756D01*
X0102814Y0068844D01*
X0103609Y0068912D01*
X0104405Y0068961D01*
X0105202Y0068990D01*
X0106000Y0069000D01*
X0106798Y0068990D01*
X0107595Y0068961D01*
X0108391Y0068912D01*
X0109186Y0068844D01*
X0109978Y0068756D01*
X0110769Y0068648D01*
X0111556Y0068522D01*
X0112340Y0068376D01*
X0113121Y0068210D01*
X0113897Y0068026D01*
X0114668Y0067823D01*
X0115434Y0067601D01*
X0116195Y0067360D01*
X0116949Y0067100D01*
X0117697Y0066822D01*
X0118437Y0066526D01*
X0119170Y0066212D01*
X0119896Y0065880D01*
X0120612Y0065530D01*
X0121320Y0065162D01*
X0122019Y0064778D01*
X0122708Y0064376D01*
X0123387Y0063958D01*
X0124056Y0063523D01*
X0124714Y0063072D01*
X0125360Y0062604D01*
X0125995Y0062121D01*
X0126618Y0061623D01*
X0127228Y0061109D01*
X0127826Y0060581D01*
X0128410Y0060038D01*
X0128981Y0059481D01*
X0129538Y0058910D01*
X0130081Y0058326D01*
X0130609Y0057728D01*
X0131123Y0057118D01*
X0131621Y0056495D01*
X0132104Y0055860D01*
X0132572Y0055214D01*
X0133023Y0054556D01*
X0133458Y0053887D01*
X0133876Y0053208D01*
X0134278Y0052519D01*
X0134662Y0051820D01*
X0135030Y0051112D01*
X0135380Y0050396D01*
X0135712Y0049670D01*
X0136026Y0048937D01*
X0136322Y0048197D01*
X0136600Y0047449D01*
X0136860Y0046695D01*
X0137101Y0045934D01*
X0137323Y0045168D01*
X0137526Y0044397D01*
X0137710Y0043621D01*
X0137876Y0042840D01*
X0138022Y0042056D01*
X0138148Y0041269D01*
X0138256Y0040478D01*
X0138344Y0039686D01*
X0138412Y0038891D01*
X0138461Y0038095D01*
X0138490Y0037298D01*
X0138500Y0036500D01*
X0138490Y0035702D01*
X0138461Y0034905D01*
X0138412Y0034109D01*
X0138344Y0033314D01*
X0138256Y0032522D01*
X0138148Y0031731D01*
X0138022Y0030944D01*
X0137876Y0030160D01*
X0137710Y0029379D01*
X0137526Y0028603D01*
X0137323Y0027832D01*
X0137101Y0027066D01*
X0136860Y0026305D01*
X0136600Y0025551D01*
X0136322Y0024803D01*
X0136026Y0024063D01*
X0135712Y0023330D01*
X0135380Y0022604D01*
X0135030Y0021888D01*
X0134662Y0021180D01*
X0134278Y0020481D01*
X0133876Y0019792D01*
X0133458Y0019113D01*
X0133023Y0018444D01*
X0132572Y0017786D01*
X0132104Y0017140D01*
X0131621Y0016505D01*
X0131123Y0015882D01*
X0130609Y0015272D01*
X0130081Y0014674D01*
X0129538Y0014090D01*
X0128981Y0013519D01*
X0128410Y0012962D01*
X0127826Y0012419D01*
X0127228Y0011891D01*
X0126618Y0011377D01*
X0125995Y0010879D01*
X0125360Y0010396D01*
X0124714Y0009928D01*
X0124056Y0009477D01*
X0123387Y0009042D01*
X0122708Y0008624D01*
X0122019Y0008222D01*
X0121320Y0007838D01*
X0120612Y0007470D01*
X0119896Y0007120D01*
X0119170Y0006788D01*
X0118437Y0006474D01*
X0117697Y0006178D01*
X0116949Y0005900D01*
X0116195Y0005640D01*
X0115434Y0005399D01*
X0114668Y0005177D01*
X0113897Y0004974D01*
X0113121Y0004790D01*
X0112340Y0004624D01*
X0111556Y0004478D01*
X0110769Y0004352D01*
X0109978Y0004244D01*
X0109186Y0004156D01*
X0108391Y0004088D01*
X0107595Y0004039D01*
X0106798Y0004010D01*
X0106000Y0004000D01*
X0105202Y0004010D01*
X0104405Y0004039D01*
X0103609Y0004088D01*
X0102814Y0004156D01*
X0102022Y0004244D01*
X0101231Y0004352D01*
X0100444Y0004478D01*
X0099660Y0004624D01*
X0098879Y0004790D01*
X0098103Y0004974D01*
X0097332Y0005177D01*
X0096566Y0005399D01*
X0095805Y0005640D01*
X0095051Y0005900D01*
X0094303Y0006178D01*
X0093563Y0006474D01*
X0092830Y0006788D01*
X0092104Y0007120D01*
X0091388Y0007470D01*
X0090680Y0007838D01*
X0089981Y0008222D01*
X0089292Y0008624D01*
X0088613Y0009042D01*
X0087944Y0009477D01*
X0087286Y0009928D01*
X0086640Y0010396D01*
X0086005Y0010879D01*
X0085382Y0011377D01*
X0084772Y0011891D01*
X0084174Y0012419D01*
X0083590Y0012962D01*
X0083019Y0013519D01*
X0082462Y0014090D01*
X0081919Y0014674D01*
X0081391Y0015272D01*
X0080877Y0015882D01*
X0080379Y0016505D01*
X0079896Y0017140D01*
X0079428Y0017786D01*
X0078977Y0018444D01*
X0078542Y0019113D01*
X0078124Y0019792D01*
X0077722Y0020481D01*
X0077338Y0021180D01*
X0076970Y0021888D01*
X0076620Y0022604D01*
X0076288Y0023330D01*
X0075974Y0024063D01*
X0075678Y0024803D01*
X0075400Y0025551D01*
X0075140Y0026305D01*
X0074899Y0027066D01*
X0074677Y0027832D01*
X0074474Y0028603D01*
X0074290Y0029379D01*
X0074124Y0030160D01*
X0073978Y0030944D01*
X0073852Y0031731D01*
X0073744Y0032522D01*
X0073656Y0033314D01*
X0073588Y0034109D01*
X0073539Y0034905D01*
X0073510Y0035702D01*
X0073500Y0036500D01*
X0043500Y0043000D02*
X0036000Y0043000D01*
X0028500Y0043000D01*
X0028500Y0045500D01*
X0043500Y0045500D01*
X0043500Y0043000D01*
X0036000Y0043000D02*
X0036000Y0038500D01*
X0003500Y0046500D02*
X0003510Y0047298D01*
X0003539Y0048095D01*
X0003588Y0048891D01*
X0003656Y0049686D01*
X0003744Y0050478D01*
X0003852Y0051269D01*
X0003978Y0052056D01*
X0004124Y0052840D01*
X0004290Y0053621D01*
X0004474Y0054397D01*
X0004677Y0055168D01*
X0004899Y0055934D01*
X0005140Y0056695D01*
X0005400Y0057449D01*
X0005678Y0058197D01*
X0005974Y0058937D01*
X0006288Y0059670D01*
X0006620Y0060396D01*
X0006970Y0061112D01*
X0007338Y0061820D01*
X0007722Y0062519D01*
X0008124Y0063208D01*
X0008542Y0063887D01*
X0008977Y0064556D01*
X0009428Y0065214D01*
X0009896Y0065860D01*
X0010379Y0066495D01*
X0010877Y0067118D01*
X0011391Y0067728D01*
X0011919Y0068326D01*
X0012462Y0068910D01*
X0013019Y0069481D01*
X0013590Y0070038D01*
X0014174Y0070581D01*
X0014772Y0071109D01*
X0015382Y0071623D01*
X0016005Y0072121D01*
X0016640Y0072604D01*
X0017286Y0073072D01*
X0017944Y0073523D01*
X0018613Y0073958D01*
X0019292Y0074376D01*
X0019981Y0074778D01*
X0020680Y0075162D01*
X0021388Y0075530D01*
X0022104Y0075880D01*
X0022830Y0076212D01*
X0023563Y0076526D01*
X0024303Y0076822D01*
X0025051Y0077100D01*
X0025805Y0077360D01*
X0026566Y0077601D01*
X0027332Y0077823D01*
X0028103Y0078026D01*
X0028879Y0078210D01*
X0029660Y0078376D01*
X0030444Y0078522D01*
X0031231Y0078648D01*
X0032022Y0078756D01*
X0032814Y0078844D01*
X0033609Y0078912D01*
X0034405Y0078961D01*
X0035202Y0078990D01*
X0036000Y0079000D01*
X0036798Y0078990D01*
X0037595Y0078961D01*
X0038391Y0078912D01*
X0039186Y0078844D01*
X0039978Y0078756D01*
X0040769Y0078648D01*
X0041556Y0078522D01*
X0042340Y0078376D01*
X0043121Y0078210D01*
X0043897Y0078026D01*
X0044668Y0077823D01*
X0045434Y0077601D01*
X0046195Y0077360D01*
X0046949Y0077100D01*
X0047697Y0076822D01*
X0048437Y0076526D01*
X0049170Y0076212D01*
X0049896Y0075880D01*
X0050612Y0075530D01*
X0051320Y0075162D01*
X0052019Y0074778D01*
X0052708Y0074376D01*
X0053387Y0073958D01*
X0054056Y0073523D01*
X0054714Y0073072D01*
X0055360Y0072604D01*
X0055995Y0072121D01*
X0056618Y0071623D01*
X0057228Y0071109D01*
X0057826Y0070581D01*
X0058410Y0070038D01*
X0058981Y0069481D01*
X0059538Y0068910D01*
X0060081Y0068326D01*
X0060609Y0067728D01*
X0061123Y0067118D01*
X0061621Y0066495D01*
X0062104Y0065860D01*
X0062572Y0065214D01*
X0063023Y0064556D01*
X0063458Y0063887D01*
X0063876Y0063208D01*
X0064278Y0062519D01*
X0064662Y0061820D01*
X0065030Y0061112D01*
X0065380Y0060396D01*
X0065712Y0059670D01*
X0066026Y0058937D01*
X0066322Y0058197D01*
X0066600Y0057449D01*
X0066860Y0056695D01*
X0067101Y0055934D01*
X0067323Y0055168D01*
X0067526Y0054397D01*
X0067710Y0053621D01*
X0067876Y0052840D01*
X0068022Y0052056D01*
X0068148Y0051269D01*
X0068256Y0050478D01*
X0068344Y0049686D01*
X0068412Y0048891D01*
X0068461Y0048095D01*
X0068490Y0047298D01*
X0068500Y0046500D01*
X0068490Y0045702D01*
X0068461Y0044905D01*
X0068412Y0044109D01*
X0068344Y0043314D01*
X0068256Y0042522D01*
X0068148Y0041731D01*
X0068022Y0040944D01*
X0067876Y0040160D01*
X0067710Y0039379D01*
X0067526Y0038603D01*
X0067323Y0037832D01*
X0067101Y0037066D01*
X0066860Y0036305D01*
X0066600Y0035551D01*
X0066322Y0034803D01*
X0066026Y0034063D01*
X0065712Y0033330D01*
X0065380Y0032604D01*
X0065030Y0031888D01*
X0064662Y0031180D01*
X0064278Y0030481D01*
X0063876Y0029792D01*
X0063458Y0029113D01*
X0063023Y0028444D01*
X0062572Y0027786D01*
X0062104Y0027140D01*
X0061621Y0026505D01*
X0061123Y0025882D01*
X0060609Y0025272D01*
X0060081Y0024674D01*
X0059538Y0024090D01*
X0058981Y0023519D01*
X0058410Y0022962D01*
X0057826Y0022419D01*
X0057228Y0021891D01*
X0056618Y0021377D01*
X0055995Y0020879D01*
X0055360Y0020396D01*
X0054714Y0019928D01*
X0054056Y0019477D01*
X0053387Y0019042D01*
X0052708Y0018624D01*
X0052019Y0018222D01*
X0051320Y0017838D01*
X0050612Y0017470D01*
X0049896Y0017120D01*
X0049170Y0016788D01*
X0048437Y0016474D01*
X0047697Y0016178D01*
X0046949Y0015900D01*
X0046195Y0015640D01*
X0045434Y0015399D01*
X0044668Y0015177D01*
X0043897Y0014974D01*
X0043121Y0014790D01*
X0042340Y0014624D01*
X0041556Y0014478D01*
X0040769Y0014352D01*
X0039978Y0014244D01*
X0039186Y0014156D01*
X0038391Y0014088D01*
X0037595Y0014039D01*
X0036798Y0014010D01*
X0036000Y0014000D01*
X0035202Y0014010D01*
X0034405Y0014039D01*
X0033609Y0014088D01*
X0032814Y0014156D01*
X0032022Y0014244D01*
X0031231Y0014352D01*
X0030444Y0014478D01*
X0029660Y0014624D01*
X0028879Y0014790D01*
X0028103Y0014974D01*
X0027332Y0015177D01*
X0026566Y0015399D01*
X0025805Y0015640D01*
X0025051Y0015900D01*
X0024303Y0016178D01*
X0023563Y0016474D01*
X0022830Y0016788D01*
X0022104Y0017120D01*
X0021388Y0017470D01*
X0020680Y0017838D01*
X0019981Y0018222D01*
X0019292Y0018624D01*
X0018613Y0019042D01*
X0017944Y0019477D01*
X0017286Y0019928D01*
X0016640Y0020396D01*
X0016005Y0020879D01*
X0015382Y0021377D01*
X0014772Y0021891D01*
X0014174Y0022419D01*
X0013590Y0022962D01*
X0013019Y0023519D01*
X0012462Y0024090D01*
X0011919Y0024674D01*
X0011391Y0025272D01*
X0010877Y0025882D01*
X0010379Y0026505D01*
X0009896Y0027140D01*
X0009428Y0027786D01*
X0008977Y0028444D01*
X0008542Y0029113D01*
X0008124Y0029792D01*
X0007722Y0030481D01*
X0007338Y0031180D01*
X0006970Y0031888D01*
X0006620Y0032604D01*
X0006288Y0033330D01*
X0005974Y0034063D01*
X0005678Y0034803D01*
X0005400Y0035551D01*
X0005140Y0036305D01*
X0004899Y0037066D01*
X0004677Y0037832D01*
X0004474Y0038603D01*
X0004290Y0039379D01*
X0004124Y0040160D01*
X0003978Y0040944D01*
X0003852Y0041731D01*
X0003744Y0042522D01*
X0003656Y0043314D01*
X0003588Y0044109D01*
X0003539Y0044905D01*
X0003510Y0045702D01*
X0003500Y0046500D01*
X0036000Y0049000D02*
X0036000Y0054500D01*
X0036000Y0023000D02*
X0036000Y0017000D01*
X0039000Y0020000D02*
X0033000Y0020000D01*
X0103000Y0010000D02*
X0109000Y0010000D01*
X0106000Y0007000D02*
X0106000Y0013000D01*
X0106000Y0028500D02*
X0106000Y0033000D01*
X0106000Y0039000D02*
X0106000Y0044500D01*
X0053500Y0180500D02*
X0048500Y0180500D01*
X0045000Y0184000D01*
X0045000Y0189000D01*
X0048500Y0192500D01*
X0053500Y0192500D01*
X0057000Y0189000D01*
X0057000Y0184000D01*
X0053500Y0180500D01*
D12*
X0364700Y0128502D02*
X0367769Y0128502D01*
X0369304Y0129269D02*
X0370839Y0130804D01*
X0370839Y0126200D01*
X0372373Y0126200D02*
X0369304Y0126200D01*
X0373908Y0126200D02*
X0376977Y0129269D01*
X0376977Y0130037D01*
X0376210Y0130804D01*
X0374675Y0130804D01*
X0373908Y0130037D01*
X0373908Y0126200D02*
X0376977Y0126200D01*
D13*
X0383500Y0134000D02*
X0358500Y0134000D01*
X0358500Y0107000D01*
X0358500Y0101000D01*
X0357500Y0101000D01*
X0357500Y0092000D01*
X0353500Y0092000D01*
X0353500Y0139000D01*
X0388500Y0139000D01*
X0388500Y0029000D01*
X0353500Y0029000D01*
X0353500Y0076000D01*
X0357500Y0076000D01*
X0358500Y0076000D01*
X0358500Y0057000D01*
X0358500Y0051000D01*
X0357500Y0051000D01*
X0358500Y0051000D02*
X0358500Y0034000D01*
X0383500Y0034000D01*
X0383500Y0134000D01*
X0357500Y0135000D02*
X0357500Y0107000D01*
X0358500Y0107000D01*
X0358500Y0101000D02*
X0358500Y0092000D01*
X0357500Y0092000D01*
X0334750Y0102126D02*
X0334750Y0105129D01*
X0334750Y0103628D02*
X0330246Y0103628D01*
X0331747Y0102126D01*
X0338746Y0106607D02*
X0343250Y0106607D01*
X0343250Y0105106D02*
X0343250Y0108108D01*
X0342499Y0109709D02*
X0339497Y0109709D01*
X0338746Y0110460D01*
X0338746Y0111961D01*
X0339497Y0112712D01*
X0342499Y0109709D01*
X0343250Y0110460D01*
X0343250Y0111961D01*
X0342499Y0112712D01*
X0339497Y0112712D01*
X0338746Y0114313D02*
X0343250Y0114313D01*
X0341749Y0114313D02*
X0340247Y0116565D01*
X0341749Y0114313D02*
X0343250Y0116565D01*
X0334750Y0116689D02*
X0333999Y0115938D01*
X0330997Y0118941D01*
X0333999Y0118941D01*
X0334750Y0118190D01*
X0334750Y0116689D01*
X0333999Y0115938D02*
X0330997Y0115938D01*
X0330246Y0116689D01*
X0330246Y0118190D01*
X0330997Y0118941D01*
X0330997Y0120542D02*
X0330246Y0121293D01*
X0330246Y0122794D01*
X0330997Y0123545D01*
X0333999Y0120542D01*
X0334750Y0121293D01*
X0334750Y0122794D01*
X0333999Y0123545D01*
X0330997Y0123545D01*
X0332498Y0125146D02*
X0332498Y0128149D01*
X0330246Y0127398D02*
X0332498Y0125146D01*
X0334750Y0127398D02*
X0330246Y0127398D01*
X0334247Y0132126D02*
X0332746Y0133628D01*
X0337250Y0133628D01*
X0337250Y0135129D02*
X0337250Y0132126D01*
X0337250Y0136730D02*
X0332746Y0136730D01*
X0337250Y0139733D01*
X0332746Y0139733D01*
X0334998Y0141334D02*
X0334998Y0144337D01*
X0333497Y0145938D02*
X0332746Y0146689D01*
X0332746Y0148190D01*
X0333497Y0148941D01*
X0336499Y0145938D01*
X0337250Y0146689D01*
X0337250Y0148190D01*
X0336499Y0148941D01*
X0333497Y0148941D01*
X0333497Y0150542D02*
X0332746Y0151293D01*
X0332746Y0152794D01*
X0333497Y0153545D01*
X0336499Y0150542D01*
X0337250Y0151293D01*
X0337250Y0152794D01*
X0336499Y0153545D01*
X0333497Y0153545D01*
X0334998Y0155146D02*
X0334998Y0158149D01*
X0337250Y0157398D02*
X0332746Y0157398D01*
X0334998Y0155146D01*
X0336499Y0150542D02*
X0333497Y0150542D01*
X0333497Y0145938D02*
X0336499Y0145938D01*
X0337250Y0143586D02*
X0332746Y0143586D01*
X0334998Y0141334D01*
X0319750Y0141086D02*
X0315246Y0141086D01*
X0317498Y0138834D01*
X0317498Y0141837D01*
X0315997Y0143438D02*
X0315246Y0144189D01*
X0315246Y0145690D01*
X0315997Y0146441D01*
X0318999Y0143438D01*
X0319750Y0144189D01*
X0319750Y0145690D01*
X0318999Y0146441D01*
X0315997Y0146441D01*
X0315997Y0148042D02*
X0315246Y0148793D01*
X0315246Y0150294D01*
X0315997Y0151045D01*
X0318999Y0148042D01*
X0319750Y0148793D01*
X0319750Y0150294D01*
X0318999Y0151045D01*
X0315997Y0151045D01*
X0317498Y0152646D02*
X0317498Y0155649D01*
X0315246Y0154898D02*
X0317498Y0152646D01*
X0319750Y0154898D02*
X0315246Y0154898D01*
X0315997Y0148042D02*
X0318999Y0148042D01*
X0318999Y0143438D02*
X0315997Y0143438D01*
X0315246Y0137233D02*
X0319750Y0137233D01*
X0315246Y0134230D01*
X0319750Y0134230D01*
X0319750Y0132629D02*
X0319750Y0129626D01*
X0319750Y0131128D02*
X0315246Y0131128D01*
X0316747Y0129626D01*
X0312250Y0127356D02*
X0312250Y0124354D01*
X0312250Y0125855D02*
X0307746Y0125855D01*
X0309247Y0124354D01*
X0308497Y0122753D02*
X0309998Y0122753D01*
X0310749Y0122002D01*
X0310749Y0119750D01*
X0312250Y0119750D02*
X0307746Y0119750D01*
X0307746Y0122002D01*
X0308497Y0122753D01*
X0310749Y0121251D02*
X0312250Y0122753D01*
X0317246Y0121522D02*
X0319498Y0119270D01*
X0319498Y0122272D01*
X0321750Y0121522D02*
X0317246Y0121522D01*
X0317997Y0117668D02*
X0320999Y0114666D01*
X0321750Y0115416D01*
X0321750Y0116918D01*
X0320999Y0117668D01*
X0317997Y0117668D01*
X0317246Y0116918D01*
X0317246Y0115416D01*
X0317997Y0114666D01*
X0320999Y0114666D01*
X0320999Y0113064D02*
X0321750Y0112314D01*
X0321750Y0110812D01*
X0320999Y0110062D01*
X0317997Y0113064D01*
X0320999Y0113064D01*
X0317997Y0113064D02*
X0317246Y0112314D01*
X0317246Y0110812D01*
X0317997Y0110062D01*
X0320999Y0110062D01*
X0319498Y0108460D02*
X0319498Y0105458D01*
X0317246Y0107710D01*
X0321750Y0107710D01*
X0321750Y0103856D02*
X0317246Y0103856D01*
X0317246Y0100854D02*
X0321750Y0103856D01*
X0321750Y0100854D02*
X0317246Y0100854D01*
X0321750Y0099253D02*
X0321750Y0096250D01*
X0321750Y0097751D02*
X0317246Y0097751D01*
X0318747Y0096250D01*
X0338746Y0106607D02*
X0340247Y0105106D01*
X0334750Y0106730D02*
X0330246Y0106730D01*
X0334750Y0109733D01*
X0330246Y0109733D01*
X0332498Y0111334D02*
X0332498Y0114337D01*
X0330246Y0113586D02*
X0332498Y0111334D01*
X0334750Y0113586D02*
X0330246Y0113586D01*
X0330997Y0120542D02*
X0333999Y0120542D01*
X0298250Y0111565D02*
X0296749Y0109313D01*
X0295247Y0111565D01*
X0293746Y0109313D02*
X0298250Y0109313D01*
X0298250Y0107712D02*
X0298250Y0104709D01*
X0298250Y0106211D02*
X0293746Y0106211D01*
X0295247Y0104709D01*
X0272750Y0106001D02*
X0271999Y0105250D01*
X0272750Y0106001D02*
X0272750Y0107502D01*
X0271999Y0108253D01*
X0271249Y0108253D01*
X0270498Y0107502D01*
X0270498Y0106751D01*
X0270498Y0107502D02*
X0269747Y0108253D01*
X0268997Y0108253D01*
X0268246Y0107502D01*
X0268246Y0106001D01*
X0268997Y0105250D01*
X0265250Y0111750D02*
X0265250Y0114753D01*
X0265250Y0113251D02*
X0260746Y0113251D01*
X0262247Y0111750D01*
X0261497Y0116354D02*
X0260746Y0117105D01*
X0260746Y0118606D01*
X0261497Y0119356D01*
X0264499Y0116354D01*
X0265250Y0117105D01*
X0265250Y0118606D01*
X0264499Y0119356D01*
X0261497Y0119356D01*
X0260746Y0120958D02*
X0265250Y0120958D01*
X0263749Y0120958D02*
X0262247Y0123210D01*
X0263749Y0120958D02*
X0265250Y0123210D01*
X0265854Y0127550D02*
X0268856Y0127550D01*
X0267355Y0127550D02*
X0267355Y0132054D01*
X0265854Y0130553D01*
X0264253Y0129802D02*
X0261250Y0129802D01*
X0262751Y0131303D02*
X0262751Y0128301D01*
X0270458Y0127550D02*
X0273460Y0130553D01*
X0273460Y0131303D01*
X0272710Y0132054D01*
X0271208Y0132054D01*
X0270458Y0131303D01*
X0270458Y0127550D02*
X0273460Y0127550D01*
X0275062Y0126799D02*
X0278064Y0126799D01*
X0279666Y0127550D02*
X0279666Y0130553D01*
X0281167Y0132054D01*
X0282668Y0130553D01*
X0282668Y0127550D01*
X0284270Y0127550D02*
X0286522Y0127550D01*
X0287272Y0128301D01*
X0287272Y0131303D01*
X0286522Y0132054D01*
X0284270Y0132054D01*
X0284270Y0127550D01*
X0282668Y0129802D02*
X0279666Y0129802D01*
X0288874Y0128301D02*
X0289624Y0127550D01*
X0290375Y0127550D01*
X0291125Y0128301D01*
X0291125Y0132054D01*
X0290375Y0132054D02*
X0291876Y0132054D01*
X0289750Y0138750D02*
X0289750Y0141753D01*
X0289750Y0140251D02*
X0285246Y0140251D01*
X0286747Y0138750D01*
X0285997Y0143354D02*
X0285246Y0144105D01*
X0285246Y0145606D01*
X0285997Y0146356D01*
X0288999Y0143354D01*
X0289750Y0144105D01*
X0289750Y0145606D01*
X0288999Y0146356D01*
X0285997Y0146356D01*
X0286747Y0147958D02*
X0288999Y0147958D01*
X0289750Y0148708D01*
X0289750Y0150960D01*
X0286747Y0150960D01*
X0287498Y0152562D02*
X0287498Y0154063D01*
X0285246Y0152562D02*
X0285246Y0155564D01*
X0285246Y0152562D02*
X0289750Y0152562D01*
X0295247Y0157850D02*
X0293746Y0159351D01*
X0298250Y0159351D01*
X0298250Y0157850D02*
X0298250Y0160853D01*
X0298250Y0162454D02*
X0293746Y0162454D01*
X0295247Y0164706D02*
X0296749Y0162454D01*
X0298250Y0164706D01*
X0288750Y0166206D02*
X0288750Y0169208D01*
X0288750Y0167707D02*
X0284246Y0167707D01*
X0285747Y0166206D01*
X0281250Y0165647D02*
X0276746Y0165647D01*
X0278247Y0164146D01*
X0281250Y0164146D02*
X0281250Y0167149D01*
X0284997Y0170809D02*
X0284246Y0171560D01*
X0284246Y0173061D01*
X0284997Y0173812D01*
X0287999Y0170809D01*
X0288750Y0171560D01*
X0288750Y0173061D01*
X0287999Y0173812D01*
X0284997Y0173812D01*
X0284246Y0175413D02*
X0288750Y0175413D01*
X0287249Y0175413D02*
X0285747Y0177665D01*
X0287249Y0175413D02*
X0288750Y0177665D01*
X0281250Y0175898D02*
X0281250Y0174397D01*
X0280499Y0173646D01*
X0278998Y0175147D02*
X0278998Y0175898D01*
X0279749Y0176649D01*
X0280499Y0176649D01*
X0281250Y0175898D01*
X0278998Y0175898D02*
X0278247Y0176649D01*
X0277497Y0176649D01*
X0276746Y0175898D01*
X0276746Y0174397D01*
X0277497Y0173646D01*
X0284997Y0170809D02*
X0287999Y0170809D01*
X0286794Y0188450D02*
X0287545Y0189201D01*
X0287545Y0192203D01*
X0286794Y0192954D01*
X0284542Y0192954D01*
X0284542Y0188450D01*
X0286794Y0188450D01*
X0289146Y0189201D02*
X0289897Y0188450D01*
X0290647Y0188450D01*
X0291398Y0189201D01*
X0291398Y0192954D01*
X0290647Y0192954D02*
X0292149Y0192954D01*
X0282941Y0191453D02*
X0282941Y0188450D01*
X0282941Y0190702D02*
X0279938Y0190702D01*
X0279938Y0191453D02*
X0279938Y0188450D01*
X0278337Y0187699D02*
X0275334Y0187699D01*
X0273733Y0188450D02*
X0270730Y0188450D01*
X0273733Y0191453D01*
X0273733Y0192203D01*
X0272982Y0192954D01*
X0271481Y0192954D01*
X0270730Y0192203D01*
X0267628Y0192954D02*
X0267628Y0188450D01*
X0269129Y0188450D02*
X0266126Y0188450D01*
X0264525Y0190702D02*
X0261522Y0190702D01*
X0266126Y0191453D02*
X0267628Y0192954D01*
X0279938Y0191453D02*
X0281439Y0192954D01*
X0282941Y0191453D01*
X0247498Y0173149D02*
X0247498Y0170146D01*
X0245246Y0172398D01*
X0249750Y0172398D01*
X0248999Y0168545D02*
X0245997Y0168545D01*
X0248999Y0165542D01*
X0249750Y0166293D01*
X0249750Y0167794D01*
X0248999Y0168545D01*
X0245997Y0168545D02*
X0245246Y0167794D01*
X0245246Y0166293D01*
X0245997Y0165542D01*
X0248999Y0165542D01*
X0248999Y0163941D02*
X0245997Y0163941D01*
X0248999Y0160938D01*
X0249750Y0161689D01*
X0249750Y0163190D01*
X0248999Y0163941D01*
X0245997Y0163941D02*
X0245246Y0163190D01*
X0245246Y0161689D01*
X0245997Y0160938D01*
X0248999Y0160938D01*
X0247498Y0159337D02*
X0247498Y0156334D01*
X0245246Y0158586D01*
X0249750Y0158586D01*
X0249750Y0154733D02*
X0245246Y0154733D01*
X0245246Y0151730D02*
X0249750Y0154733D01*
X0249750Y0151730D02*
X0245246Y0151730D01*
X0249750Y0150129D02*
X0249750Y0147126D01*
X0249750Y0148628D02*
X0245246Y0148628D01*
X0246747Y0147126D01*
X0224050Y0161750D02*
X0219546Y0161750D01*
X0224050Y0161750D02*
X0224050Y0164753D01*
X0224050Y0166354D02*
X0219546Y0166354D01*
X0221047Y0167855D01*
X0219546Y0169356D01*
X0224050Y0169356D01*
X0223299Y0170958D02*
X0224050Y0171708D01*
X0224050Y0173210D01*
X0223299Y0173960D01*
X0222549Y0173960D01*
X0221798Y0173210D01*
X0221798Y0172459D01*
X0221798Y0173210D02*
X0221047Y0173960D01*
X0220297Y0173960D01*
X0219546Y0173210D01*
X0219546Y0171708D01*
X0220297Y0170958D01*
X0220297Y0175562D02*
X0219546Y0176312D01*
X0219546Y0177814D01*
X0220297Y0178564D01*
X0221047Y0178564D01*
X0221798Y0177814D01*
X0222549Y0178564D01*
X0223299Y0178564D01*
X0224050Y0177814D01*
X0224050Y0176312D01*
X0223299Y0175562D01*
X0221798Y0177063D02*
X0221798Y0177814D01*
X0223299Y0180166D02*
X0224050Y0180166D01*
X0223299Y0180166D02*
X0220297Y0183168D01*
X0219546Y0183168D01*
X0219546Y0180166D01*
X0191168Y0172754D02*
X0188166Y0172754D01*
X0188166Y0168250D01*
X0186564Y0168250D02*
X0186564Y0170502D01*
X0185814Y0171253D01*
X0183562Y0171253D01*
X0183562Y0168250D01*
X0181960Y0169001D02*
X0181210Y0168250D01*
X0179708Y0168250D01*
X0178958Y0169001D01*
X0181960Y0172003D01*
X0181960Y0169001D01*
X0178958Y0169001D02*
X0178958Y0172003D01*
X0179708Y0172754D01*
X0181210Y0172754D01*
X0181960Y0172003D01*
X0177356Y0172003D02*
X0174354Y0169001D01*
X0175105Y0168250D01*
X0176606Y0168250D01*
X0177356Y0169001D01*
X0177356Y0172003D01*
X0176606Y0172754D01*
X0175105Y0172754D01*
X0174354Y0172003D01*
X0174354Y0169001D01*
X0172753Y0168250D02*
X0169750Y0168250D01*
X0171251Y0168250D02*
X0171251Y0172754D01*
X0169750Y0171253D01*
X0188166Y0170502D02*
X0189667Y0170502D01*
X0137649Y0187250D02*
X0134646Y0187250D01*
X0136147Y0187250D02*
X0136147Y0191754D01*
X0134646Y0190253D01*
X0133045Y0191754D02*
X0130042Y0191754D01*
X0130042Y0187250D01*
X0130042Y0189502D02*
X0131543Y0189502D01*
X0128441Y0191754D02*
X0125438Y0191754D01*
X0126939Y0191754D02*
X0126939Y0187250D01*
X0090064Y0190754D02*
X0087062Y0190754D01*
X0088563Y0190754D02*
X0088563Y0186250D01*
X0085460Y0187001D02*
X0084710Y0186250D01*
X0083208Y0186250D01*
X0082458Y0187001D01*
X0082458Y0190003D01*
X0083208Y0190754D01*
X0084710Y0190754D01*
X0085460Y0190003D01*
X0080856Y0190754D02*
X0077854Y0190754D01*
X0077854Y0186250D01*
X0077854Y0188502D02*
X0079355Y0188502D01*
X0076253Y0190754D02*
X0073250Y0190754D01*
X0074751Y0190754D02*
X0074751Y0186250D01*
X0040460Y0186250D02*
X0037458Y0186250D01*
X0040460Y0189253D01*
X0040460Y0190003D01*
X0039710Y0190754D01*
X0038208Y0190754D01*
X0037458Y0190003D01*
X0035856Y0190754D02*
X0032854Y0190754D01*
X0032854Y0186250D01*
X0032854Y0188502D02*
X0034355Y0188502D01*
X0031253Y0190754D02*
X0028250Y0190754D01*
X0029751Y0190754D02*
X0029751Y0186250D01*
X0060628Y0147254D02*
X0060628Y0142750D01*
X0062129Y0142750D02*
X0059126Y0142750D01*
X0063730Y0142750D02*
X0063730Y0147254D01*
X0066733Y0142750D01*
X0066733Y0147254D01*
X0068334Y0145002D02*
X0071337Y0145002D01*
X0072938Y0146503D02*
X0073689Y0147254D01*
X0075190Y0147254D01*
X0075941Y0146503D01*
X0072938Y0143501D01*
X0073689Y0142750D01*
X0075190Y0142750D01*
X0075941Y0143501D01*
X0075941Y0146503D01*
X0077542Y0146503D02*
X0078293Y0147254D01*
X0079794Y0147254D01*
X0080545Y0146503D01*
X0077542Y0143501D01*
X0078293Y0142750D01*
X0079794Y0142750D01*
X0080545Y0143501D01*
X0080545Y0146503D01*
X0082146Y0145002D02*
X0085149Y0145002D01*
X0084398Y0147254D02*
X0082146Y0145002D01*
X0084398Y0142750D02*
X0084398Y0147254D01*
X0077542Y0146503D02*
X0077542Y0143501D01*
X0072938Y0143501D02*
X0072938Y0146503D01*
X0070586Y0147254D02*
X0068334Y0145002D01*
X0070586Y0142750D02*
X0070586Y0147254D01*
X0060628Y0147254D02*
X0059126Y0145753D01*
X0113250Y0146253D02*
X0114751Y0147754D01*
X0114751Y0143250D01*
X0113250Y0143250D02*
X0116253Y0143250D01*
X0117854Y0143250D02*
X0117854Y0147754D01*
X0120856Y0143250D01*
X0120856Y0147754D01*
X0122458Y0145502D02*
X0125460Y0145502D01*
X0127062Y0144001D02*
X0127062Y0147003D01*
X0127812Y0147754D01*
X0129314Y0147754D01*
X0130064Y0147003D01*
X0127062Y0144001D01*
X0127812Y0143250D01*
X0129314Y0143250D01*
X0130064Y0144001D01*
X0130064Y0147003D01*
X0131666Y0147003D02*
X0132416Y0147754D01*
X0133918Y0147754D01*
X0134668Y0147003D01*
X0131666Y0144001D01*
X0132416Y0143250D01*
X0133918Y0143250D01*
X0134668Y0144001D01*
X0134668Y0147003D01*
X0136270Y0145502D02*
X0139272Y0145502D01*
X0138522Y0143250D02*
X0138522Y0147754D01*
X0136270Y0145502D01*
X0131666Y0144001D02*
X0131666Y0147003D01*
X0124710Y0147754D02*
X0124710Y0143250D01*
X0122458Y0145502D02*
X0124710Y0147754D01*
X0219946Y0114398D02*
X0219946Y0112897D01*
X0220697Y0112146D01*
X0222198Y0110545D02*
X0222198Y0107542D01*
X0220697Y0105941D02*
X0219946Y0105941D01*
X0219946Y0102938D01*
X0220697Y0105941D02*
X0223699Y0102938D01*
X0224450Y0102938D01*
X0224450Y0101337D02*
X0224450Y0098334D01*
X0224450Y0099836D02*
X0219946Y0099836D01*
X0221447Y0098334D01*
X0221447Y0096733D02*
X0222198Y0095982D01*
X0222949Y0096733D01*
X0223699Y0096733D01*
X0224450Y0095982D01*
X0224450Y0094481D01*
X0223699Y0093730D01*
X0224450Y0092129D02*
X0219946Y0092129D01*
X0221447Y0090628D01*
X0219946Y0089126D01*
X0224450Y0089126D01*
X0224450Y0087525D02*
X0224450Y0084522D01*
X0219946Y0084522D01*
X0220697Y0093730D02*
X0219946Y0094481D01*
X0219946Y0095982D01*
X0220697Y0096733D01*
X0221447Y0096733D01*
X0222198Y0095982D02*
X0222198Y0095232D01*
X0245246Y0096086D02*
X0247498Y0093834D01*
X0247498Y0096837D01*
X0245997Y0098438D02*
X0245246Y0099189D01*
X0245246Y0100690D01*
X0245997Y0101441D01*
X0248999Y0098438D01*
X0249750Y0099189D01*
X0249750Y0100690D01*
X0248999Y0101441D01*
X0245997Y0101441D01*
X0245997Y0103042D02*
X0245246Y0103793D01*
X0245246Y0105294D01*
X0245997Y0106045D01*
X0248999Y0103042D01*
X0249750Y0103793D01*
X0249750Y0105294D01*
X0248999Y0106045D01*
X0245997Y0106045D01*
X0247498Y0107646D02*
X0247498Y0110649D01*
X0245246Y0109898D02*
X0247498Y0107646D01*
X0249750Y0109898D02*
X0245246Y0109898D01*
X0245997Y0103042D02*
X0248999Y0103042D01*
X0248999Y0098438D02*
X0245997Y0098438D01*
X0245246Y0096086D02*
X0249750Y0096086D01*
X0249750Y0092233D02*
X0245246Y0092233D01*
X0245246Y0089230D02*
X0249750Y0092233D01*
X0249750Y0089230D02*
X0245246Y0089230D01*
X0249750Y0087629D02*
X0249750Y0084626D01*
X0249750Y0086128D02*
X0245246Y0086128D01*
X0246747Y0084626D01*
X0262246Y0087646D02*
X0262246Y0090649D01*
X0264498Y0089147D02*
X0264498Y0087646D01*
X0263747Y0086045D02*
X0266750Y0086045D01*
X0266750Y0083793D01*
X0265999Y0083042D01*
X0263747Y0083042D01*
X0262997Y0081441D02*
X0265999Y0078438D01*
X0266750Y0079189D01*
X0266750Y0080690D01*
X0265999Y0081441D01*
X0262997Y0081441D01*
X0262246Y0080690D01*
X0262246Y0079189D01*
X0262997Y0078438D01*
X0265999Y0078438D01*
X0266750Y0076837D02*
X0266750Y0073834D01*
X0266750Y0075336D02*
X0262246Y0075336D01*
X0263747Y0073834D01*
X0285334Y0067253D02*
X0286836Y0068754D01*
X0286836Y0064250D01*
X0288337Y0064250D02*
X0285334Y0064250D01*
X0289938Y0065001D02*
X0292941Y0068003D01*
X0292941Y0065001D01*
X0292190Y0064250D01*
X0290689Y0064250D01*
X0289938Y0065001D01*
X0289938Y0068003D01*
X0290689Y0068754D01*
X0292190Y0068754D01*
X0292941Y0068003D01*
X0294542Y0067253D02*
X0294542Y0065001D01*
X0295293Y0064250D01*
X0297545Y0064250D01*
X0297545Y0067253D01*
X0299146Y0066502D02*
X0300647Y0066502D01*
X0299146Y0068754D02*
X0302149Y0068754D01*
X0299146Y0068754D02*
X0299146Y0064250D01*
X0315246Y0063190D02*
X0315246Y0061689D01*
X0315997Y0060938D01*
X0318999Y0060938D01*
X0315997Y0063941D01*
X0318999Y0063941D01*
X0319750Y0063190D01*
X0319750Y0061689D01*
X0318999Y0060938D01*
X0317498Y0059337D02*
X0317498Y0056334D01*
X0315246Y0058586D01*
X0319750Y0058586D01*
X0319750Y0054733D02*
X0315246Y0054733D01*
X0315246Y0051730D02*
X0319750Y0054733D01*
X0319750Y0051730D02*
X0315246Y0051730D01*
X0315246Y0048628D02*
X0319750Y0048628D01*
X0319750Y0050129D02*
X0319750Y0047126D01*
X0316747Y0047126D02*
X0315246Y0048628D01*
X0329746Y0048856D02*
X0334250Y0048856D01*
X0329746Y0045854D01*
X0334250Y0045854D01*
X0334250Y0044253D02*
X0334250Y0041250D01*
X0334250Y0042751D02*
X0329746Y0042751D01*
X0331247Y0041250D01*
X0338746Y0041291D02*
X0338746Y0044293D01*
X0339497Y0044293D01*
X0342499Y0041291D01*
X0343250Y0041291D01*
X0343250Y0039706D02*
X0341749Y0037454D01*
X0340247Y0039706D01*
X0338746Y0037454D02*
X0343250Y0037454D01*
X0343250Y0035102D02*
X0338746Y0035102D01*
X0340998Y0032850D01*
X0340998Y0035853D01*
X0331998Y0050458D02*
X0331998Y0053460D01*
X0330497Y0055062D02*
X0329746Y0055812D01*
X0329746Y0057314D01*
X0330497Y0058064D01*
X0333499Y0055062D01*
X0334250Y0055812D01*
X0334250Y0057314D01*
X0333499Y0058064D01*
X0330497Y0058064D01*
X0330497Y0059666D02*
X0329746Y0060416D01*
X0329746Y0061918D01*
X0330497Y0062668D01*
X0333499Y0059666D01*
X0334250Y0060416D01*
X0334250Y0061918D01*
X0333499Y0062668D01*
X0330497Y0062668D01*
X0331998Y0064270D02*
X0331998Y0067272D01*
X0329746Y0066522D02*
X0331998Y0064270D01*
X0334250Y0066522D02*
X0329746Y0066522D01*
X0319750Y0066293D02*
X0318999Y0065542D01*
X0315997Y0068545D01*
X0318999Y0068545D01*
X0319750Y0067794D01*
X0319750Y0066293D01*
X0318999Y0065542D02*
X0315997Y0065542D01*
X0315246Y0066293D01*
X0315246Y0067794D01*
X0315997Y0068545D01*
X0317498Y0070146D02*
X0317498Y0073149D01*
X0315246Y0072398D02*
X0317498Y0070146D01*
X0319750Y0072398D02*
X0315246Y0072398D01*
X0315997Y0063941D02*
X0315246Y0063190D01*
X0330497Y0059666D02*
X0333499Y0059666D01*
X0333499Y0055062D02*
X0330497Y0055062D01*
X0329746Y0052710D02*
X0331998Y0050458D01*
X0334250Y0052710D02*
X0329746Y0052710D01*
X0357500Y0057000D02*
X0358500Y0057000D01*
X0298250Y0037206D02*
X0296749Y0034954D01*
X0295247Y0037206D01*
X0293746Y0034954D02*
X0298250Y0034954D01*
X0298250Y0033353D02*
X0298250Y0030350D01*
X0298250Y0031851D02*
X0293746Y0031851D01*
X0295247Y0030350D01*
X0277750Y0027502D02*
X0277750Y0026001D01*
X0276999Y0025250D01*
X0275498Y0026751D02*
X0275498Y0027502D01*
X0276249Y0028253D01*
X0276999Y0028253D01*
X0277750Y0027502D01*
X0275498Y0027502D02*
X0274747Y0028253D01*
X0273997Y0028253D01*
X0273246Y0027502D01*
X0273246Y0026001D01*
X0273997Y0025250D01*
X0271250Y0024208D02*
X0271250Y0021206D01*
X0271250Y0022707D02*
X0266746Y0022707D01*
X0268247Y0021206D01*
X0267497Y0025809D02*
X0266746Y0026560D01*
X0266746Y0028061D01*
X0267497Y0028812D01*
X0270499Y0025809D01*
X0271250Y0026560D01*
X0271250Y0028061D01*
X0270499Y0028812D01*
X0267497Y0028812D01*
X0266746Y0030413D02*
X0271250Y0030413D01*
X0269749Y0030413D02*
X0268247Y0032665D01*
X0269749Y0030413D02*
X0271250Y0032665D01*
X0274747Y0034750D02*
X0273246Y0036251D01*
X0277750Y0036251D01*
X0277750Y0034750D02*
X0277750Y0037753D01*
X0270499Y0025809D02*
X0267497Y0025809D01*
X0268230Y0016254D02*
X0268230Y0014002D01*
X0269732Y0014753D01*
X0270482Y0014753D01*
X0271233Y0014002D01*
X0271233Y0012501D01*
X0270482Y0011750D01*
X0268981Y0011750D01*
X0268230Y0012501D01*
X0266629Y0014002D02*
X0263626Y0014002D01*
X0265128Y0015503D02*
X0265128Y0012501D01*
X0268230Y0016254D02*
X0271233Y0016254D01*
X0277438Y0014753D02*
X0278939Y0016254D01*
X0280441Y0014753D01*
X0280441Y0011750D01*
X0282042Y0011750D02*
X0284294Y0011750D01*
X0285045Y0012501D01*
X0285045Y0015503D01*
X0284294Y0016254D01*
X0282042Y0016254D01*
X0282042Y0011750D01*
X0280441Y0014002D02*
X0277438Y0014002D01*
X0277438Y0014753D02*
X0277438Y0011750D01*
X0275837Y0010999D02*
X0272834Y0010999D01*
X0286646Y0012501D02*
X0287397Y0011750D01*
X0288147Y0011750D01*
X0288898Y0012501D01*
X0288898Y0016254D01*
X0288147Y0016254D02*
X0289649Y0016254D01*
X0249750Y0024626D02*
X0249750Y0027629D01*
X0249750Y0026128D02*
X0245246Y0026128D01*
X0246747Y0024626D01*
X0245246Y0029230D02*
X0249750Y0032233D01*
X0245246Y0032233D01*
X0247498Y0033834D02*
X0247498Y0036837D01*
X0245997Y0038438D02*
X0245246Y0039189D01*
X0245246Y0040690D01*
X0245997Y0041441D01*
X0248999Y0038438D01*
X0249750Y0039189D01*
X0249750Y0040690D01*
X0248999Y0041441D01*
X0245997Y0041441D01*
X0245997Y0043042D02*
X0245246Y0043793D01*
X0245246Y0045294D01*
X0245997Y0046045D01*
X0248999Y0043042D01*
X0249750Y0043793D01*
X0249750Y0045294D01*
X0248999Y0046045D01*
X0245997Y0046045D01*
X0247498Y0047646D02*
X0247498Y0050649D01*
X0245246Y0049898D02*
X0247498Y0047646D01*
X0249750Y0049898D02*
X0245246Y0049898D01*
X0245997Y0043042D02*
X0248999Y0043042D01*
X0248999Y0038438D02*
X0245997Y0038438D01*
X0245246Y0036086D02*
X0247498Y0033834D01*
X0249750Y0036086D02*
X0245246Y0036086D01*
X0245246Y0029230D02*
X0249750Y0029230D01*
X0224550Y0028564D02*
X0224550Y0025562D01*
X0224550Y0027063D02*
X0220046Y0027063D01*
X0221547Y0025562D01*
X0221547Y0023960D02*
X0222298Y0023210D01*
X0223049Y0023960D01*
X0223799Y0023960D01*
X0224550Y0023210D01*
X0224550Y0021708D01*
X0223799Y0020958D01*
X0224550Y0019356D02*
X0220046Y0019356D01*
X0221547Y0017855D01*
X0220046Y0016354D01*
X0224550Y0016354D01*
X0224550Y0014753D02*
X0224550Y0011750D01*
X0220046Y0011750D01*
X0220797Y0020958D02*
X0220046Y0021708D01*
X0220046Y0023210D01*
X0220797Y0023960D01*
X0221547Y0023960D01*
X0222298Y0023210D02*
X0222298Y0022459D01*
X0223799Y0030166D02*
X0224550Y0030166D01*
X0223799Y0030166D02*
X0220797Y0033168D01*
X0220046Y0033168D01*
X0220046Y0030166D01*
X0222298Y0034770D02*
X0222298Y0037772D01*
X0221547Y0039374D02*
X0220046Y0040875D01*
X0224550Y0040875D01*
X0224550Y0039374D02*
X0224550Y0042376D01*
X0183649Y0012254D02*
X0180646Y0012254D01*
X0180646Y0007750D01*
X0179045Y0007750D02*
X0179045Y0010002D01*
X0178294Y0010753D01*
X0176042Y0010753D01*
X0176042Y0007750D01*
X0174441Y0008501D02*
X0173690Y0007750D01*
X0172189Y0007750D01*
X0171438Y0008501D01*
X0174441Y0011503D01*
X0174441Y0008501D01*
X0174441Y0011503D02*
X0173690Y0012254D01*
X0172189Y0012254D01*
X0171438Y0011503D01*
X0171438Y0008501D01*
X0169837Y0008501D02*
X0169086Y0007750D01*
X0167585Y0007750D01*
X0166834Y0008501D01*
X0169837Y0011503D01*
X0169837Y0008501D01*
X0169837Y0011503D02*
X0169086Y0012254D01*
X0167585Y0012254D01*
X0166834Y0011503D01*
X0166834Y0008501D01*
X0165233Y0007750D02*
X0162230Y0007750D01*
X0163732Y0007750D02*
X0163732Y0012254D01*
X0162230Y0010753D01*
X0180646Y0010002D02*
X0182147Y0010002D01*
X0262246Y0087646D02*
X0266750Y0087646D01*
X0224450Y0112146D02*
X0221447Y0115149D01*
X0220697Y0115149D01*
X0219946Y0114398D01*
X0224450Y0115149D02*
X0224450Y0112146D01*
X0261497Y0116354D02*
X0264499Y0116354D01*
X0268246Y0116251D02*
X0272750Y0116251D01*
X0272750Y0114750D02*
X0272750Y0117753D01*
X0269747Y0114750D02*
X0268246Y0116251D01*
X0285997Y0143354D02*
X0288999Y0143354D01*
X0338746Y0164351D02*
X0340247Y0162850D01*
X0338746Y0164351D02*
X0343250Y0164351D01*
X0343250Y0162850D02*
X0343250Y0165853D01*
X0342499Y0167454D02*
X0339497Y0167454D01*
X0338746Y0168205D01*
X0338746Y0169706D01*
X0339497Y0170456D01*
X0342499Y0167454D01*
X0343250Y0168205D01*
X0343250Y0169706D01*
X0342499Y0170456D01*
X0339497Y0170456D01*
X0338746Y0172058D02*
X0343250Y0172058D01*
X0341749Y0172058D02*
X0340247Y0174310D01*
X0341749Y0172058D02*
X0343250Y0174310D01*
X0370334Y0171502D02*
X0373337Y0171502D01*
X0374938Y0172253D02*
X0376439Y0173754D01*
X0376439Y0169250D01*
X0374938Y0169250D02*
X0377941Y0169250D01*
X0379542Y0169250D02*
X0382545Y0172253D01*
X0382545Y0173003D01*
X0381794Y0173754D01*
X0380293Y0173754D01*
X0379542Y0173003D01*
X0379542Y0169250D02*
X0382545Y0169250D01*
X0384146Y0170751D02*
X0385647Y0169250D01*
X0387149Y0170751D01*
X0387149Y0173754D01*
X0384146Y0173754D02*
X0384146Y0170751D01*
X0371836Y0170001D02*
X0371836Y0173003D01*
X0366563Y0193850D02*
X0368064Y0195351D01*
X0368064Y0198354D01*
X0365062Y0198354D02*
X0365062Y0195351D01*
X0366563Y0193850D01*
X0363460Y0193850D02*
X0360458Y0193850D01*
X0363460Y0196853D01*
X0363460Y0197603D01*
X0362710Y0198354D01*
X0361208Y0198354D01*
X0360458Y0197603D01*
X0357355Y0198354D02*
X0355854Y0196853D01*
X0354253Y0196102D02*
X0351250Y0196102D01*
X0355854Y0193850D02*
X0358856Y0193850D01*
X0357355Y0193850D02*
X0357355Y0198354D01*
X0380854Y0023354D02*
X0380854Y0021102D01*
X0382355Y0021853D01*
X0383106Y0021853D01*
X0383856Y0021102D01*
X0383856Y0019601D01*
X0383106Y0018850D01*
X0381605Y0018850D01*
X0380854Y0019601D01*
X0379253Y0021102D02*
X0376250Y0021102D01*
X0377751Y0022603D02*
X0377751Y0019601D01*
X0380854Y0023354D02*
X0383856Y0023354D01*
X0385458Y0023354D02*
X0385458Y0020351D01*
X0386959Y0018850D01*
X0388460Y0020351D01*
X0388460Y0023354D01*
D14*
X0384500Y0033000D02*
X0384500Y0135000D01*
X0357500Y0135000D01*
X0357500Y0076000D02*
X0357500Y0057000D01*
X0357500Y0051000D02*
X0357500Y0033000D01*
X0384500Y0033000D01*
D15*
X0120500Y0156500D03*
X0131500Y0171500D03*
X0076500Y0156500D03*
X0065500Y0171500D03*
D16*
X0059250Y0171500D03*
X0082750Y0171500D03*
X0082750Y0156500D03*
X0059250Y0156500D03*
X0114250Y0156500D03*
X0137750Y0156500D03*
X0137750Y0171500D03*
X0114250Y0171500D03*
D17*
X0176000Y0119250D03*
X0106000Y0104250D03*
X0036000Y0114250D03*
X0036000Y0048750D03*
X0106000Y0038750D03*
X0176000Y0053750D03*
D18*
X0186245Y0054339D02*
X0186245Y0052237D01*
X0187296Y0051186D01*
X0191499Y0051186D01*
X0187296Y0055390D01*
X0191499Y0055390D01*
X0192550Y0054339D01*
X0192550Y0052237D01*
X0191499Y0051186D01*
X0191499Y0048945D02*
X0187296Y0048945D01*
X0191499Y0044741D01*
X0192550Y0045792D01*
X0192550Y0047894D01*
X0191499Y0048945D01*
X0187296Y0048945D02*
X0186245Y0047894D01*
X0186245Y0045792D01*
X0187296Y0044741D01*
X0191499Y0044741D01*
X0191499Y0042499D02*
X0192550Y0041448D01*
X0192550Y0039346D01*
X0191499Y0038295D01*
X0189397Y0040397D02*
X0189397Y0041448D01*
X0190448Y0042499D01*
X0191499Y0042499D01*
X0189397Y0041448D02*
X0188346Y0042499D01*
X0187296Y0042499D01*
X0186245Y0041448D01*
X0186245Y0039346D01*
X0187296Y0038295D01*
X0187296Y0036054D02*
X0188346Y0036054D01*
X0189397Y0035003D01*
X0190448Y0036054D01*
X0191499Y0036054D01*
X0192550Y0035003D01*
X0192550Y0032901D01*
X0191499Y0031850D01*
X0189397Y0033952D02*
X0189397Y0035003D01*
X0187296Y0036054D02*
X0186245Y0035003D01*
X0186245Y0032901D01*
X0187296Y0031850D01*
X0186245Y0054339D02*
X0187296Y0055390D01*
X0188346Y0057632D02*
X0191499Y0057632D01*
X0192550Y0058683D01*
X0192550Y0061836D01*
X0188346Y0061836D01*
X0189397Y0064077D02*
X0189397Y0066179D01*
X0186245Y0064077D02*
X0186245Y0068281D01*
X0186245Y0064077D02*
X0192550Y0064077D01*
X0122550Y0049077D02*
X0116245Y0049077D01*
X0116245Y0053281D01*
X0119397Y0051179D02*
X0119397Y0049077D01*
X0118346Y0046836D02*
X0122550Y0046836D01*
X0122550Y0043683D01*
X0121499Y0042632D01*
X0118346Y0042632D01*
X0117296Y0040390D02*
X0121499Y0036186D01*
X0122550Y0037237D01*
X0122550Y0039339D01*
X0121499Y0040390D01*
X0117296Y0040390D01*
X0116245Y0039339D01*
X0116245Y0037237D01*
X0117296Y0036186D01*
X0121499Y0036186D01*
X0121499Y0033945D02*
X0117296Y0033945D01*
X0121499Y0029741D01*
X0122550Y0030792D01*
X0122550Y0032894D01*
X0121499Y0033945D01*
X0117296Y0033945D02*
X0116245Y0032894D01*
X0116245Y0030792D01*
X0117296Y0029741D01*
X0121499Y0029741D01*
X0121499Y0027499D02*
X0122550Y0026448D01*
X0122550Y0024346D01*
X0121499Y0023295D01*
X0121499Y0021054D02*
X0122550Y0020003D01*
X0122550Y0017901D01*
X0121499Y0016850D01*
X0119397Y0018952D02*
X0119397Y0020003D01*
X0120448Y0021054D01*
X0121499Y0021054D01*
X0119397Y0020003D02*
X0118346Y0021054D01*
X0117296Y0021054D01*
X0116245Y0020003D01*
X0116245Y0017901D01*
X0117296Y0016850D01*
X0117296Y0023295D02*
X0116245Y0024346D01*
X0116245Y0026448D01*
X0117296Y0027499D01*
X0118346Y0027499D01*
X0119397Y0026448D01*
X0120448Y0027499D01*
X0121499Y0027499D01*
X0119397Y0026448D02*
X0119397Y0025397D01*
X0052550Y0027901D02*
X0051499Y0026850D01*
X0052550Y0027901D02*
X0052550Y0030003D01*
X0051499Y0031054D01*
X0050448Y0031054D01*
X0049397Y0030003D01*
X0049397Y0028952D01*
X0049397Y0030003D02*
X0048346Y0031054D01*
X0047296Y0031054D01*
X0046245Y0030003D01*
X0046245Y0027901D01*
X0047296Y0026850D01*
X0047296Y0033295D02*
X0046245Y0034346D01*
X0046245Y0036448D01*
X0047296Y0037499D01*
X0048346Y0037499D01*
X0049397Y0036448D01*
X0050448Y0037499D01*
X0051499Y0037499D01*
X0052550Y0036448D01*
X0052550Y0034346D01*
X0051499Y0033295D01*
X0049397Y0035397D02*
X0049397Y0036448D01*
X0047296Y0039741D02*
X0046245Y0040792D01*
X0046245Y0042894D01*
X0047296Y0043945D01*
X0051499Y0039741D01*
X0052550Y0040792D01*
X0052550Y0042894D01*
X0051499Y0043945D01*
X0047296Y0043945D01*
X0047296Y0046186D02*
X0046245Y0047237D01*
X0046245Y0049339D01*
X0047296Y0050390D01*
X0051499Y0046186D01*
X0052550Y0047237D01*
X0052550Y0049339D01*
X0051499Y0050390D01*
X0047296Y0050390D01*
X0048346Y0052632D02*
X0051499Y0052632D01*
X0052550Y0053683D01*
X0052550Y0056836D01*
X0048346Y0056836D01*
X0049397Y0059077D02*
X0049397Y0061179D01*
X0046245Y0059077D02*
X0046245Y0063281D01*
X0046245Y0059077D02*
X0052550Y0059077D01*
X0051499Y0046186D02*
X0047296Y0046186D01*
X0047296Y0039741D02*
X0051499Y0039741D01*
X0019599Y0077850D02*
X0015396Y0077850D01*
X0014345Y0078901D01*
X0014345Y0081003D01*
X0015396Y0082054D01*
X0016446Y0084295D02*
X0014345Y0086397D01*
X0020650Y0086397D01*
X0020650Y0084295D02*
X0020650Y0088499D01*
X0019599Y0090741D02*
X0015396Y0090741D01*
X0014345Y0091792D01*
X0014345Y0093894D01*
X0015396Y0094945D01*
X0019599Y0090741D01*
X0020650Y0091792D01*
X0020650Y0093894D01*
X0019599Y0094945D01*
X0015396Y0094945D01*
X0019445Y0099228D02*
X0019445Y0101330D01*
X0020496Y0102381D01*
X0021546Y0102381D01*
X0022597Y0101330D01*
X0023648Y0102381D01*
X0024699Y0102381D01*
X0025750Y0101330D01*
X0025750Y0099228D01*
X0024699Y0098177D01*
X0022597Y0100279D02*
X0022597Y0101330D01*
X0020496Y0098177D02*
X0019445Y0099228D01*
X0020496Y0104622D02*
X0019445Y0105673D01*
X0019445Y0107775D01*
X0020496Y0108826D01*
X0021546Y0108826D01*
X0022597Y0107775D01*
X0023648Y0108826D01*
X0024699Y0108826D01*
X0025750Y0107775D01*
X0025750Y0105673D01*
X0024699Y0104622D01*
X0022597Y0106724D02*
X0022597Y0107775D01*
X0020496Y0111068D02*
X0019445Y0112119D01*
X0019445Y0114221D01*
X0020496Y0115272D01*
X0024699Y0111068D01*
X0025750Y0112119D01*
X0025750Y0114221D01*
X0024699Y0115272D01*
X0020496Y0115272D01*
X0020496Y0117513D02*
X0019445Y0118564D01*
X0019445Y0120666D01*
X0020496Y0121717D01*
X0024699Y0117513D01*
X0025750Y0118564D01*
X0025750Y0120666D01*
X0024699Y0121717D01*
X0020496Y0121717D01*
X0021546Y0123959D02*
X0024699Y0123959D01*
X0025750Y0125010D01*
X0025750Y0128163D01*
X0021546Y0128163D01*
X0022597Y0130404D02*
X0022597Y0132506D01*
X0019445Y0130404D02*
X0019445Y0134608D01*
X0019445Y0130404D02*
X0025750Y0130404D01*
X0024699Y0117513D02*
X0020496Y0117513D01*
X0020496Y0111068D02*
X0024699Y0111068D01*
X0019599Y0082054D02*
X0020650Y0081003D01*
X0020650Y0078901D01*
X0019599Y0077850D01*
X0089445Y0089228D02*
X0089445Y0091330D01*
X0090496Y0092381D01*
X0091546Y0092381D01*
X0092597Y0091330D01*
X0093648Y0092381D01*
X0094699Y0092381D01*
X0095750Y0091330D01*
X0095750Y0089228D01*
X0094699Y0088177D01*
X0092597Y0090279D02*
X0092597Y0091330D01*
X0090496Y0088177D02*
X0089445Y0089228D01*
X0090496Y0094622D02*
X0089445Y0095673D01*
X0089445Y0097775D01*
X0090496Y0098826D01*
X0091546Y0098826D01*
X0092597Y0097775D01*
X0093648Y0098826D01*
X0094699Y0098826D01*
X0095750Y0097775D01*
X0095750Y0095673D01*
X0094699Y0094622D01*
X0092597Y0096724D02*
X0092597Y0097775D01*
X0090496Y0101068D02*
X0089445Y0102119D01*
X0089445Y0104221D01*
X0090496Y0105272D01*
X0094699Y0101068D01*
X0095750Y0102119D01*
X0095750Y0104221D01*
X0094699Y0105272D01*
X0090496Y0105272D01*
X0090496Y0107513D02*
X0089445Y0108564D01*
X0089445Y0110666D01*
X0090496Y0111717D01*
X0094699Y0107513D01*
X0095750Y0108564D01*
X0095750Y0110666D01*
X0094699Y0111717D01*
X0090496Y0111717D01*
X0091546Y0113959D02*
X0094699Y0113959D01*
X0095750Y0115010D01*
X0095750Y0118163D01*
X0091546Y0118163D01*
X0092597Y0120404D02*
X0092597Y0122506D01*
X0089445Y0120404D02*
X0089445Y0124608D01*
X0089445Y0120404D02*
X0095750Y0120404D01*
X0094699Y0107513D02*
X0090496Y0107513D01*
X0090496Y0101068D02*
X0094699Y0101068D01*
X0159445Y0104228D02*
X0159445Y0106330D01*
X0160496Y0107381D01*
X0161546Y0107381D01*
X0162597Y0106330D01*
X0163648Y0107381D01*
X0164699Y0107381D01*
X0165750Y0106330D01*
X0165750Y0104228D01*
X0164699Y0103177D01*
X0162597Y0105279D02*
X0162597Y0106330D01*
X0160496Y0103177D02*
X0159445Y0104228D01*
X0160496Y0109622D02*
X0159445Y0110673D01*
X0159445Y0112775D01*
X0160496Y0113826D01*
X0161546Y0113826D01*
X0162597Y0112775D01*
X0163648Y0113826D01*
X0164699Y0113826D01*
X0165750Y0112775D01*
X0165750Y0110673D01*
X0164699Y0109622D01*
X0162597Y0111724D02*
X0162597Y0112775D01*
X0160496Y0116068D02*
X0159445Y0117119D01*
X0159445Y0119221D01*
X0160496Y0120272D01*
X0164699Y0116068D01*
X0165750Y0117119D01*
X0165750Y0119221D01*
X0164699Y0120272D01*
X0160496Y0120272D01*
X0160496Y0122513D02*
X0159445Y0123564D01*
X0159445Y0125666D01*
X0160496Y0126717D01*
X0164699Y0122513D01*
X0165750Y0123564D01*
X0165750Y0125666D01*
X0164699Y0126717D01*
X0160496Y0126717D01*
X0161546Y0128959D02*
X0164699Y0128959D01*
X0165750Y0130010D01*
X0165750Y0133163D01*
X0161546Y0133163D01*
X0162597Y0135404D02*
X0162597Y0137506D01*
X0159445Y0135404D02*
X0159445Y0139608D01*
X0159445Y0135404D02*
X0165750Y0135404D01*
X0164699Y0122513D02*
X0160496Y0122513D01*
X0160496Y0116068D02*
X0164699Y0116068D01*
D19*
X0180000Y0158500D02*
X0180000Y0161500D01*
X0180000Y0164500D01*
X0182000Y0164500D02*
X0182000Y0161500D01*
X0182000Y0158500D01*
X0353500Y0191500D02*
X0353257Y0191313D01*
X0353019Y0191121D01*
X0352786Y0190922D01*
X0352558Y0190718D01*
X0352335Y0190509D01*
X0352117Y0190294D01*
X0351904Y0190074D01*
X0351697Y0189849D01*
X0351495Y0189618D01*
X0351299Y0189383D01*
X0351109Y0189143D01*
X0350925Y0188899D01*
X0350747Y0188650D01*
X0350575Y0188396D01*
X0350409Y0188139D01*
X0350249Y0187878D01*
X0350096Y0187613D01*
X0349950Y0187344D01*
X0349810Y0187071D01*
X0349677Y0186796D01*
X0349551Y0186517D01*
X0349431Y0186235D01*
X0349319Y0185950D01*
X0349214Y0185663D01*
X0349115Y0185373D01*
X0349024Y0185081D01*
X0348940Y0184786D01*
X0348863Y0184490D01*
X0348793Y0184192D01*
X0348731Y0183892D01*
X0348676Y0183591D01*
X0348629Y0183289D01*
X0348589Y0182985D01*
X0348556Y0182681D01*
X0348531Y0182376D01*
X0348513Y0182070D01*
X0348503Y0181764D01*
X0348500Y0181458D01*
X0348505Y0181152D01*
X0348517Y0180846D01*
X0348537Y0180540D01*
X0348564Y0180236D01*
X0348599Y0179931D01*
X0348641Y0179628D01*
X0348690Y0179326D01*
X0348747Y0179025D01*
X0348812Y0178726D01*
X0348883Y0178428D01*
X0348962Y0178133D01*
X0349048Y0177839D01*
X0349141Y0177547D01*
X0349242Y0177258D01*
X0349349Y0176971D01*
X0349464Y0176687D01*
X0349585Y0176406D01*
X0349713Y0176128D01*
X0349848Y0175853D01*
X0349990Y0175582D01*
X0350138Y0175314D01*
X0350293Y0175050D01*
X0350454Y0174790D01*
X0350621Y0174534D01*
X0350795Y0174281D01*
X0350975Y0174034D01*
X0351161Y0173790D01*
X0351352Y0173552D01*
X0351550Y0173318D01*
X0351753Y0173089D01*
X0351962Y0172865D01*
X0352176Y0172646D01*
X0352396Y0172433D01*
X0352620Y0172225D01*
X0352850Y0172022D01*
X0353084Y0171826D01*
X0353324Y0171635D01*
X0353567Y0171450D01*
X0353816Y0171271D01*
X0354068Y0171098D01*
X0354325Y0170931D01*
X0354586Y0170771D01*
X0354851Y0170617D01*
X0355119Y0170470D01*
X0355391Y0170329D01*
X0355666Y0170195D01*
X0355945Y0170068D01*
X0356226Y0169947D01*
X0356511Y0169834D01*
X0356798Y0169728D01*
X0357087Y0169628D01*
X0357379Y0169536D01*
X0357673Y0169451D01*
X0357969Y0169373D01*
X0358267Y0169302D01*
X0358567Y0169239D01*
X0358868Y0169183D01*
X0359170Y0169135D01*
X0359473Y0169094D01*
X0359777Y0169060D01*
X0360082Y0169034D01*
X0360388Y0169015D01*
X0360694Y0169004D01*
X0361000Y0169000D01*
X0361306Y0169004D01*
X0361612Y0169015D01*
X0361918Y0169034D01*
X0362223Y0169060D01*
X0362527Y0169094D01*
X0362830Y0169135D01*
X0363132Y0169183D01*
X0363433Y0169239D01*
X0363733Y0169302D01*
X0364031Y0169373D01*
X0364327Y0169451D01*
X0364621Y0169536D01*
X0364913Y0169628D01*
X0365202Y0169728D01*
X0365489Y0169834D01*
X0365774Y0169947D01*
X0366055Y0170068D01*
X0366334Y0170195D01*
X0366609Y0170329D01*
X0366881Y0170470D01*
X0367149Y0170617D01*
X0367414Y0170771D01*
X0367675Y0170931D01*
X0367932Y0171098D01*
X0368184Y0171271D01*
X0368433Y0171450D01*
X0368676Y0171635D01*
X0368916Y0171826D01*
X0369150Y0172022D01*
X0369380Y0172225D01*
X0369604Y0172433D01*
X0369824Y0172646D01*
X0370038Y0172865D01*
X0370247Y0173089D01*
X0370450Y0173318D01*
X0370648Y0173552D01*
X0370839Y0173790D01*
X0371025Y0174034D01*
X0371205Y0174281D01*
X0371379Y0174534D01*
X0371546Y0174790D01*
X0371707Y0175050D01*
X0371862Y0175314D01*
X0372010Y0175582D01*
X0372152Y0175853D01*
X0372287Y0176128D01*
X0372415Y0176406D01*
X0372536Y0176687D01*
X0372651Y0176971D01*
X0372758Y0177258D01*
X0372859Y0177547D01*
X0372952Y0177839D01*
X0373038Y0178133D01*
X0373117Y0178428D01*
X0373188Y0178726D01*
X0373253Y0179025D01*
X0373310Y0179326D01*
X0373359Y0179628D01*
X0373401Y0179931D01*
X0373436Y0180236D01*
X0373463Y0180540D01*
X0373483Y0180846D01*
X0373495Y0181152D01*
X0373500Y0181458D01*
X0373497Y0181764D01*
X0373487Y0182070D01*
X0373469Y0182376D01*
X0373444Y0182681D01*
X0373411Y0182985D01*
X0373371Y0183289D01*
X0373324Y0183591D01*
X0373269Y0183892D01*
X0373207Y0184192D01*
X0373137Y0184490D01*
X0373060Y0184786D01*
X0372976Y0185081D01*
X0372885Y0185373D01*
X0372786Y0185663D01*
X0372681Y0185950D01*
X0372569Y0186235D01*
X0372449Y0186517D01*
X0372323Y0186796D01*
X0372190Y0187071D01*
X0372050Y0187344D01*
X0371904Y0187613D01*
X0371751Y0187878D01*
X0371591Y0188139D01*
X0371425Y0188396D01*
X0371253Y0188650D01*
X0371075Y0188899D01*
X0370891Y0189143D01*
X0370701Y0189383D01*
X0370505Y0189618D01*
X0370303Y0189849D01*
X0370096Y0190074D01*
X0369883Y0190294D01*
X0369665Y0190509D01*
X0369442Y0190718D01*
X0369214Y0190922D01*
X0368981Y0191121D01*
X0368743Y0191313D01*
X0368500Y0191500D01*
X0368500Y0166500D02*
X0368257Y0166313D01*
X0368019Y0166121D01*
X0367786Y0165922D01*
X0367558Y0165718D01*
X0367335Y0165509D01*
X0367117Y0165294D01*
X0366904Y0165074D01*
X0366697Y0164849D01*
X0366495Y0164618D01*
X0366299Y0164383D01*
X0366109Y0164143D01*
X0365925Y0163899D01*
X0365747Y0163650D01*
X0365575Y0163396D01*
X0365409Y0163139D01*
X0365249Y0162878D01*
X0365096Y0162613D01*
X0364950Y0162344D01*
X0364810Y0162071D01*
X0364677Y0161796D01*
X0364551Y0161517D01*
X0364431Y0161235D01*
X0364319Y0160950D01*
X0364214Y0160663D01*
X0364115Y0160373D01*
X0364024Y0160081D01*
X0363940Y0159786D01*
X0363863Y0159490D01*
X0363793Y0159192D01*
X0363731Y0158892D01*
X0363676Y0158591D01*
X0363629Y0158289D01*
X0363589Y0157985D01*
X0363556Y0157681D01*
X0363531Y0157376D01*
X0363513Y0157070D01*
X0363503Y0156764D01*
X0363500Y0156458D01*
X0363505Y0156152D01*
X0363517Y0155846D01*
X0363537Y0155540D01*
X0363564Y0155236D01*
X0363599Y0154931D01*
X0363641Y0154628D01*
X0363690Y0154326D01*
X0363747Y0154025D01*
X0363812Y0153726D01*
X0363883Y0153428D01*
X0363962Y0153133D01*
X0364048Y0152839D01*
X0364141Y0152547D01*
X0364242Y0152258D01*
X0364349Y0151971D01*
X0364464Y0151687D01*
X0364585Y0151406D01*
X0364713Y0151128D01*
X0364848Y0150853D01*
X0364990Y0150582D01*
X0365138Y0150314D01*
X0365293Y0150050D01*
X0365454Y0149790D01*
X0365621Y0149534D01*
X0365795Y0149281D01*
X0365975Y0149034D01*
X0366161Y0148790D01*
X0366352Y0148552D01*
X0366550Y0148318D01*
X0366753Y0148089D01*
X0366962Y0147865D01*
X0367176Y0147646D01*
X0367396Y0147433D01*
X0367620Y0147225D01*
X0367850Y0147022D01*
X0368084Y0146826D01*
X0368324Y0146635D01*
X0368567Y0146450D01*
X0368816Y0146271D01*
X0369068Y0146098D01*
X0369325Y0145931D01*
X0369586Y0145771D01*
X0369851Y0145617D01*
X0370119Y0145470D01*
X0370391Y0145329D01*
X0370666Y0145195D01*
X0370945Y0145068D01*
X0371226Y0144947D01*
X0371511Y0144834D01*
X0371798Y0144728D01*
X0372087Y0144628D01*
X0372379Y0144536D01*
X0372673Y0144451D01*
X0372969Y0144373D01*
X0373267Y0144302D01*
X0373567Y0144239D01*
X0373868Y0144183D01*
X0374170Y0144135D01*
X0374473Y0144094D01*
X0374777Y0144060D01*
X0375082Y0144034D01*
X0375388Y0144015D01*
X0375694Y0144004D01*
X0376000Y0144000D01*
X0376306Y0144004D01*
X0376612Y0144015D01*
X0376918Y0144034D01*
X0377223Y0144060D01*
X0377527Y0144094D01*
X0377830Y0144135D01*
X0378132Y0144183D01*
X0378433Y0144239D01*
X0378733Y0144302D01*
X0379031Y0144373D01*
X0379327Y0144451D01*
X0379621Y0144536D01*
X0379913Y0144628D01*
X0380202Y0144728D01*
X0380489Y0144834D01*
X0380774Y0144947D01*
X0381055Y0145068D01*
X0381334Y0145195D01*
X0381609Y0145329D01*
X0381881Y0145470D01*
X0382149Y0145617D01*
X0382414Y0145771D01*
X0382675Y0145931D01*
X0382932Y0146098D01*
X0383184Y0146271D01*
X0383433Y0146450D01*
X0383676Y0146635D01*
X0383916Y0146826D01*
X0384150Y0147022D01*
X0384380Y0147225D01*
X0384604Y0147433D01*
X0384824Y0147646D01*
X0385038Y0147865D01*
X0385247Y0148089D01*
X0385450Y0148318D01*
X0385648Y0148552D01*
X0385839Y0148790D01*
X0386025Y0149034D01*
X0386205Y0149281D01*
X0386379Y0149534D01*
X0386546Y0149790D01*
X0386707Y0150050D01*
X0386862Y0150314D01*
X0387010Y0150582D01*
X0387152Y0150853D01*
X0387287Y0151128D01*
X0387415Y0151406D01*
X0387536Y0151687D01*
X0387651Y0151971D01*
X0387758Y0152258D01*
X0387859Y0152547D01*
X0387952Y0152839D01*
X0388038Y0153133D01*
X0388117Y0153428D01*
X0388188Y0153726D01*
X0388253Y0154025D01*
X0388310Y0154326D01*
X0388359Y0154628D01*
X0388401Y0154931D01*
X0388436Y0155236D01*
X0388463Y0155540D01*
X0388483Y0155846D01*
X0388495Y0156152D01*
X0388500Y0156458D01*
X0388497Y0156764D01*
X0388487Y0157070D01*
X0388469Y0157376D01*
X0388444Y0157681D01*
X0388411Y0157985D01*
X0388371Y0158289D01*
X0388324Y0158591D01*
X0388269Y0158892D01*
X0388207Y0159192D01*
X0388137Y0159490D01*
X0388060Y0159786D01*
X0387976Y0160081D01*
X0387885Y0160373D01*
X0387786Y0160663D01*
X0387681Y0160950D01*
X0387569Y0161235D01*
X0387449Y0161517D01*
X0387323Y0161796D01*
X0387190Y0162071D01*
X0387050Y0162344D01*
X0386904Y0162613D01*
X0386751Y0162878D01*
X0386591Y0163139D01*
X0386425Y0163396D01*
X0386253Y0163650D01*
X0386075Y0163899D01*
X0385891Y0164143D01*
X0385701Y0164383D01*
X0385505Y0164618D01*
X0385303Y0164849D01*
X0385096Y0165074D01*
X0384883Y0165294D01*
X0384665Y0165509D01*
X0384442Y0165718D01*
X0384214Y0165922D01*
X0383981Y0166121D01*
X0383743Y0166313D01*
X0383500Y0166500D01*
X0197000Y0014500D02*
X0197000Y0011500D01*
X0197000Y0008500D01*
X0195000Y0008500D02*
X0195000Y0011500D01*
X0195000Y0014500D01*
X0353500Y0024000D02*
X0353257Y0023813D01*
X0353019Y0023621D01*
X0352786Y0023422D01*
X0352558Y0023218D01*
X0352335Y0023009D01*
X0352117Y0022794D01*
X0351904Y0022574D01*
X0351697Y0022349D01*
X0351495Y0022118D01*
X0351299Y0021883D01*
X0351109Y0021643D01*
X0350925Y0021399D01*
X0350747Y0021150D01*
X0350575Y0020896D01*
X0350409Y0020639D01*
X0350249Y0020378D01*
X0350096Y0020113D01*
X0349950Y0019844D01*
X0349810Y0019571D01*
X0349677Y0019296D01*
X0349551Y0019017D01*
X0349431Y0018735D01*
X0349319Y0018450D01*
X0349214Y0018163D01*
X0349115Y0017873D01*
X0349024Y0017581D01*
X0348940Y0017286D01*
X0348863Y0016990D01*
X0348793Y0016692D01*
X0348731Y0016392D01*
X0348676Y0016091D01*
X0348629Y0015789D01*
X0348589Y0015485D01*
X0348556Y0015181D01*
X0348531Y0014876D01*
X0348513Y0014570D01*
X0348503Y0014264D01*
X0348500Y0013958D01*
X0348505Y0013652D01*
X0348517Y0013346D01*
X0348537Y0013040D01*
X0348564Y0012736D01*
X0348599Y0012431D01*
X0348641Y0012128D01*
X0348690Y0011826D01*
X0348747Y0011525D01*
X0348812Y0011226D01*
X0348883Y0010928D01*
X0348962Y0010633D01*
X0349048Y0010339D01*
X0349141Y0010047D01*
X0349242Y0009758D01*
X0349349Y0009471D01*
X0349464Y0009187D01*
X0349585Y0008906D01*
X0349713Y0008628D01*
X0349848Y0008353D01*
X0349990Y0008082D01*
X0350138Y0007814D01*
X0350293Y0007550D01*
X0350454Y0007290D01*
X0350621Y0007034D01*
X0350795Y0006781D01*
X0350975Y0006534D01*
X0351161Y0006290D01*
X0351352Y0006052D01*
X0351550Y0005818D01*
X0351753Y0005589D01*
X0351962Y0005365D01*
X0352176Y0005146D01*
X0352396Y0004933D01*
X0352620Y0004725D01*
X0352850Y0004522D01*
X0353084Y0004326D01*
X0353324Y0004135D01*
X0353567Y0003950D01*
X0353816Y0003771D01*
X0354068Y0003598D01*
X0354325Y0003431D01*
X0354586Y0003271D01*
X0354851Y0003117D01*
X0355119Y0002970D01*
X0355391Y0002829D01*
X0355666Y0002695D01*
X0355945Y0002568D01*
X0356226Y0002447D01*
X0356511Y0002334D01*
X0356798Y0002228D01*
X0357087Y0002128D01*
X0357379Y0002036D01*
X0357673Y0001951D01*
X0357969Y0001873D01*
X0358267Y0001802D01*
X0358567Y0001739D01*
X0358868Y0001683D01*
X0359170Y0001635D01*
X0359473Y0001594D01*
X0359777Y0001560D01*
X0360082Y0001534D01*
X0360388Y0001515D01*
X0360694Y0001504D01*
X0361000Y0001500D01*
X0361306Y0001504D01*
X0361612Y0001515D01*
X0361918Y0001534D01*
X0362223Y0001560D01*
X0362527Y0001594D01*
X0362830Y0001635D01*
X0363132Y0001683D01*
X0363433Y0001739D01*
X0363733Y0001802D01*
X0364031Y0001873D01*
X0364327Y0001951D01*
X0364621Y0002036D01*
X0364913Y0002128D01*
X0365202Y0002228D01*
X0365489Y0002334D01*
X0365774Y0002447D01*
X0366055Y0002568D01*
X0366334Y0002695D01*
X0366609Y0002829D01*
X0366881Y0002970D01*
X0367149Y0003117D01*
X0367414Y0003271D01*
X0367675Y0003431D01*
X0367932Y0003598D01*
X0368184Y0003771D01*
X0368433Y0003950D01*
X0368676Y0004135D01*
X0368916Y0004326D01*
X0369150Y0004522D01*
X0369380Y0004725D01*
X0369604Y0004933D01*
X0369824Y0005146D01*
X0370038Y0005365D01*
X0370247Y0005589D01*
X0370450Y0005818D01*
X0370648Y0006052D01*
X0370839Y0006290D01*
X0371025Y0006534D01*
X0371205Y0006781D01*
X0371379Y0007034D01*
X0371546Y0007290D01*
X0371707Y0007550D01*
X0371862Y0007814D01*
X0372010Y0008082D01*
X0372152Y0008353D01*
X0372287Y0008628D01*
X0372415Y0008906D01*
X0372536Y0009187D01*
X0372651Y0009471D01*
X0372758Y0009758D01*
X0372859Y0010047D01*
X0372952Y0010339D01*
X0373038Y0010633D01*
X0373117Y0010928D01*
X0373188Y0011226D01*
X0373253Y0011525D01*
X0373310Y0011826D01*
X0373359Y0012128D01*
X0373401Y0012431D01*
X0373436Y0012736D01*
X0373463Y0013040D01*
X0373483Y0013346D01*
X0373495Y0013652D01*
X0373500Y0013958D01*
X0373497Y0014264D01*
X0373487Y0014570D01*
X0373469Y0014876D01*
X0373444Y0015181D01*
X0373411Y0015485D01*
X0373371Y0015789D01*
X0373324Y0016091D01*
X0373269Y0016392D01*
X0373207Y0016692D01*
X0373137Y0016990D01*
X0373060Y0017286D01*
X0372976Y0017581D01*
X0372885Y0017873D01*
X0372786Y0018163D01*
X0372681Y0018450D01*
X0372569Y0018735D01*
X0372449Y0019017D01*
X0372323Y0019296D01*
X0372190Y0019571D01*
X0372050Y0019844D01*
X0371904Y0020113D01*
X0371751Y0020378D01*
X0371591Y0020639D01*
X0371425Y0020896D01*
X0371253Y0021150D01*
X0371075Y0021399D01*
X0370891Y0021643D01*
X0370701Y0021883D01*
X0370505Y0022118D01*
X0370303Y0022349D01*
X0370096Y0022574D01*
X0369883Y0022794D01*
X0369665Y0023009D01*
X0369442Y0023218D01*
X0369214Y0023422D01*
X0368981Y0023621D01*
X0368743Y0023813D01*
X0368500Y0024000D01*
D20*
X0240600Y0008300D03*
X0240600Y0083300D03*
X0240600Y0153300D03*
D21*
X0228500Y0154250D03*
X0228500Y0188750D03*
X0228500Y0118750D03*
X0228500Y0084250D03*
X0228500Y0043750D03*
X0228500Y0009250D03*
D22*
X0227500Y0016500D03*
X0227500Y0026500D03*
X0227500Y0036500D03*
X0227500Y0091500D03*
X0227500Y0101500D03*
X0227500Y0111500D03*
X0227500Y0161500D03*
X0227500Y0171500D03*
X0227500Y0181500D03*
D23*
X0228500Y0176500D03*
X0228500Y0166500D03*
X0228500Y0106500D03*
X0228500Y0096500D03*
X0228500Y0031500D03*
X0228500Y0021500D03*
D24*
X0280500Y0042000D02*
X0284500Y0038000D01*
X0279500Y0118000D02*
X0275500Y0122000D01*
X0274000Y0161000D02*
X0270000Y0165000D01*
D25*
X0296000Y0152300D03*
X0341000Y0157300D03*
X0296000Y0180700D03*
X0341000Y0185700D03*
X0341000Y0123200D03*
X0296000Y0118200D03*
X0341000Y0094800D03*
X0296000Y0089800D03*
X0341000Y0055700D03*
X0296000Y0053200D03*
X0341000Y0027300D03*
X0296000Y0024800D03*
D26*
X0326000Y0026000D03*
X0311000Y0044500D03*
X0256000Y0044500D03*
X0311000Y0098500D03*
X0326000Y0099500D03*
X0256000Y0107000D03*
X0326000Y0167000D03*
X0311000Y0172000D03*
X0256000Y0172000D03*
D27*
X0256000Y0178250D03*
X0256000Y0154750D03*
X0311000Y0154750D03*
X0326000Y0149750D03*
X0326000Y0173250D03*
X0311000Y0178250D03*
X0311000Y0115750D03*
X0326000Y0105750D03*
X0311000Y0092250D03*
X0326000Y0082250D03*
X0311000Y0050750D03*
X0326000Y0043250D03*
X0311000Y0027250D03*
X0326000Y0019750D03*
X0256000Y0027250D03*
X0256000Y0050750D03*
X0256000Y0089750D03*
X0256000Y0113250D03*
D28*
X0368500Y0166500D02*
X0383500Y0166500D01*
X0368500Y0191500D02*
X0353500Y0191500D01*
X0353500Y0024000D02*
X0368500Y0024000D01*
M02*
