G75*
%MOIN*%
%OFA0B0*%
%FSLAX25Y25*%
%IPPOS*%
%LPD*%
%AMOC8*
5,1,8,0,0,1.08239X$1,22.5*
%
%ADD10C,0.00000*%
%ADD11OC8,0.07400*%
%ADD12C,0.06600*%
%ADD13OC8,0.10000*%
%ADD14OC8,0.12400*%
%ADD15C,0.12400*%
%ADD16OC8,0.05200*%
%ADD17C,0.06000*%
%ADD18C,0.05200*%
%ADD19R,0.05150X0.05150*%
%ADD20C,0.06300*%
%ADD21OC8,0.06300*%
%ADD22C,0.07000*%
%ADD23C,0.03200*%
%ADD24C,0.05600*%
D10*
X0001000Y0001500D02*
X0001000Y0198961D01*
X0392201Y0198961D01*
X0392201Y0001500D01*
X0001000Y0001500D01*
X0006079Y0011500D02*
X0006081Y0011640D01*
X0006087Y0011780D01*
X0006097Y0011919D01*
X0006111Y0012058D01*
X0006129Y0012197D01*
X0006150Y0012335D01*
X0006176Y0012473D01*
X0006206Y0012610D01*
X0006239Y0012745D01*
X0006277Y0012880D01*
X0006318Y0013014D01*
X0006363Y0013147D01*
X0006411Y0013278D01*
X0006464Y0013407D01*
X0006520Y0013536D01*
X0006579Y0013662D01*
X0006643Y0013787D01*
X0006709Y0013910D01*
X0006780Y0014031D01*
X0006853Y0014150D01*
X0006930Y0014267D01*
X0007011Y0014381D01*
X0007094Y0014493D01*
X0007181Y0014603D01*
X0007271Y0014711D01*
X0007363Y0014815D01*
X0007459Y0014917D01*
X0007558Y0015017D01*
X0007659Y0015113D01*
X0007763Y0015207D01*
X0007870Y0015297D01*
X0007979Y0015384D01*
X0008091Y0015469D01*
X0008205Y0015550D01*
X0008321Y0015628D01*
X0008439Y0015702D01*
X0008560Y0015773D01*
X0008682Y0015841D01*
X0008807Y0015905D01*
X0008933Y0015966D01*
X0009060Y0016023D01*
X0009190Y0016076D01*
X0009321Y0016126D01*
X0009453Y0016171D01*
X0009586Y0016214D01*
X0009721Y0016252D01*
X0009856Y0016286D01*
X0009993Y0016317D01*
X0010130Y0016344D01*
X0010268Y0016366D01*
X0010407Y0016385D01*
X0010546Y0016400D01*
X0010685Y0016411D01*
X0010825Y0016418D01*
X0010965Y0016421D01*
X0011105Y0016420D01*
X0011245Y0016415D01*
X0011384Y0016406D01*
X0011524Y0016393D01*
X0011663Y0016376D01*
X0011801Y0016355D01*
X0011939Y0016331D01*
X0012076Y0016302D01*
X0012212Y0016270D01*
X0012347Y0016233D01*
X0012481Y0016193D01*
X0012614Y0016149D01*
X0012745Y0016101D01*
X0012875Y0016050D01*
X0013004Y0015995D01*
X0013131Y0015936D01*
X0013256Y0015873D01*
X0013379Y0015808D01*
X0013501Y0015738D01*
X0013620Y0015665D01*
X0013738Y0015589D01*
X0013853Y0015510D01*
X0013966Y0015427D01*
X0014076Y0015341D01*
X0014184Y0015252D01*
X0014289Y0015160D01*
X0014392Y0015065D01*
X0014492Y0014967D01*
X0014589Y0014867D01*
X0014683Y0014763D01*
X0014775Y0014657D01*
X0014863Y0014549D01*
X0014948Y0014438D01*
X0015030Y0014324D01*
X0015109Y0014208D01*
X0015184Y0014091D01*
X0015256Y0013971D01*
X0015324Y0013849D01*
X0015389Y0013725D01*
X0015451Y0013599D01*
X0015509Y0013472D01*
X0015563Y0013343D01*
X0015614Y0013212D01*
X0015660Y0013080D01*
X0015703Y0012947D01*
X0015743Y0012813D01*
X0015778Y0012678D01*
X0015810Y0012541D01*
X0015837Y0012404D01*
X0015861Y0012266D01*
X0015881Y0012128D01*
X0015897Y0011989D01*
X0015909Y0011849D01*
X0015917Y0011710D01*
X0015921Y0011570D01*
X0015921Y0011430D01*
X0015917Y0011290D01*
X0015909Y0011151D01*
X0015897Y0011011D01*
X0015881Y0010872D01*
X0015861Y0010734D01*
X0015837Y0010596D01*
X0015810Y0010459D01*
X0015778Y0010322D01*
X0015743Y0010187D01*
X0015703Y0010053D01*
X0015660Y0009920D01*
X0015614Y0009788D01*
X0015563Y0009657D01*
X0015509Y0009528D01*
X0015451Y0009401D01*
X0015389Y0009275D01*
X0015324Y0009151D01*
X0015256Y0009029D01*
X0015184Y0008909D01*
X0015109Y0008792D01*
X0015030Y0008676D01*
X0014948Y0008562D01*
X0014863Y0008451D01*
X0014775Y0008343D01*
X0014683Y0008237D01*
X0014589Y0008133D01*
X0014492Y0008033D01*
X0014392Y0007935D01*
X0014289Y0007840D01*
X0014184Y0007748D01*
X0014076Y0007659D01*
X0013966Y0007573D01*
X0013853Y0007490D01*
X0013738Y0007411D01*
X0013620Y0007335D01*
X0013501Y0007262D01*
X0013379Y0007192D01*
X0013256Y0007127D01*
X0013131Y0007064D01*
X0013004Y0007005D01*
X0012875Y0006950D01*
X0012745Y0006899D01*
X0012614Y0006851D01*
X0012481Y0006807D01*
X0012347Y0006767D01*
X0012212Y0006730D01*
X0012076Y0006698D01*
X0011939Y0006669D01*
X0011801Y0006645D01*
X0011663Y0006624D01*
X0011524Y0006607D01*
X0011384Y0006594D01*
X0011245Y0006585D01*
X0011105Y0006580D01*
X0010965Y0006579D01*
X0010825Y0006582D01*
X0010685Y0006589D01*
X0010546Y0006600D01*
X0010407Y0006615D01*
X0010268Y0006634D01*
X0010130Y0006656D01*
X0009993Y0006683D01*
X0009856Y0006714D01*
X0009721Y0006748D01*
X0009586Y0006786D01*
X0009453Y0006829D01*
X0009321Y0006874D01*
X0009190Y0006924D01*
X0009060Y0006977D01*
X0008933Y0007034D01*
X0008807Y0007095D01*
X0008682Y0007159D01*
X0008560Y0007227D01*
X0008439Y0007298D01*
X0008321Y0007372D01*
X0008205Y0007450D01*
X0008091Y0007531D01*
X0007979Y0007616D01*
X0007870Y0007703D01*
X0007763Y0007793D01*
X0007659Y0007887D01*
X0007558Y0007983D01*
X0007459Y0008083D01*
X0007363Y0008185D01*
X0007271Y0008289D01*
X0007181Y0008397D01*
X0007094Y0008507D01*
X0007011Y0008619D01*
X0006930Y0008733D01*
X0006853Y0008850D01*
X0006780Y0008969D01*
X0006709Y0009090D01*
X0006643Y0009213D01*
X0006579Y0009338D01*
X0006520Y0009464D01*
X0006464Y0009593D01*
X0006411Y0009722D01*
X0006363Y0009853D01*
X0006318Y0009986D01*
X0006277Y0010120D01*
X0006239Y0010255D01*
X0006206Y0010390D01*
X0006176Y0010527D01*
X0006150Y0010665D01*
X0006129Y0010803D01*
X0006111Y0010942D01*
X0006097Y0011081D01*
X0006087Y0011220D01*
X0006081Y0011360D01*
X0006079Y0011500D01*
X0006079Y0189000D02*
X0006081Y0189140D01*
X0006087Y0189280D01*
X0006097Y0189419D01*
X0006111Y0189558D01*
X0006129Y0189697D01*
X0006150Y0189835D01*
X0006176Y0189973D01*
X0006206Y0190110D01*
X0006239Y0190245D01*
X0006277Y0190380D01*
X0006318Y0190514D01*
X0006363Y0190647D01*
X0006411Y0190778D01*
X0006464Y0190907D01*
X0006520Y0191036D01*
X0006579Y0191162D01*
X0006643Y0191287D01*
X0006709Y0191410D01*
X0006780Y0191531D01*
X0006853Y0191650D01*
X0006930Y0191767D01*
X0007011Y0191881D01*
X0007094Y0191993D01*
X0007181Y0192103D01*
X0007271Y0192211D01*
X0007363Y0192315D01*
X0007459Y0192417D01*
X0007558Y0192517D01*
X0007659Y0192613D01*
X0007763Y0192707D01*
X0007870Y0192797D01*
X0007979Y0192884D01*
X0008091Y0192969D01*
X0008205Y0193050D01*
X0008321Y0193128D01*
X0008439Y0193202D01*
X0008560Y0193273D01*
X0008682Y0193341D01*
X0008807Y0193405D01*
X0008933Y0193466D01*
X0009060Y0193523D01*
X0009190Y0193576D01*
X0009321Y0193626D01*
X0009453Y0193671D01*
X0009586Y0193714D01*
X0009721Y0193752D01*
X0009856Y0193786D01*
X0009993Y0193817D01*
X0010130Y0193844D01*
X0010268Y0193866D01*
X0010407Y0193885D01*
X0010546Y0193900D01*
X0010685Y0193911D01*
X0010825Y0193918D01*
X0010965Y0193921D01*
X0011105Y0193920D01*
X0011245Y0193915D01*
X0011384Y0193906D01*
X0011524Y0193893D01*
X0011663Y0193876D01*
X0011801Y0193855D01*
X0011939Y0193831D01*
X0012076Y0193802D01*
X0012212Y0193770D01*
X0012347Y0193733D01*
X0012481Y0193693D01*
X0012614Y0193649D01*
X0012745Y0193601D01*
X0012875Y0193550D01*
X0013004Y0193495D01*
X0013131Y0193436D01*
X0013256Y0193373D01*
X0013379Y0193308D01*
X0013501Y0193238D01*
X0013620Y0193165D01*
X0013738Y0193089D01*
X0013853Y0193010D01*
X0013966Y0192927D01*
X0014076Y0192841D01*
X0014184Y0192752D01*
X0014289Y0192660D01*
X0014392Y0192565D01*
X0014492Y0192467D01*
X0014589Y0192367D01*
X0014683Y0192263D01*
X0014775Y0192157D01*
X0014863Y0192049D01*
X0014948Y0191938D01*
X0015030Y0191824D01*
X0015109Y0191708D01*
X0015184Y0191591D01*
X0015256Y0191471D01*
X0015324Y0191349D01*
X0015389Y0191225D01*
X0015451Y0191099D01*
X0015509Y0190972D01*
X0015563Y0190843D01*
X0015614Y0190712D01*
X0015660Y0190580D01*
X0015703Y0190447D01*
X0015743Y0190313D01*
X0015778Y0190178D01*
X0015810Y0190041D01*
X0015837Y0189904D01*
X0015861Y0189766D01*
X0015881Y0189628D01*
X0015897Y0189489D01*
X0015909Y0189349D01*
X0015917Y0189210D01*
X0015921Y0189070D01*
X0015921Y0188930D01*
X0015917Y0188790D01*
X0015909Y0188651D01*
X0015897Y0188511D01*
X0015881Y0188372D01*
X0015861Y0188234D01*
X0015837Y0188096D01*
X0015810Y0187959D01*
X0015778Y0187822D01*
X0015743Y0187687D01*
X0015703Y0187553D01*
X0015660Y0187420D01*
X0015614Y0187288D01*
X0015563Y0187157D01*
X0015509Y0187028D01*
X0015451Y0186901D01*
X0015389Y0186775D01*
X0015324Y0186651D01*
X0015256Y0186529D01*
X0015184Y0186409D01*
X0015109Y0186292D01*
X0015030Y0186176D01*
X0014948Y0186062D01*
X0014863Y0185951D01*
X0014775Y0185843D01*
X0014683Y0185737D01*
X0014589Y0185633D01*
X0014492Y0185533D01*
X0014392Y0185435D01*
X0014289Y0185340D01*
X0014184Y0185248D01*
X0014076Y0185159D01*
X0013966Y0185073D01*
X0013853Y0184990D01*
X0013738Y0184911D01*
X0013620Y0184835D01*
X0013501Y0184762D01*
X0013379Y0184692D01*
X0013256Y0184627D01*
X0013131Y0184564D01*
X0013004Y0184505D01*
X0012875Y0184450D01*
X0012745Y0184399D01*
X0012614Y0184351D01*
X0012481Y0184307D01*
X0012347Y0184267D01*
X0012212Y0184230D01*
X0012076Y0184198D01*
X0011939Y0184169D01*
X0011801Y0184145D01*
X0011663Y0184124D01*
X0011524Y0184107D01*
X0011384Y0184094D01*
X0011245Y0184085D01*
X0011105Y0184080D01*
X0010965Y0184079D01*
X0010825Y0184082D01*
X0010685Y0184089D01*
X0010546Y0184100D01*
X0010407Y0184115D01*
X0010268Y0184134D01*
X0010130Y0184156D01*
X0009993Y0184183D01*
X0009856Y0184214D01*
X0009721Y0184248D01*
X0009586Y0184286D01*
X0009453Y0184329D01*
X0009321Y0184374D01*
X0009190Y0184424D01*
X0009060Y0184477D01*
X0008933Y0184534D01*
X0008807Y0184595D01*
X0008682Y0184659D01*
X0008560Y0184727D01*
X0008439Y0184798D01*
X0008321Y0184872D01*
X0008205Y0184950D01*
X0008091Y0185031D01*
X0007979Y0185116D01*
X0007870Y0185203D01*
X0007763Y0185293D01*
X0007659Y0185387D01*
X0007558Y0185483D01*
X0007459Y0185583D01*
X0007363Y0185685D01*
X0007271Y0185789D01*
X0007181Y0185897D01*
X0007094Y0186007D01*
X0007011Y0186119D01*
X0006930Y0186233D01*
X0006853Y0186350D01*
X0006780Y0186469D01*
X0006709Y0186590D01*
X0006643Y0186713D01*
X0006579Y0186838D01*
X0006520Y0186964D01*
X0006464Y0187093D01*
X0006411Y0187222D01*
X0006363Y0187353D01*
X0006318Y0187486D01*
X0006277Y0187620D01*
X0006239Y0187755D01*
X0006206Y0187890D01*
X0006176Y0188027D01*
X0006150Y0188165D01*
X0006129Y0188303D01*
X0006111Y0188442D01*
X0006097Y0188581D01*
X0006087Y0188720D01*
X0006081Y0188860D01*
X0006079Y0189000D01*
X0378579Y0189000D02*
X0378581Y0189140D01*
X0378587Y0189280D01*
X0378597Y0189419D01*
X0378611Y0189558D01*
X0378629Y0189697D01*
X0378650Y0189835D01*
X0378676Y0189973D01*
X0378706Y0190110D01*
X0378739Y0190245D01*
X0378777Y0190380D01*
X0378818Y0190514D01*
X0378863Y0190647D01*
X0378911Y0190778D01*
X0378964Y0190907D01*
X0379020Y0191036D01*
X0379079Y0191162D01*
X0379143Y0191287D01*
X0379209Y0191410D01*
X0379280Y0191531D01*
X0379353Y0191650D01*
X0379430Y0191767D01*
X0379511Y0191881D01*
X0379594Y0191993D01*
X0379681Y0192103D01*
X0379771Y0192211D01*
X0379863Y0192315D01*
X0379959Y0192417D01*
X0380058Y0192517D01*
X0380159Y0192613D01*
X0380263Y0192707D01*
X0380370Y0192797D01*
X0380479Y0192884D01*
X0380591Y0192969D01*
X0380705Y0193050D01*
X0380821Y0193128D01*
X0380939Y0193202D01*
X0381060Y0193273D01*
X0381182Y0193341D01*
X0381307Y0193405D01*
X0381433Y0193466D01*
X0381560Y0193523D01*
X0381690Y0193576D01*
X0381821Y0193626D01*
X0381953Y0193671D01*
X0382086Y0193714D01*
X0382221Y0193752D01*
X0382356Y0193786D01*
X0382493Y0193817D01*
X0382630Y0193844D01*
X0382768Y0193866D01*
X0382907Y0193885D01*
X0383046Y0193900D01*
X0383185Y0193911D01*
X0383325Y0193918D01*
X0383465Y0193921D01*
X0383605Y0193920D01*
X0383745Y0193915D01*
X0383884Y0193906D01*
X0384024Y0193893D01*
X0384163Y0193876D01*
X0384301Y0193855D01*
X0384439Y0193831D01*
X0384576Y0193802D01*
X0384712Y0193770D01*
X0384847Y0193733D01*
X0384981Y0193693D01*
X0385114Y0193649D01*
X0385245Y0193601D01*
X0385375Y0193550D01*
X0385504Y0193495D01*
X0385631Y0193436D01*
X0385756Y0193373D01*
X0385879Y0193308D01*
X0386001Y0193238D01*
X0386120Y0193165D01*
X0386238Y0193089D01*
X0386353Y0193010D01*
X0386466Y0192927D01*
X0386576Y0192841D01*
X0386684Y0192752D01*
X0386789Y0192660D01*
X0386892Y0192565D01*
X0386992Y0192467D01*
X0387089Y0192367D01*
X0387183Y0192263D01*
X0387275Y0192157D01*
X0387363Y0192049D01*
X0387448Y0191938D01*
X0387530Y0191824D01*
X0387609Y0191708D01*
X0387684Y0191591D01*
X0387756Y0191471D01*
X0387824Y0191349D01*
X0387889Y0191225D01*
X0387951Y0191099D01*
X0388009Y0190972D01*
X0388063Y0190843D01*
X0388114Y0190712D01*
X0388160Y0190580D01*
X0388203Y0190447D01*
X0388243Y0190313D01*
X0388278Y0190178D01*
X0388310Y0190041D01*
X0388337Y0189904D01*
X0388361Y0189766D01*
X0388381Y0189628D01*
X0388397Y0189489D01*
X0388409Y0189349D01*
X0388417Y0189210D01*
X0388421Y0189070D01*
X0388421Y0188930D01*
X0388417Y0188790D01*
X0388409Y0188651D01*
X0388397Y0188511D01*
X0388381Y0188372D01*
X0388361Y0188234D01*
X0388337Y0188096D01*
X0388310Y0187959D01*
X0388278Y0187822D01*
X0388243Y0187687D01*
X0388203Y0187553D01*
X0388160Y0187420D01*
X0388114Y0187288D01*
X0388063Y0187157D01*
X0388009Y0187028D01*
X0387951Y0186901D01*
X0387889Y0186775D01*
X0387824Y0186651D01*
X0387756Y0186529D01*
X0387684Y0186409D01*
X0387609Y0186292D01*
X0387530Y0186176D01*
X0387448Y0186062D01*
X0387363Y0185951D01*
X0387275Y0185843D01*
X0387183Y0185737D01*
X0387089Y0185633D01*
X0386992Y0185533D01*
X0386892Y0185435D01*
X0386789Y0185340D01*
X0386684Y0185248D01*
X0386576Y0185159D01*
X0386466Y0185073D01*
X0386353Y0184990D01*
X0386238Y0184911D01*
X0386120Y0184835D01*
X0386001Y0184762D01*
X0385879Y0184692D01*
X0385756Y0184627D01*
X0385631Y0184564D01*
X0385504Y0184505D01*
X0385375Y0184450D01*
X0385245Y0184399D01*
X0385114Y0184351D01*
X0384981Y0184307D01*
X0384847Y0184267D01*
X0384712Y0184230D01*
X0384576Y0184198D01*
X0384439Y0184169D01*
X0384301Y0184145D01*
X0384163Y0184124D01*
X0384024Y0184107D01*
X0383884Y0184094D01*
X0383745Y0184085D01*
X0383605Y0184080D01*
X0383465Y0184079D01*
X0383325Y0184082D01*
X0383185Y0184089D01*
X0383046Y0184100D01*
X0382907Y0184115D01*
X0382768Y0184134D01*
X0382630Y0184156D01*
X0382493Y0184183D01*
X0382356Y0184214D01*
X0382221Y0184248D01*
X0382086Y0184286D01*
X0381953Y0184329D01*
X0381821Y0184374D01*
X0381690Y0184424D01*
X0381560Y0184477D01*
X0381433Y0184534D01*
X0381307Y0184595D01*
X0381182Y0184659D01*
X0381060Y0184727D01*
X0380939Y0184798D01*
X0380821Y0184872D01*
X0380705Y0184950D01*
X0380591Y0185031D01*
X0380479Y0185116D01*
X0380370Y0185203D01*
X0380263Y0185293D01*
X0380159Y0185387D01*
X0380058Y0185483D01*
X0379959Y0185583D01*
X0379863Y0185685D01*
X0379771Y0185789D01*
X0379681Y0185897D01*
X0379594Y0186007D01*
X0379511Y0186119D01*
X0379430Y0186233D01*
X0379353Y0186350D01*
X0379280Y0186469D01*
X0379209Y0186590D01*
X0379143Y0186713D01*
X0379079Y0186838D01*
X0379020Y0186964D01*
X0378964Y0187093D01*
X0378911Y0187222D01*
X0378863Y0187353D01*
X0378818Y0187486D01*
X0378777Y0187620D01*
X0378739Y0187755D01*
X0378706Y0187890D01*
X0378676Y0188027D01*
X0378650Y0188165D01*
X0378629Y0188303D01*
X0378611Y0188442D01*
X0378597Y0188581D01*
X0378587Y0188720D01*
X0378581Y0188860D01*
X0378579Y0189000D01*
X0378579Y0011500D02*
X0378581Y0011640D01*
X0378587Y0011780D01*
X0378597Y0011919D01*
X0378611Y0012058D01*
X0378629Y0012197D01*
X0378650Y0012335D01*
X0378676Y0012473D01*
X0378706Y0012610D01*
X0378739Y0012745D01*
X0378777Y0012880D01*
X0378818Y0013014D01*
X0378863Y0013147D01*
X0378911Y0013278D01*
X0378964Y0013407D01*
X0379020Y0013536D01*
X0379079Y0013662D01*
X0379143Y0013787D01*
X0379209Y0013910D01*
X0379280Y0014031D01*
X0379353Y0014150D01*
X0379430Y0014267D01*
X0379511Y0014381D01*
X0379594Y0014493D01*
X0379681Y0014603D01*
X0379771Y0014711D01*
X0379863Y0014815D01*
X0379959Y0014917D01*
X0380058Y0015017D01*
X0380159Y0015113D01*
X0380263Y0015207D01*
X0380370Y0015297D01*
X0380479Y0015384D01*
X0380591Y0015469D01*
X0380705Y0015550D01*
X0380821Y0015628D01*
X0380939Y0015702D01*
X0381060Y0015773D01*
X0381182Y0015841D01*
X0381307Y0015905D01*
X0381433Y0015966D01*
X0381560Y0016023D01*
X0381690Y0016076D01*
X0381821Y0016126D01*
X0381953Y0016171D01*
X0382086Y0016214D01*
X0382221Y0016252D01*
X0382356Y0016286D01*
X0382493Y0016317D01*
X0382630Y0016344D01*
X0382768Y0016366D01*
X0382907Y0016385D01*
X0383046Y0016400D01*
X0383185Y0016411D01*
X0383325Y0016418D01*
X0383465Y0016421D01*
X0383605Y0016420D01*
X0383745Y0016415D01*
X0383884Y0016406D01*
X0384024Y0016393D01*
X0384163Y0016376D01*
X0384301Y0016355D01*
X0384439Y0016331D01*
X0384576Y0016302D01*
X0384712Y0016270D01*
X0384847Y0016233D01*
X0384981Y0016193D01*
X0385114Y0016149D01*
X0385245Y0016101D01*
X0385375Y0016050D01*
X0385504Y0015995D01*
X0385631Y0015936D01*
X0385756Y0015873D01*
X0385879Y0015808D01*
X0386001Y0015738D01*
X0386120Y0015665D01*
X0386238Y0015589D01*
X0386353Y0015510D01*
X0386466Y0015427D01*
X0386576Y0015341D01*
X0386684Y0015252D01*
X0386789Y0015160D01*
X0386892Y0015065D01*
X0386992Y0014967D01*
X0387089Y0014867D01*
X0387183Y0014763D01*
X0387275Y0014657D01*
X0387363Y0014549D01*
X0387448Y0014438D01*
X0387530Y0014324D01*
X0387609Y0014208D01*
X0387684Y0014091D01*
X0387756Y0013971D01*
X0387824Y0013849D01*
X0387889Y0013725D01*
X0387951Y0013599D01*
X0388009Y0013472D01*
X0388063Y0013343D01*
X0388114Y0013212D01*
X0388160Y0013080D01*
X0388203Y0012947D01*
X0388243Y0012813D01*
X0388278Y0012678D01*
X0388310Y0012541D01*
X0388337Y0012404D01*
X0388361Y0012266D01*
X0388381Y0012128D01*
X0388397Y0011989D01*
X0388409Y0011849D01*
X0388417Y0011710D01*
X0388421Y0011570D01*
X0388421Y0011430D01*
X0388417Y0011290D01*
X0388409Y0011151D01*
X0388397Y0011011D01*
X0388381Y0010872D01*
X0388361Y0010734D01*
X0388337Y0010596D01*
X0388310Y0010459D01*
X0388278Y0010322D01*
X0388243Y0010187D01*
X0388203Y0010053D01*
X0388160Y0009920D01*
X0388114Y0009788D01*
X0388063Y0009657D01*
X0388009Y0009528D01*
X0387951Y0009401D01*
X0387889Y0009275D01*
X0387824Y0009151D01*
X0387756Y0009029D01*
X0387684Y0008909D01*
X0387609Y0008792D01*
X0387530Y0008676D01*
X0387448Y0008562D01*
X0387363Y0008451D01*
X0387275Y0008343D01*
X0387183Y0008237D01*
X0387089Y0008133D01*
X0386992Y0008033D01*
X0386892Y0007935D01*
X0386789Y0007840D01*
X0386684Y0007748D01*
X0386576Y0007659D01*
X0386466Y0007573D01*
X0386353Y0007490D01*
X0386238Y0007411D01*
X0386120Y0007335D01*
X0386001Y0007262D01*
X0385879Y0007192D01*
X0385756Y0007127D01*
X0385631Y0007064D01*
X0385504Y0007005D01*
X0385375Y0006950D01*
X0385245Y0006899D01*
X0385114Y0006851D01*
X0384981Y0006807D01*
X0384847Y0006767D01*
X0384712Y0006730D01*
X0384576Y0006698D01*
X0384439Y0006669D01*
X0384301Y0006645D01*
X0384163Y0006624D01*
X0384024Y0006607D01*
X0383884Y0006594D01*
X0383745Y0006585D01*
X0383605Y0006580D01*
X0383465Y0006579D01*
X0383325Y0006582D01*
X0383185Y0006589D01*
X0383046Y0006600D01*
X0382907Y0006615D01*
X0382768Y0006634D01*
X0382630Y0006656D01*
X0382493Y0006683D01*
X0382356Y0006714D01*
X0382221Y0006748D01*
X0382086Y0006786D01*
X0381953Y0006829D01*
X0381821Y0006874D01*
X0381690Y0006924D01*
X0381560Y0006977D01*
X0381433Y0007034D01*
X0381307Y0007095D01*
X0381182Y0007159D01*
X0381060Y0007227D01*
X0380939Y0007298D01*
X0380821Y0007372D01*
X0380705Y0007450D01*
X0380591Y0007531D01*
X0380479Y0007616D01*
X0380370Y0007703D01*
X0380263Y0007793D01*
X0380159Y0007887D01*
X0380058Y0007983D01*
X0379959Y0008083D01*
X0379863Y0008185D01*
X0379771Y0008289D01*
X0379681Y0008397D01*
X0379594Y0008507D01*
X0379511Y0008619D01*
X0379430Y0008733D01*
X0379353Y0008850D01*
X0379280Y0008969D01*
X0379209Y0009090D01*
X0379143Y0009213D01*
X0379079Y0009338D01*
X0379020Y0009464D01*
X0378964Y0009593D01*
X0378911Y0009722D01*
X0378863Y0009853D01*
X0378818Y0009986D01*
X0378777Y0010120D01*
X0378739Y0010255D01*
X0378706Y0010390D01*
X0378676Y0010527D01*
X0378650Y0010665D01*
X0378629Y0010803D01*
X0378611Y0010942D01*
X0378597Y0011081D01*
X0378587Y0011220D01*
X0378581Y0011360D01*
X0378579Y0011500D01*
D11*
X0376000Y0049000D03*
X0366000Y0049000D03*
X0366000Y0059000D03*
X0376000Y0059000D03*
X0376000Y0069000D03*
X0366000Y0069000D03*
X0366000Y0079000D03*
X0376000Y0079000D03*
X0376000Y0089000D03*
X0366000Y0089000D03*
X0366000Y0099000D03*
X0376000Y0099000D03*
X0376000Y0109000D03*
X0366000Y0109000D03*
X0366000Y0119000D03*
X0376000Y0119000D03*
D12*
X0326000Y0114000D03*
X0311000Y0124000D03*
X0326000Y0141500D03*
X0311000Y0146500D03*
X0256000Y0146500D03*
X0256000Y0121500D03*
X0311000Y0084000D03*
X0326000Y0074000D03*
X0311000Y0059000D03*
X0326000Y0051500D03*
X0311000Y0019000D03*
X0326000Y0011500D03*
X0256000Y0019000D03*
X0256000Y0059000D03*
X0256000Y0081500D03*
X0146000Y0156500D03*
X0146000Y0171500D03*
X0106000Y0171500D03*
X0091000Y0171500D03*
X0091000Y0156500D03*
X0106000Y0156500D03*
X0051000Y0156500D03*
X0051000Y0171500D03*
X0256000Y0186500D03*
X0311000Y0186500D03*
X0326000Y0181500D03*
D13*
X0146000Y0186500D03*
X0098500Y0186500D03*
X0051000Y0186500D03*
D14*
X0176000Y0106500D03*
X0106000Y0091500D03*
X0036000Y0101500D03*
X0036000Y0061500D03*
X0106000Y0051500D03*
X0176000Y0066500D03*
D15*
X0176000Y0036500D03*
X0106000Y0021500D03*
X0036000Y0031500D03*
X0106000Y0121500D03*
X0036000Y0131500D03*
X0176000Y0136500D03*
D16*
X0176000Y0161500D03*
X0186000Y0161500D03*
X0296000Y0146500D03*
X0296000Y0124000D03*
X0341000Y0129000D03*
X0341000Y0151500D03*
X0376000Y0151500D03*
X0376000Y0161500D03*
X0361000Y0176500D03*
X0361000Y0186500D03*
X0341000Y0191500D03*
X0296000Y0186500D03*
X0341000Y0089000D03*
X0296000Y0084000D03*
X0341000Y0061500D03*
X0296000Y0059000D03*
X0341000Y0021500D03*
X0361000Y0019000D03*
X0361000Y0009000D03*
X0296000Y0019000D03*
X0201000Y0011500D03*
X0191000Y0011500D03*
D17*
X0233000Y0016500D02*
X0239000Y0016500D01*
X0239000Y0026500D02*
X0233000Y0026500D01*
X0233000Y0036500D02*
X0239000Y0036500D01*
X0239000Y0091500D02*
X0233000Y0091500D01*
X0233000Y0101500D02*
X0239000Y0101500D01*
X0239000Y0111500D02*
X0233000Y0111500D01*
X0233000Y0161500D02*
X0239000Y0161500D01*
X0239000Y0171500D02*
X0233000Y0171500D01*
X0233000Y0181500D02*
X0239000Y0181500D01*
D18*
X0268500Y0174100D02*
X0268500Y0168900D01*
X0268874Y0170791D02*
X0268500Y0171500D01*
X0268874Y0172760D01*
X0276748Y0172760D01*
X0278500Y0171500D01*
X0278717Y0172760D01*
X0278717Y0180634D01*
X0278500Y0181500D01*
X0278500Y0184100D02*
X0278500Y0178900D01*
X0286591Y0176697D02*
X0286591Y0166854D01*
X0280685Y0160949D01*
X0278500Y0161500D01*
X0278717Y0160949D01*
X0278717Y0147169D01*
X0278500Y0146500D01*
X0268874Y0147169D02*
X0268500Y0146500D01*
X0268874Y0145201D01*
X0268874Y0136500D01*
X0268874Y0125516D01*
X0270843Y0123547D01*
X0271000Y0121500D01*
X0270843Y0119610D01*
X0270843Y0111736D01*
X0271000Y0111500D01*
X0268874Y0111736D01*
X0262969Y0111736D01*
X0262969Y0093488D01*
X0272811Y0086146D01*
X0273500Y0084000D01*
X0272811Y0082209D01*
X0272811Y0072366D01*
X0325961Y0072366D01*
X0325961Y0071303D01*
X0326000Y0074000D01*
X0325961Y0071303D02*
X0325961Y0052681D01*
X0326000Y0051500D01*
X0327929Y0050713D01*
X0327929Y0048744D01*
X0344957Y0039217D01*
X0361000Y0019000D01*
X0325961Y0013311D02*
X0326000Y0011500D01*
X0323992Y0011343D01*
X0323992Y0007406D01*
X0267280Y0007406D01*
X0261374Y0013311D01*
X0258874Y0015280D01*
X0259031Y0015280D01*
X0256000Y0019000D01*
X0257063Y0017248D01*
X0249563Y0025122D01*
X0237378Y0025122D01*
X0236000Y0026500D01*
X0236472Y0044650D02*
X0229661Y0052839D01*
X0236472Y0044650D02*
X0254563Y0057150D01*
X0256000Y0059000D01*
X0271000Y0059000D02*
X0272811Y0060555D01*
X0272811Y0072366D01*
X0256000Y0081500D02*
X0255094Y0082209D01*
X0250094Y0099925D01*
X0239878Y0102425D01*
X0236000Y0101500D01*
X0271000Y0101500D02*
X0272811Y0099925D01*
X0282654Y0095083D01*
X0282654Y0084177D01*
X0283500Y0084000D01*
X0296000Y0084000D02*
X0296433Y0082209D01*
X0310213Y0082209D01*
X0311000Y0084000D01*
X0312713Y0081677D01*
X0317713Y0086146D01*
X0325961Y0086146D01*
X0325961Y0113173D01*
X0326000Y0114000D01*
X0310213Y0121579D02*
X0311000Y0124000D01*
X0310213Y0121579D02*
X0296433Y0121579D01*
X0296000Y0124000D01*
X0281000Y0114100D02*
X0281000Y0108900D01*
X0281000Y0111500D02*
X0280685Y0111736D01*
X0272811Y0111736D01*
X0271000Y0111500D01*
X0271000Y0104100D02*
X0271000Y0098900D01*
X0271000Y0118900D02*
X0271000Y0124100D01*
X0296000Y0146500D02*
X0296433Y0147169D01*
X0310213Y0147169D01*
X0311000Y0146500D01*
X0339583Y0151106D02*
X0341709Y0151106D01*
X0341000Y0151500D01*
X0339583Y0151106D02*
X0365173Y0120516D01*
X0366000Y0119000D01*
X0367142Y0118547D01*
X0375016Y0118547D01*
X0376000Y0119000D01*
X0376000Y0109000D02*
X0376984Y0106736D01*
X0376000Y0109000D02*
X0375016Y0108705D01*
X0371079Y0108705D01*
X0371079Y0098862D01*
X0371079Y0089020D01*
X0367142Y0089020D01*
X0366000Y0089000D01*
X0371079Y0089020D02*
X0375016Y0089020D01*
X0376000Y0089000D01*
X0375016Y0079177D02*
X0367142Y0079177D01*
X0366000Y0079000D01*
X0365173Y0079177D01*
X0341709Y0089177D01*
X0341000Y0089000D01*
X0339740Y0086146D01*
X0325961Y0086146D01*
X0366000Y0099000D02*
X0367142Y0098862D01*
X0371079Y0098862D01*
X0375016Y0098862D01*
X0376000Y0099000D01*
X0371079Y0108705D02*
X0367142Y0108705D01*
X0366000Y0109000D01*
X0375016Y0079177D02*
X0376000Y0079000D01*
X0375016Y0069335D02*
X0367142Y0069335D01*
X0366000Y0069000D01*
X0375016Y0069335D02*
X0376000Y0069000D01*
X0312181Y0054650D02*
X0314681Y0039591D01*
X0325961Y0013311D01*
X0311000Y0019000D02*
X0310213Y0017248D01*
X0296433Y0017248D01*
X0296433Y0042307D01*
X0282654Y0058587D01*
X0281000Y0059000D01*
X0296000Y0059000D02*
X0296433Y0059118D01*
X0310213Y0059118D01*
X0311000Y0059000D01*
X0312181Y0054650D01*
X0276000Y0044100D02*
X0276000Y0038900D01*
X0276748Y0040870D02*
X0276000Y0041500D01*
X0276748Y0040870D02*
X0276748Y0032996D01*
X0284622Y0032996D01*
X0286000Y0031500D01*
X0286000Y0028900D02*
X0286000Y0034100D01*
X0276748Y0032996D02*
X0276000Y0031500D01*
X0276000Y0024100D02*
X0276000Y0018900D01*
X0296000Y0019000D02*
X0296433Y0017248D01*
X0227535Y0135358D02*
X0178165Y0135358D01*
X0176000Y0136500D01*
X0268874Y0147169D02*
X0268874Y0170791D01*
X0278500Y0164100D02*
X0278500Y0158900D01*
X0286591Y0176697D02*
X0294465Y0184571D01*
X0296000Y0186500D01*
X0296433Y0186539D01*
X0310213Y0186539D01*
X0311000Y0186500D01*
X0376000Y0161500D02*
X0376984Y0162917D01*
D19*
X0278500Y0171500D03*
X0271000Y0111500D03*
X0276000Y0031500D03*
D20*
X0281000Y0059000D03*
X0283500Y0084000D03*
X0268500Y0146500D03*
D21*
X0278500Y0146500D03*
X0273500Y0084000D03*
X0271000Y0059000D03*
D22*
X0236000Y0046500D02*
X0229661Y0052839D01*
X0216000Y0066500D01*
X0216000Y0106500D01*
X0221000Y0111500D01*
X0236000Y0111500D01*
X0176000Y0136500D02*
X0161000Y0121500D01*
X0141000Y0121500D01*
X0141000Y0051500D01*
X0161000Y0051500D01*
X0176000Y0066500D01*
X0141000Y0051500D02*
X0106000Y0051500D01*
X0106000Y0021500D02*
X0046000Y0021500D01*
X0036000Y0031500D01*
X0106000Y0021500D02*
X0161000Y0021500D01*
X0176000Y0036500D01*
X0186000Y0036500D01*
X0201000Y0021500D01*
X0201000Y0011500D01*
X0201000Y0026500D01*
X0211000Y0036500D01*
X0236000Y0036500D01*
X0236000Y0046500D01*
X0106000Y0091500D02*
X0096000Y0101500D01*
X0036000Y0101500D01*
X0036000Y0131500D02*
X0096000Y0131500D01*
X0106000Y0121500D01*
X0141000Y0121500D01*
X0106000Y0171500D02*
X0091000Y0171500D01*
D23*
X0376984Y0162917D02*
X0387358Y0155417D01*
X0387358Y0112110D01*
X0376984Y0106736D01*
D24*
X0268874Y0136500D02*
X0267732Y0135358D01*
X0227535Y0135358D01*
M02*
