%
M48
M72
T01C0.03150
T02C0.03200
T03C0.04000
T04C0.04400
T05C0.05500
T06C0.09843
%
T01
X271000Y111500
X278500Y171500
X276000Y31500
T02
X176000Y161500
X186000Y161500
X268500Y171500
X278500Y161500
X278500Y146500
X268500Y146500
X296000Y146500
X296000Y124000
X281000Y111500
X271000Y101500
X273500Y84000
X283500Y84000
X296000Y84000
X341000Y89000
X341000Y61500
X296000Y59000
X281000Y59000
X271000Y59000
X276000Y41500
X286000Y31500
X276000Y21500
X296000Y19000
X341000Y21500
X361000Y19000
X361000Y9000
X201000Y11500
X191000Y11500
X271000Y121500
X341000Y129000
X341000Y151500
X376000Y151500
X376000Y161500
X361000Y176500
X361000Y186500
X341000Y191500
X296000Y186500
X278500Y181500
T03
X36000Y131500
X36000Y101500
X106000Y91500
X106000Y121500
X176000Y106500
X176000Y136500
X236000Y111500
X236000Y101500
X236000Y91500
X176000Y66500
X176000Y36500
X236000Y36500
X236000Y26500
X236000Y16500
X366000Y49000
X376000Y49000
X376000Y59000
X366000Y59000
X366000Y69000
X376000Y69000
X376000Y79000
X366000Y79000
X366000Y89000
X376000Y89000
X376000Y99000
X366000Y99000
X366000Y109000
X376000Y109000
X376000Y119000
X366000Y119000
X236000Y161500
X236000Y171500
X236000Y181500
X106000Y51500
X106000Y21500
X36000Y31500
X36000Y61500
T04
X256000Y19000
X311000Y19000
X326000Y11500
X326000Y51500
X311000Y59000
X326000Y74000
X311000Y84000
X256000Y81500
X256000Y59000
X326000Y114000
X311000Y124000
X326000Y141500
X311000Y146500
X256000Y146500
X256000Y121500
X146000Y156500
X146000Y171500
X106000Y171500
X91000Y171500
X91000Y156500
X106000Y156500
X51000Y156500
X51000Y171500
X256000Y186500
X311000Y186500
X326000Y181500
T05
X51000Y186500
X98500Y186500
X146000Y186500
T06
X11000Y11500
X11000Y189000
X383500Y189000
X383500Y11500
M30
